<svg xmlns="http://www.w3.org/2000/svg" xmlns:xlink="http://www.w3.org/1999/xlink" width="340mm" height="40mm" viewBox="0 0 170 20"><defs><linearGradient xlink:href="#a" id="c" x1="97.951" x2="138.853" y1="-3.945" y2="66.899" gradientTransform="translate(6.532 93.479) scale(.26458)" gradientUnits="userSpaceOnUse"/><linearGradient id="a"><stop offset="0" style="stop-color:#fff;stop-opacity:1"/><stop offset=".546" style="stop-color:#cedff8;stop-opacity:1"/></linearGradient><linearGradient xlink:href="#b" id="d" x1="217.949" x2="298.986" y1="31.477" y2="31.477" gradientTransform="translate(6.532 93.479) scale(.26458)" gradientUnits="userSpaceOnUse"/><linearGradient id="b"><stop offset="0" style="stop-color:#fbf0d4;stop-opacity:1"/><stop offset=".546" style="stop-color:#fbe9a3;stop-opacity:1"/></linearGradient><linearGradient xlink:href="#a" id="e" x1="358.014" x2="439.051" y1="31.477" y2="31.477" gradientTransform="translate(6.532 93.479) scale(.26458)" gradientUnits="userSpaceOnUse"/><linearGradient xlink:href="#a" id="f" x1="498.079" x2="579.117" y1="31.477" y2="31.477" gradientTransform="translate(6.532 93.479) scale(.26458)" gradientUnits="userSpaceOnUse"/></defs><path d="M29.124 96.65h17.47c1.027 0 1.853.645 1.853 1.445v7.425c0 .8-.826 1.444-1.853 1.444h-17.47c-1.027 0-1.853-.644-1.853-1.444v-7.425c0-.8.826-1.444 1.853-1.444z" style="fill:url(#c);stroke:#9fd1ff;stroke-width:.264583" transform="translate(-8.295 -93.4)"/><g stroke="#000" stroke-miterlimit="10" stroke-width=".265"><path fill="none" d="M77.215 8.678h14.19" pointer-events="stroke"/><path d="m92.794 8.678-1.852.926.463-.926-.463-.926z" pointer-events="all"/></g><path d="M66.183 96.65h17.47c1.027 0 1.853.645 1.853 1.445v7.425c0 .8-.826 1.444-1.853 1.444h-17.47c-1.027 0-1.853-.644-1.853-1.444v-7.425c0-.8.826-1.444 1.853-1.444z" style="fill:url(#d);stroke:#e8c900;stroke-width:.264583" transform="translate(-8.295 -93.4)"/><g stroke="#000" stroke-miterlimit="10" stroke-width=".265"><path fill="none" d="M114.257 8.678h14.19" pointer-events="stroke"/><path d="m129.835 8.678-1.852.926.463-.926-.463-.926z" pointer-events="all"/></g><path d="M103.242 96.65h17.47c1.027 0 1.853.645 1.853 1.445v7.425c0 .8-.826 1.444-1.853 1.444h-17.47c-1.027 0-1.853-.644-1.853-1.444v-7.425c0-.8.826-1.444 1.853-1.444z" style="fill:url(#e);stroke:#9fd1ff;stroke-width:.264583" transform="translate(-8.295 -93.4)"/><path d="M99.473 6.72q-.238.005-.356.11-.119.104-.119.395v.767h-.237V6.514h.218v.268q.101-.167.194-.237.096-.074.21-.074.03 0 .09.009zm1.476.612h-1.09q.006.232.119.37.115.138.316.138.288 0 .386-.296h.238q-.046.242-.212.378-.167.135-.42.135-.311 0-.492-.208-.18-.212-.18-.576t.183-.582q.186-.22.494-.22.658 0 .658.861zm-1.084-.192h.832q0-.192-.115-.322-.116-.13-.294-.13t-.293.125q-.116.121-.13.327zm2.577 1.468h-.235v-.785q-.16.234-.457.234-.293 0-.463-.208-.17-.21-.17-.568 0-.367.176-.587.175-.223.468-.223.302 0 .472.24v-.197h.209zm-.647-1.917q-.194 0-.313.158-.119.159-.119.415 0 .26.119.418.119.155.313.155.187 0 .3-.155.112-.155.112-.41 0-.264-.113-.423-.11-.158-.299-.158zm2.162 1.301h-.212v-.206q-.104.147-.217.21-.113.061-.276.061-.215 0-.345-.11-.127-.11-.127-.293v-1.14h.234V7.56q0 .132.082.211.082.08.223.08.184 0 .294-.136.11-.138.11-.364v-.838h.234zm.593-1.478v1.478h-.234V6.514zm0-.579v.296h-.237v-.296zm1.084.785q-.238.005-.356.11-.119.104-.119.395v.767h-.237V6.514h.218v.268q.101-.167.194-.237.096-.074.21-.074.03 0 .09.009zm1.476.612h-1.09q.006.232.119.37.115.138.316.138.288 0 .386-.296h.237q-.045.242-.211.378-.167.135-.42.135-.311 0-.492-.208-.18-.212-.18-.576t.183-.582q.186-.22.494-.22.658 0 .658.861zm-1.084-.192h.832q0-.192-.115-.322-.116-.13-.294-.13t-.293.125q-.116.121-.13.327zm2.576-1.205v2.057h-.208v-.194q-.096.138-.21.197-.11.062-.262.062-.299 0-.471-.214-.172-.217-.172-.593 0-.353.172-.564.175-.215.463-.215.305 0 .454.229v-.765zm-.649.756q-.192 0-.31.158-.119.159-.119.415 0 .26.119.418.118.155.313.155.186 0 .3-.155.112-.155.112-.412 0-.265-.113-.42-.113-.159-.302-.159zm-6.606 3.142h-.238q-.022-.156-.112-.237-.09-.085-.237-.085-.192 0-.302.158-.108.155-.108.432 0 .262.11.412.11.15.305.15.302 0 .361-.356h.237q-.022.27-.18.423-.158.15-.423.15-.302 0-.48-.21-.175-.21-.175-.57 0-.366.178-.586.18-.22.48-.22.256 0 .409.138.155.138.175.4zm1.21-.043q0-.155-.096-.223-.093-.067-.209-.067-.18 0-.29.138-.11.135-.11.361v.816h-.235V8.757h.235v.782q.104-.135.209-.189.107-.056.265-.056.214 0 .339.11.127.107.127.293v1.118h-.235zm1.823.364h-1.089q.006.232.119.37.115.138.316.138.288 0 .386-.296h.237q-.045.243-.211.378-.167.136-.42.136-.311 0-.492-.21-.18-.21-.18-.575 0-.364.183-.581.186-.22.494-.22.657 0 .657.86zm-1.083-.192h.832q0-.191-.115-.321-.116-.13-.294-.13t-.293.124q-.116.121-.13.327zm2.495-.13h-.238q-.022-.155-.112-.236-.09-.085-.237-.085-.192 0-.302.158-.108.155-.108.432 0 .262.11.412.11.15.305.15.302 0 .361-.356h.237q-.022.27-.18.423-.158.15-.423.15-.302 0-.48-.21-.175-.21-.175-.57 0-.366.178-.586.18-.22.48-.22.256 0 .409.138.155.138.175.4zm.505-1.075v1.205l.626-.626h.302l-.513.51.604.969h-.291l-.5-.802-.228.226v.576h-.235V8.757z" aria-label="required check" style="font-size:2.82223px;line-height:1em;font-family:FreeSans;-inkscape-font-specification:FreeSans;text-align:center;letter-spacing:0;word-spacing:.529167px;text-anchor:middle;stroke-width:1.05833"/><g stroke="#000" stroke-miterlimit="10" stroke-width=".265"><path fill="none" d="M151.298 8.678h16.836" pointer-events="stroke"/><path d="m169.523 8.678-1.852.926.463-.926-.463-.926z" pointer-events="all"/></g><path d="M140.3 96.65h17.471c1.027 0 1.853.645 1.853 1.445v7.425c0 .8-.826 1.444-1.853 1.444h-17.47c-1.027 0-1.853-.644-1.853-1.444v-7.425c0-.8.826-1.444 1.853-1.444z" style="fill:url(#f);stroke:#9fd1ff;stroke-width:.264583" transform="translate(-8.295 -93.4)"/><g stroke="#000" stroke-miterlimit="10" stroke-width=".265"><path fill="none" d="m.486 2.064 17.206 4.373" pointer-events="stroke"/><path d="m19.038 6.778-2.024.442.678-.783-.223-1.01z" pointer-events="all"/></g><g stroke="#000" stroke-miterlimit="10" stroke-width=".265"><path fill="none" d="m.221 17.939 17.18-5.416" pointer-events="stroke"/><path d="m18.724 12.104-1.487 1.44.164-1.021-.72-.744z" pointer-events="all"/></g><g stroke="#000" stroke-miterlimit="10" stroke-width=".265"><path fill="none" d="M40.173 8.678h14.19" pointer-events="stroke"/><path d="m55.752 8.678-1.852.926.463-.926-.463-.926z" pointer-events="all"/></g><path d="M142.141 101.329h.218v.248q.098-.155.211-.223.116-.068.28-.068.214 0 .341.11.127.11.127.294v1.118h-.234v-1.025q0-.132-.082-.212-.082-.078-.223-.078-.18 0-.29.138-.11.135-.11.361v.816h-.238zm1.496.437q.017-.48.593-.48.273 0 .415.105.14.101.14.299v.87q0 .115.128.115.025 0 .05-.006v.178q-.098.025-.16.025-.113 0-.173-.053-.056-.051-.07-.164-.237.217-.502.217-.223 0-.356-.118-.13-.119-.13-.32 0-.064.012-.118.014-.053.028-.093.017-.042.056-.076l.065-.06q.028-.022.09-.042.065-.022.1-.03.033-.012.118-.026l.124-.02.14-.02q.14-.017.193-.053.053-.037.053-.11v-.062q0-.108-.087-.164-.085-.057-.243-.057-.163 0-.248.065-.085.062-.099.198zm.471.9q.195 0 .32-.101.123-.105.123-.223v-.265q-.07.034-.214.056l-.246.04q-.104.016-.189.081-.084.062-.084.175 0 .113.076.175.076.062.214.062zm1.646-1.337v.192h-.243v1.013q0 .079.025.107.029.025.105.025.07 0 .113-.01v.197q-.11.02-.192.02-.138 0-.212-.063-.073-.059-.073-.172v-1.117h-.2v-.192h.2v-.407h.234v.407zm.48 0v1.479h-.235v-1.48zm0-.579v.297h-.238v-.297zm1.007 2.058h-.257l-.52-1.48h.266l.395 1.2.418-1.2h.265zm2.015-.66h-1.09q.007.23.12.369.115.138.315.138.288 0 .387-.296h.237q-.045.243-.212.378-.166.136-.42.136-.31 0-.491-.21-.18-.211-.18-.575t.183-.581q.186-.22.494-.22.657 0 .657.86zm-1.084-.193h.833q0-.192-.116-.321-.115-.13-.293-.13t-.294.124q-.115.121-.13.327zm3.499-.626v1.479h-.235v-1.287h-.395v1.287h-.234v-1.287h-.198v-.192h.198v-.251q0-.158.09-.246.093-.09.257-.09h.505v.288h-.194q-.008-.023-.116-.051-.105-.031-.144-.031-.164 0-.164.15v.23h.419zm.61-.579v2.058h-.238v-2.058zm.93.579v.192h-.242v1.013q0 .079.025.107.028.026.105.026.07 0 .112-.012v.198q-.11.02-.191.02-.139 0-.212-.063-.073-.059-.073-.172v-1.117h-.2v-.192h.2v-.407h.234v.407zm1.477.818h-1.09q.006.232.119.37.115.138.316.138.288 0 .386-.296h.237q-.045.243-.211.378-.167.136-.42.136-.311 0-.492-.21-.18-.211-.18-.575t.183-.581q.186-.22.494-.22.658 0 .658.86zm-1.084-.192h.832q0-.192-.115-.321-.116-.13-.294-.13t-.293.124q-.116.121-.13.327zm2.049-.42q-.237.006-.356.11-.118.104-.118.395v.768h-.237v-1.48h.217v.269q.101-.167.195-.237.096-.074.208-.074.031 0 .09.008z" aria-label="native filter" style="font-size:2.82223px;line-height:1em;font-family:FreeSans;-inkscape-font-specification:FreeSans;text-align:center;letter-spacing:0;word-spacing:.529167px;text-anchor:middle;stroke-width:1.05833" transform="translate(-8.295 -93.4)"/><path d="M36.29 102.277q.017.133.09.212.077.076.272.076.155 0 .248-.062.096-.065.096-.17 0-.081-.054-.13-.053-.047-.175-.076l-.22-.053q-.262-.062-.367-.155-.101-.096-.101-.271 0-.206.155-.328.155-.124.412-.124t.395.119q.138.118.141.336h-.248q-.009-.238-.297-.238-.143 0-.228.063-.085.059-.085.16 0 .08.065.13.065.048.209.082l.226.054q.22.053.319.152.098.096.098.26 0 .214-.166.341-.164.127-.443.127-.573 0-.59-.505zm2.467-.22h-1.09q.006.231.12.37.115.138.315.138.288 0 .387-.296h.237q-.045.242-.212.378-.166.135-.42.135-.31 0-.491-.209-.181-.211-.181-.575t.183-.582q.187-.22.494-.22.658 0 .658.86zm-1.084-.192h.833q0-.192-.116-.322t-.293-.13q-.178 0-.294.125-.116.121-.13.327zm1.902-.627v.192h-.242v1.014q0 .079.025.107.028.025.105.025.07 0 .112-.011v.197q-.11.02-.192.02-.138 0-.211-.062-.074-.06-.074-.172v-1.118h-.2v-.192h.2v-.406h.235v.406z" aria-label="set" style="font-size:2.82223px;line-height:1em;font-family:FreeSans;-inkscape-font-specification:FreeSans;text-align:center;letter-spacing:0;word-spacing:.529167px;text-anchor:middle;stroke-width:1.05833" transform="translate(-8.295 -93.4)"/><path d="M68.522 101.825h-.237q-.022-.155-.113-.237-.09-.084-.237-.084-.192 0-.302.158-.107.155-.107.432 0 .262.11.412.11.15.305.15.302 0 .361-.356h.237q-.022.27-.18.423-.159.15-.424.15-.302 0-.48-.21-.175-.211-.175-.57 0-.366.178-.586.18-.22.48-.22.257 0 .41.138.154.138.174.4zm1.448.983h-.212v-.206q-.104.146-.217.208-.113.063-.277.063-.214 0-.344-.11-.127-.11-.127-.294v-1.14h.234v1.047q0 .132.082.211.082.08.223.08.184 0 .294-.136.11-.138.11-.364v-.838h.234zm.514-.44q.017.132.09.211.076.076.27.076.156 0 .25-.062.095-.065.095-.17 0-.081-.053-.13-.054-.047-.175-.075l-.22-.054q-.263-.062-.367-.155-.102-.096-.102-.271 0-.206.155-.327.155-.125.412-.125t.395.119q.139.118.141.336h-.248q-.008-.237-.296-.237-.144 0-.229.062-.084.06-.084.16 0 .08.064.13.065.049.21.082l.225.054q.22.054.319.152.099.096.099.26 0 .214-.167.341-.163.127-.443.127-.573 0-.59-.505zm1.78-1.04v.193h-.242v1.013q0 .079.025.107.028.025.105.025.07 0 .112-.01v.197q-.11.02-.191.02-.139 0-.212-.063-.073-.059-.073-.172v-1.117h-.2v-.192h.2v-.407h.234v.407zm.808-.042q.319 0 .494.212.177.209.177.593 0 .364-.18.573-.178.209-.489.209-.316 0-.493-.21-.175-.211-.175-.584 0-.372.177-.58.178-.213.489-.213zm.002.218q-.197 0-.31.155-.113.152-.113.42 0 .269.113.424.113.152.31.152.195 0 .308-.152.116-.155.116-.415 0-.274-.113-.429-.11-.155-.31-.155zm.923-.175h.218v.209q.096-.133.2-.192.107-.06.254-.06.274 0 .398.226.104-.124.206-.175.102-.05.248-.05.206 0 .316.107.113.104.113.304v1.11h-.237v-1.02q0-.14-.073-.217-.07-.079-.2-.079-.144 0-.246.113-.102.113-.102.274v.929h-.237v-1.02q0-.14-.073-.217-.07-.079-.2-.079-.144 0-.246.113-.102.113-.102.274v.929h-.237zm4.452 0v1.479h-.234v-1.287h-.395v1.287h-.234v-1.287h-.198v-.192h.198v-.251q0-.158.09-.246.093-.09.257-.09h.505v.288h-.195q-.008-.023-.115-.051-.105-.031-.144-.031-.164 0-.164.15v.23h.418zm.61-.579v2.058h-.237v-2.058zm.931.579v.192h-.242v1.013q0 .079.025.107.028.026.104.026.071 0 .113-.012v.198q-.11.02-.192.02-.138 0-.211-.063-.074-.059-.074-.172v-1.117h-.2v-.192h.2v-.407h.235v.407zm1.476.818h-1.089q.006.232.119.37.115.138.316.138.287 0 .386-.296h.237q-.045.243-.211.378-.167.136-.42.136-.311 0-.492-.21-.18-.211-.18-.575t.183-.581q.186-.22.494-.22.657 0 .657.86zm-1.083-.192h.832q0-.192-.116-.321-.115-.13-.293-.13t-.294.124q-.115.121-.13.327zm2.049-.42q-.238.006-.356.11-.119.104-.119.395v.768h-.237v-1.48h.218v.269q.101-.167.194-.237.096-.074.21-.074.03 0 .09.008z" aria-label="custom filter" style="font-size:2.82223px;line-height:1em;font-family:FreeSans;-inkscape-font-specification:FreeSans;text-align:center;letter-spacing:0;word-spacing:.529167px;text-anchor:middle;stroke-width:1.05833" transform="translate(-8.295 -93.4)"/><path d="M128.043 101.32h-.257l-.519-1.479h.265l.396 1.2.417-1.2h.266zm.745-1.041q.017-.48.593-.48.274 0 .415.105.141.101.141.299v.869q0 .116.127.116.025 0 .05-.006v.177q-.098.026-.16.026-.113 0-.172-.054-.057-.05-.07-.163-.238.217-.503.217-.223 0-.356-.119-.13-.118-.13-.319 0-.065.012-.118.014-.054.028-.093.017-.043.056-.076l.065-.06q.028-.022.09-.042.065-.023.1-.031.033-.011.118-.025.085-.015.124-.02l.141-.02q.138-.017.192-.054.054-.036.054-.11v-.062q0-.107-.088-.163-.085-.057-.243-.057-.163 0-.248.065-.085.062-.099.198zm.472.9q.194 0 .319-.101.124-.105.124-.223v-.266q-.07.034-.215.057l-.245.04q-.105.016-.19.081-.084.062-.084.175 0 .113.076.175.076.062.215.062zm1.318-1.916v2.057h-.237v-2.057zm1.543 2.057h-.211v-.206q-.105.147-.218.21-.112.061-.276.061-.215 0-.344-.11-.127-.11-.127-.293v-1.14h.234v1.046q0 .133.082.212.082.08.223.08.183 0 .293-.136.11-.139.11-.364v-.839h.234zm1.59-.66h-1.09q.006.231.119.37.115.138.316.138.287 0 .386-.296h.237q-.045.242-.211.378-.167.135-.42.135-.311 0-.492-.209-.18-.211-.18-.575t.183-.582q.186-.22.494-.22.657 0 .657.86zm-1.084-.192h.832q0-.192-.116-.322-.115-.13-.293-.13t-.294.125q-.115.12-.13.327z" aria-label="value" style="font-size:2.82223px;line-height:1em;font-family:FreeSans;-inkscape-font-specification:FreeSans;letter-spacing:0;word-spacing:.529167px;stroke-width:1.05833" transform="translate(-8.295 -93.4)"/><path d="M12.5 97.499q-.23-.056-.372.015-.141.07-.216.351l-.197.742-.23-.06.38-1.43.21.056-.068.259q.14-.135.249-.18.112-.045.22-.016.03.008.086.03zm1.27.97-1.053-.28q-.054.226.02.389.075.163.27.215.277.073.449-.188l.229.061q-.106.223-.302.311-.195.089-.44.023-.3-.08-.422-.328-.12-.25-.027-.602.094-.352.327-.515.237-.165.534-.086.635.169.414 1zm-.999-.463.805.214q.05-.186-.03-.34-.078-.156-.25-.202-.171-.045-.315.045-.143.087-.21.283zm2.114 2.08-.227-.06.202-.758q-.216.185-.502.109-.284-.076-.394-.321-.11-.246-.018-.592.094-.355.32-.522.226-.17.51-.095.292.077.394.352l.05-.19.203.053zm-.133-2.018q-.188-.05-.343.072-.155.123-.221.37-.067.252.007.435.075.18.263.23.18.048.329-.073.149-.12.214-.366.068-.257 0-.438-.066-.181-.249-.23zm2.344-.16-.529 1.989-.201-.054.05-.188q-.129.109-.253.137-.122.032-.27-.007-.289-.077-.4-.329-.11-.254-.014-.617.09-.34.311-.501.224-.162.503-.088.294.078.38.337l.196-.739zm-.822.564q-.185-.049-.34.073-.156.123-.222.371-.066.25.008.434.074.18.263.23.18.048.329-.073.149-.12.215-.369.068-.256-.002-.435-.068-.182-.25-.23zm.87.5q.139-.46.695-.311.265.07.374.207.11.134.06.325l-.223.84q-.03.112.093.145.024.007.05.008l-.046.172q-.102-.001-.162-.017-.109-.03-.152-.096-.042-.064-.026-.176-.285.149-.542.08-.215-.057-.313-.205-.095-.148-.043-.342.016-.063.04-.111.028-.049.052-.083.027-.037.074-.06l.078-.04q.033-.015.098-.018.069-.005.104-.004.035-.002.12.006l.126.012.141.018q.138.019.2-.003.06-.022.08-.093l.016-.06q.027-.103-.043-.18-.067-.077-.22-.117-.158-.042-.257-.001-.097.038-.146.165zm.223.991q.189.05.335-.016.146-.07.177-.184l.068-.256q-.077.015-.222 0l-.247-.026q-.105-.01-.204.031-.098.038-.127.147-.029.11.029.19.058.079.191.114zm1.934-.87-.05.185-.234-.062-.26.98q-.02.076-.003.11.02.031.094.05.069.019.112.019l-.05.19q-.112-.008-.19-.03-.135-.035-.19-.114-.055-.076-.026-.185l.287-1.08-.194-.052.05-.185.193.051.105-.392.226.06-.104.393zm.087.476q.14-.46.696-.312.264.07.374.208.11.134.06.325l-.224.84q-.03.112.093.144.025.007.05.008l-.045.172q-.102 0-.162-.017-.109-.029-.152-.096-.042-.063-.027-.176-.284.15-.54.081-.216-.057-.314-.206-.095-.148-.044-.341.017-.063.042-.112.027-.048.05-.083.028-.036.075-.059l.078-.04q.033-.015.098-.018.069-.005.104-.005.035-.002.12.006l.126.013.141.017q.138.02.2-.002.06-.022.08-.093l.015-.06q.028-.104-.042-.18-.067-.077-.22-.118-.158-.042-.257 0-.098.038-.146.165zm.224.99q.188.05.334-.016.147-.069.178-.183l.068-.257q-.077.015-.222 0l-.247-.025q-.106-.01-.204.03-.098.039-.127.148-.029.109.029.189.057.08.191.115z" aria-label="reqdata" style="font-size:2.82223px;line-height:1em;font-family:FreeSans;-inkscape-font-specification:FreeSans;letter-spacing:0;word-spacing:.529167px;stroke-width:1.05833" transform="translate(-8.295 -93.4)"/><path d="M13.312 107.078q.302-.104.536.04.236.14.36.503.118.345.015.6-.1.256-.395.356-.299.103-.534-.037-.234-.144-.355-.497-.12-.352-.02-.607.1-.258.393-.359zm.073.204q-.186.064-.243.248-.058.18.03.434.086.254.243.364.156.108.343.044.184-.063.242-.244.06-.184-.025-.43-.089-.26-.246-.37-.154-.11-.344-.046zm.63-1.011.221-.076.253.737q.073-.282.354-.378.277-.095.505.048.228.143.344.482.119.347.025.615-.094.265-.372.36-.286.097-.525-.09l.06.18-.2.068zm.856.506q-.176.06-.232.246-.056.184.028.43.084.245.242.358.157.11.333.05.182-.062.243-.247.064-.189-.017-.427-.086-.25-.25-.362-.16-.112-.347-.048zm.899-.495.221-.076.578 1.69q.1.291-.282.422-.035.012-.077.018l-.065-.19q.034-.005.063-.015.096-.033.12-.088.025-.054-.01-.158zm.034-.623.096.28-.222.076-.096-.28zm1.987.796-1.03.353q.08.217.232.311.154.094.343.029.273-.093.27-.406l.225-.076q.035.244-.078.426-.114.182-.354.264-.294.1-.533-.039-.239-.141-.357-.486-.118-.344-.014-.61.105-.268.396-.367.622-.213.9.601zm-1.087.17.788-.27q-.062-.182-.214-.267-.151-.085-.32-.028-.168.058-.237.213-.07.152-.017.351zm2.319-.93-.225.076q-.071-.14-.183-.188-.113-.05-.252-.003-.182.062-.235.247-.05.182.039.444.085.248.237.354.153.106.337.043.286-.098.227-.454l.224-.076q.066.263-.034.459-.101.192-.352.278-.286.098-.522-.042-.234-.144-.35-.483-.118-.347-.021-.613.1-.267.382-.363.243-.084.432-.002.192.08.296.322zm.63-.741.061.181-.23.079.329.959q.025.074.058.093.035.015.107-.01.067-.023.103-.047l.064.187q-.097.054-.175.08-.13.045-.22.01-.089-.032-.125-.139l-.362-1.057-.19.065-.062-.182.19-.065-.132-.384.222-.076.132.384z" aria-label="object" style="font-size:2.82223px;line-height:1em;font-family:FreeSans;-inkscape-font-specification:FreeSans;letter-spacing:0;word-spacing:.529167px;stroke-width:1.05833" transform="translate(-8.295 -93.4)"/><path d="M91.002 101.32h-.257l-.52-1.479h.266l.395 1.2.418-1.2h.265zm.745-1.041q.017-.48.592-.48.274 0 .415.105.141.101.141.299v.869q0 .116.127.116.026 0 .051-.006v.177q-.099.026-.16.026-.114 0-.173-.054-.056-.05-.07-.163-.237.217-.503.217-.223 0-.355-.119-.13-.118-.13-.319 0-.065.011-.118.014-.054.028-.093.017-.043.057-.076l.065-.06q.028-.022.09-.042.065-.023.099-.031.034-.011.118-.025.085-.015.124-.02l.142-.02q.138-.017.192-.054.053-.036.053-.11v-.062q0-.107-.087-.163-.085-.057-.243-.057-.164 0-.248.065-.085.062-.1.198zm.471.9q.195 0 .319-.101.124-.105.124-.223v-.266q-.07.034-.214.057l-.246.04q-.104.016-.189.081-.085.062-.085.175 0 .113.077.175.076.062.214.062zm1.318-1.916v2.057h-.237v-2.057zm1.544 2.057h-.212v-.206q-.104.147-.217.21-.113.061-.277.061-.214 0-.344-.11-.127-.11-.127-.293v-1.14h.234v1.046q0 .133.082.212.082.08.223.08.183 0 .293-.136.11-.139.11-.364v-.839h.235zm1.589-.66h-1.09q.006.231.119.37.116.138.316.138.288 0 .387-.296h.237q-.045.242-.212.378-.167.135-.42.135-.311 0-.492-.209-.18-.211-.18-.575t.183-.582q.187-.22.494-.22.658 0 .658.86zm-1.084-.192h.833q0-.192-.116-.322t-.294-.13q-.177 0-.293.125-.116.12-.13.327zm70.823.852h-.257l-.52-1.479h.266l.395 1.2.418-1.2h.265zm.745-1.041q.017-.48.593-.48.273 0 .415.105.14.101.14.299v.869q0 .116.128.116.025 0 .05-.006v.177q-.098.026-.16.026-.113 0-.173-.054-.056-.05-.07-.163-.237.217-.503.217-.222 0-.355-.119-.13-.118-.13-.319 0-.065.011-.118.014-.054.029-.093.016-.043.056-.076l.065-.06q.028-.022.09-.042.065-.023.099-.031.034-.011.118-.025.085-.015.125-.02l.14-.02q.139-.017.193-.054.053-.036.053-.11v-.062q0-.107-.087-.163-.085-.057-.243-.057-.164 0-.248.065-.085.062-.1.198zm.471.9q.195 0 .32-.101.123-.105.123-.223v-.266q-.07.034-.214.057l-.246.04q-.104.016-.189.081-.084.062-.084.175 0 .113.076.175.076.062.214.062zm1.318-1.916v2.057h-.237v-2.057zm1.544 2.057h-.212v-.206q-.104.147-.217.21-.113.061-.277.061-.214 0-.344-.11-.127-.11-.127-.293v-1.14h.234v1.046q0 .133.082.212.082.08.223.08.184 0 .294-.136.11-.139.11-.364v-.839h.234zm1.589-.66h-1.09q.007.231.12.37.115.138.315.138.288 0 .387-.296h.237q-.045.242-.212.378-.166.135-.42.135-.31 0-.491-.209-.181-.211-.181-.575t.183-.582q.187-.22.494-.22.658 0 .658.86zm-1.084-.192h.833q0-.192-.116-.322t-.293-.13q-.178 0-.294.125-.116.12-.13.327zm-117.031.852h-.257l-.52-1.479h.266l.395 1.2.418-1.2h.265zm.745-1.041q.017-.48.593-.48.273 0 .415.105.14.101.14.299v.869q0 .116.128.116.025 0 .05-.006v.177q-.098.026-.16.026-.113 0-.173-.054-.056-.05-.07-.163-.237.217-.502.217-.223 0-.356-.119-.13-.118-.13-.319 0-.065.011-.118.015-.054.029-.093.017-.043.056-.076l.065-.06q.028-.022.09-.042.065-.023.1-.031.033-.011.118-.025.084-.015.124-.02l.14-.02q.14-.017.193-.054.053-.036.053-.11v-.062q0-.107-.087-.163-.085-.057-.243-.057-.163 0-.248.065-.085.062-.099.198zm.471.9q.195 0 .32-.101.123-.105.123-.223v-.266q-.07.034-.214.057l-.246.04q-.104.016-.189.081-.084.062-.084.175 0 .113.076.175.076.062.214.062zm1.318-1.916v2.057h-.237v-2.057zm1.544 2.057h-.212v-.206q-.104.147-.217.21-.113.061-.276.061-.215 0-.345-.11-.127-.11-.127-.293v-1.14h.234v1.046q0 .133.082.212.082.08.223.08.184 0 .294-.136.11-.139.11-.364v-.839h.234zm1.589-.66h-1.09q.006.231.12.37.115.138.315.138.288 0 .387-.296h.237q-.045.242-.212.378-.166.135-.42.135-.31 0-.491-.209-.18-.211-.18-.575t.183-.582q.186-.22.493-.22.658 0 .658.86zm-1.084-.192h.833q0-.192-.116-.322t-.293-.13q-.178 0-.294.125-.116.12-.13.327z" aria-label="value" style="font-size:2.82223px;line-height:1em;font-family:FreeSans;-inkscape-font-specification:FreeSans;letter-spacing:0;word-spacing:.529167px;stroke-width:1.05833" transform="translate(-8.295 -93.4)"/></svg>