<?xml version="1.0" encoding="UTF-8" standalone="no"?>
<svg
   width="545.14838"
   height="60.961452"
   version="1.1"
   id="svg32"
   xmlns:xlink="http://www.w3.org/1999/xlink"
   xmlns="http://www.w3.org/2000/svg"
   xmlns:svg="http://www.w3.org/2000/svg">
  <defs
     id="defs4">
    <linearGradient
       id="a">
      <stop
         offset="0"
         style="stop-color:#fff;stop-opacity:1"
         id="stop1" />
      <stop
         offset=".546"
         style="stop-color:#cedff8;stop-opacity:1"
         id="stop2" />
    </linearGradient>
    <linearGradient
       id="b">
      <stop
         offset="0"
         style="stop-color:#fbf0d4;stop-opacity:1"
         id="stop3" />
      <stop
         offset=".546"
         style="stop-color:#fbe9a3;stop-opacity:1"
         id="stop4" />
    </linearGradient>
    <linearGradient
       xlink:href="#a"
       id="c"
       x1="97.950996"
       x2="138.853"
       y1="-3.9449999"
       y2="66.899002"
       gradientUnits="userSpaceOnUse"
       gradientTransform="translate(-7.3496628,-7.0154103)" />
    <linearGradient
       xlink:href="#b"
       id="d"
       x1="217.94901"
       x2="298.98599"
       y1="31.476999"
       y2="31.476999"
       gradientUnits="userSpaceOnUse"
       gradientTransform="matrix(1.2976853,0,0,0.99648125,-72.310143,-6.9046503)" />
    <linearGradient
       xlink:href="#a"
       id="e"
       x1="358.01401"
       x2="439.05099"
       y1="31.476999"
       y2="31.476999"
       gradientUnits="userSpaceOnUse"
       gradientTransform="matrix(1.2976854,0,0,0.9964812,-94.005483,-6.9046503)" />
  </defs>
  <g
     id="g130">
    <path
       id="rect4"
       style="fill:url(#c);stroke:#9fd1ff"
       d="m 78.03634,4.9725857 h 66.031 c 3.87967,0 7.003,2.4338219 7.003,5.4569993 v 28.064002 c 0,3.023177 -3.12333,5.456999 -7.003,5.456999 h -66.031 c -3.879662,0 -7.003,-2.433822 -7.003,-5.456999 V 10.429585 c 0,-3.0231774 3.123338,-5.4569993 7.003,-5.4569993 z" />
    <g
       stroke="#000000"
       stroke-miterlimit="10"
       id="g5"
       transform="translate(12.650337,-7.0154103)">
      <path
         fill="none"
         d="m 298.5,32.5 h 53.63"
         pointer-events="stroke"
         id="path4" />
      <path
         d="m 357.38,32.5 -7,3.5 1.75,-3.5 -1.75,-3.5 z"
         pointer-events="all"
         id="path5" />
    </g>
    <path
       id="rect5"
       style="fill:url(#d);stroke:#e8c900;stroke-width:1.13716"
       d="m 220.25561,5.0411663 h 85.68746 c 5.03458,0 9.08769,2.4252579 9.08769,5.4377977 v 27.965251 c 0,3.01254 -4.05311,5.437798 -9.08769,5.437798 h -85.68746 c -5.03458,0 -9.08769,-2.425258 -9.08769,-5.437798 V 10.478964 c 0,-3.0125398 4.05311,-5.4377977 9.08769,-5.4377977 z" />
    <path
       id="rect7"
       style="fill:url(#e);stroke:#9fd1ff;stroke-width:1.13715"
       d="m 380.3206,5.0411663 h 85.68747 c 5.03458,0 9.08769,2.4252579 9.08769,5.4377977 v 27.965251 c 0,3.01254 -4.05311,5.437798 -9.08769,5.437798 H 380.3206 c -5.03458,0 -9.08769,-2.425258 -9.08769,-5.437798 V 10.478964 c 0,-3.0125398 4.05311,-5.4377977 9.08769,-5.4377977 z" />
    <g
       id="text8"
       style="font-size:10.6667px;line-height:1em;font-family:FreeSans;-inkscape-font-specification:FreeSans;text-align:center;letter-spacing:0;word-spacing:2px;text-anchor:middle;white-space:pre;inline-size:339.646;stroke-width:4"
       transform="translate(24.577814,-7.0154203)"
       aria-label="required check&#10;and native filter">
      <path
         d="m 366.45041,25.098319 q -0.896,0.02133 -1.344,0.416001 -0.44801,0.394668 -0.44801,1.493338 V 29.909 h -0.896 v -5.589351 h 0.82134 v 1.013337 q 0.384,-0.629335 0.736,-0.896003 0.36267,-0.277334 0.78934,-0.277334 0.11733,0 0.34133,0.032 z m 5.57869,2.314674 h -4.11734 q 0.0213,0.874669 0.448,1.397337 0.43733,0.522669 1.19467,0.522669 1.088,0 1.46134,-1.120004 h 0.896 q -0.17067,0.917336 -0.8,1.429338 -0.62934,0.512002 -1.58934,0.512002 -1.17334,0 -1.85601,-0.789336 -0.68267,-0.800003 -0.68267,-2.176007 0,-1.376005 0.69334,-2.19734 0.704,-0.832003 1.86667,-0.832003 2.48534,0 2.48534,3.253344 z m -4.09601,-0.725336 h 3.14668 q 0,-0.725336 -0.43734,-1.216004 -0.43733,-0.490668 -1.10934,-0.490668 -0.672,0 -1.10933,0.469335 -0.43734,0.458668 -0.49067,1.237337 z m 9.73871,5.546684 h -0.88534 v -2.965343 q -0.608,0.885337 -1.72801,0.885337 -1.10933,0 -1.74933,-0.789336 -0.64001,-0.789336 -0.64001,-2.144007 0,-1.386671 0.66134,-2.218674 0.66133,-0.842669 1.77067,-0.842669 1.14134,0 1.78134,0.906669 v -0.746669 h 0.78934 z m -2.44268,-7.242689 q -0.736,0 -1.184,0.597335 -0.448,0.597335 -0.448,1.568005 0,0.981336 0.448,1.578671 0.448,0.586669 1.184,0.586669 0.704,0 1.13067,-0.586669 0.42667,-0.586668 0.42667,-1.546671 0,-1.00267 -0.42667,-1.600005 -0.416,-0.597335 -1.13067,-0.597335 z m 8.17069,4.917348 h -0.8 v -0.778669 q -0.39467,0.554669 -0.82133,0.789336 -0.42667,0.234668 -1.04534,0.234668 -0.81067,0 -1.30134,-0.416002 -0.48,-0.416001 -0.48,-1.109337 v -4.309347 h 0.88534 v 3.957346 q 0,0.501335 0.30933,0.800003 0.30934,0.298667 0.84267,0.298667 0.69334,0 1.10934,-0.512001 0.416,-0.522669 0.416,-1.376005 v -3.16801 h 0.88533 z m 2.24002,-5.589351 V 29.909 h -0.88534 v -5.589351 z m 0,-2.186673 v 1.120003 h -0.89601 v -1.120003 z m 4.09601,2.965343 q -0.896,0.02133 -1.344,0.416001 -0.448,0.394668 -0.448,1.493338 V 29.909 h -0.89601 v -5.589351 h 0.82134 v 1.013337 q 0.384,-0.629335 0.736,-0.896003 0.36267,-0.277334 0.78934,-0.277334 0.11733,0 0.34133,0.032 z m 5.5787,2.314674 h -4.11735 q 0.0213,0.874669 0.448,1.397337 0.43734,0.522669 1.19467,0.522669 1.088,0 1.46134,-1.120004 h 0.896 q -0.17067,0.917336 -0.8,1.429338 -0.62934,0.512002 -1.58934,0.512002 -1.17334,0 -1.85601,-0.789336 -0.68266,-0.800003 -0.68266,-2.176007 0,-1.376005 0.69333,-2.19734 0.704,-0.832003 1.86667,-0.832003 2.48535,0 2.48535,3.253344 z m -4.09602,-0.725336 h 3.14668 q 0,-0.725336 -0.43734,-1.216004 -0.43733,-0.490668 -1.10933,-0.490668 -0.672,0 -1.10934,0.469335 -0.43733,0.458668 -0.49067,1.237337 z m 9.73871,-4.554681 V 29.909 h -0.78934 v -0.736002 q -0.36267,0.522668 -0.78933,0.746669 -0.416,0.234668 -0.99201,0.234668 -1.13067,0 -1.78134,-0.81067 -0.65066,-0.821336 -0.65066,-2.240007 0,-1.333337 0.65066,-2.13334 0.66134,-0.810669 1.74934,-0.810669 1.15201,0 1.71734,0.864003 v -2.890676 z m -2.45334,2.858676 q -0.72534,0 -1.17334,0.597335 -0.448,0.597335 -0.448,1.568005 0,0.981336 0.448,1.578671 0.448,0.586669 1.184,0.586669 0.70401,0 1.13067,-0.586669 0.42667,-0.586668 0.42667,-1.557338 0,-1.00267 -0.42667,-1.589338 -0.42666,-0.597335 -1.14133,-0.597335 z"
         id="path121" />
      <path
         d="m 411.27725,26.196989 h -0.896 q -0.0853,-0.586669 -0.42667,-0.896003 -0.34133,-0.320001 -0.896,-0.320001 -0.72533,0 -1.14134,0.597335 -0.40533,0.586669 -0.40533,1.632005 0,0.992003 0.416,1.557338 0.416,0.565336 1.152,0.565336 1.14134,0 1.36534,-1.344005 h 0.896 q -0.0853,1.024004 -0.68266,1.600005 -0.59734,0.565336 -1.60001,0.565336 -1.14134,0 -1.81334,-0.789336 -0.66133,-0.800003 -0.66133,-2.154674 0,-1.386671 0.672,-2.218673 0.68267,-0.832003 1.81334,-0.832003 0.97067,0 1.54667,0.522668 0.58667,0.522669 0.66133,1.514672 z m 4.57603,-0.160001 q 0,-0.586668 -0.36267,-0.842669 -0.352,-0.256001 -0.78934,-0.256001 -0.68267,0 -1.09867,0.522668 -0.416,0.512002 -0.416,1.365338 V 29.909 h -0.88533 v -7.776024 h 0.88533 v 2.954676 q 0.39467,-0.512002 0.78934,-0.714669 0.40533,-0.213334 1.00267,-0.213334 0.81067,0 1.28,0.416001 0.48,0.405335 0.48,1.109337 V 29.909 h -0.88533 z m 6.89068,1.376005 h -4.11735 q 0.0213,0.874669 0.448,1.397337 0.43734,0.522669 1.19467,0.522669 1.088,0 1.46134,-1.120004 h 0.896 q -0.17067,0.917336 -0.8,1.429338 -0.62934,0.512002 -1.58934,0.512002 -1.17334,0 -1.856,-0.789336 -0.68267,-0.800003 -0.68267,-2.176007 0,-1.376005 0.69333,-2.19734 0.704,-0.832003 1.86667,-0.832003 2.48535,0 2.48535,3.253344 z m -4.09602,-0.725336 h 3.14668 q 0,-0.725336 -0.43734,-1.216004 -0.43733,-0.490668 -1.10933,-0.490668 -0.672,0 -1.10934,0.469335 -0.43733,0.458668 -0.49067,1.237337 z m 9.42938,-0.490668 h -0.896 q -0.0853,-0.586669 -0.42667,-0.896003 -0.34134,-0.320001 -0.89601,-0.320001 -0.72533,0 -1.14133,0.597335 -0.40534,0.586669 -0.40534,1.632005 0,0.992003 0.416,1.557338 0.41601,0.565336 1.15201,0.565336 1.14134,0 1.36534,-1.344005 h 0.896 q -0.0853,1.024004 -0.68267,1.600005 -0.59734,0.565336 -1.60001,0.565336 -1.14133,0 -1.81333,-0.789336 -0.66134,-0.800003 -0.66134,-2.154674 0,-1.386671 0.672,-2.218673 0.68267,-0.832003 1.81334,-0.832003 0.97067,0 1.54667,0.522668 0.58667,0.522669 0.66134,1.514672 z m 1.90935,-4.064013 v 4.554681 l 2.368,-2.368008 h 1.14134 l -1.94134,1.930673 2.28267,3.658678 h -1.09867 l -1.888,-3.029343 -0.864,0.853337 V 29.909 h -0.88534 v -7.776024 z"
         id="path122" />
      <path
         d="m 362.06374,36.639691 q 0.064,-1.813339 2.24001,-1.813339 1.03467,0 1.568,0.394668 0.53334,0.384001 0.53334,1.13067 v 3.285344 q 0,0.437335 0.48,0.437335 0.096,0 0.192,-0.02133 v 0.672002 q -0.37334,0.096 -0.608,0.096 -0.42667,0 -0.65067,-0.202668 -0.21334,-0.192 -0.26667,-0.618668 -0.896,0.821336 -1.89867,0.821336 -0.84267,0 -1.34401,-0.448002 -0.49066,-0.448001 -0.49066,-1.205337 0,-0.245334 0.0427,-0.448001 0.0533,-0.202668 0.10667,-0.352002 0.064,-0.16 0.21333,-0.288 0.14934,-0.138668 0.24534,-0.224001 0.10666,-0.08533 0.34133,-0.160001 0.24534,-0.08533 0.37334,-0.117333 0.128,-0.04267 0.448,-0.096 0.32,-0.05333 0.46933,-0.07467 0.14934,-0.02133 0.53334,-0.07467 0.52267,-0.064 0.72533,-0.202668 0.20267,-0.138667 0.20267,-0.416001 V 36.47969 q 0,-0.405334 -0.33067,-0.618668 -0.32,-0.213334 -0.91733,-0.213334 -0.61867,0 -0.93867,0.245334 -0.32,0.234667 -0.37334,0.746669 z m 1.78134,3.402677 q 0.736,0 1.20534,-0.384001 0.46933,-0.394668 0.46933,-0.842669 v -1.00267 q -0.26667,0.128 -0.81067,0.213334 -0.53333,0.08533 -0.928,0.149334 -0.39467,0.064 -0.71467,0.309334 -0.32,0.234668 -0.32,0.661336 0,0.426668 0.288,0.661335 0.288,0.234667 0.81067,0.234667 z m 4.08534,-5.056016 h 0.82133 v 0.93867 q 0.37334,-0.586668 0.8,-0.842669 0.43734,-0.256001 1.05601,-0.256001 0.81067,0 1.29067,0.416001 0.48,0.416002 0.48,1.109337 v 4.224013 h -0.88534 v -3.872012 q 0,-0.501335 -0.30933,-0.800002 -0.30933,-0.298668 -0.84267,-0.298668 -0.68267,0 -1.09867,0.522668 -0.416,0.512002 -0.416,1.365338 v 3.082676 h -0.896 z m 10.4107,-2.186673 v 7.776024 h -0.78933 v -0.736002 q -0.36267,0.522668 -0.78934,0.746669 -0.416,0.234668 -0.992,0.234668 -1.13067,0 -1.78134,-0.81067 -0.65067,-0.821336 -0.65067,-2.240007 0,-1.333337 0.65067,-2.13334 0.66133,-0.810669 1.74934,-0.810669 1.152,0 1.71734,0.864003 v -2.890676 z m -2.45334,2.858676 q -0.72533,0 -1.17334,0.597335 -0.448,0.597335 -0.448,1.568005 0,0.981336 0.448,1.578671 0.44801,0.586669 1.18401,0.586669 0.704,0 1.13067,-0.586669 0.42667,-0.586668 0.42667,-1.557338 0,-1.00267 -0.42667,-1.589338 -0.42667,-0.597335 -1.14134,-0.597335 z m 8.40002,-0.672003 h 0.82134 v 0.93867 q 0.37333,-0.586668 0.8,-0.842669 0.43733,-0.256001 1.056,-0.256001 0.81067,0 1.29067,0.416001 0.48001,0.416002 0.48001,1.109337 v 4.224013 h -0.88534 v -3.872012 q 0,-0.501335 -0.30934,-0.800002 -0.30933,-0.298668 -0.84266,-0.298668 -0.68267,0 -1.09867,0.522668 -0.41601,0.512002 -0.41601,1.365338 v 3.082676 h -0.896 z m 5.65336,1.653339 q 0.064,-1.813339 2.24001,-1.813339 1.03467,0 1.568,0.394668 0.53334,0.384001 0.53334,1.13067 v 3.285344 q 0,0.437335 0.48,0.437335 0.096,0 0.192,-0.02133 v 0.672002 q -0.37334,0.096 -0.608,0.096 -0.42667,0 -0.65067,-0.202668 -0.21334,-0.192 -0.26667,-0.618668 -0.896,0.821336 -1.89867,0.821336 -0.84267,0 -1.34401,-0.448002 -0.49066,-0.448001 -0.49066,-1.205337 0,-0.245334 0.0427,-0.448001 0.0533,-0.202668 0.10667,-0.352002 0.064,-0.16 0.21333,-0.288 0.14934,-0.138668 0.24534,-0.224001 0.10666,-0.08533 0.34133,-0.160001 0.24534,-0.08533 0.37334,-0.117333 0.128,-0.04267 0.448,-0.096 0.32,-0.05333 0.46933,-0.07467 0.14934,-0.02133 0.53334,-0.07467 0.52267,-0.064 0.72533,-0.202668 0.20267,-0.138667 0.20267,-0.416001 V 36.47969 q 0,-0.405334 -0.33067,-0.618668 -0.32,-0.213334 -0.91733,-0.213334 -0.61867,0 -0.93867,0.245334 -0.32,0.234667 -0.37334,0.746669 z m 1.78134,3.402677 q 0.736,0 1.20534,-0.384001 0.46933,-0.394668 0.46933,-0.842669 v -1.00267 q -0.26667,0.128 -0.81067,0.213334 -0.53333,0.08533 -0.928,0.149334 -0.39467,0.064 -0.71467,0.309334 -0.32,0.234668 -0.32,0.661336 0,0.426668 0.288,0.661335 0.288,0.234667 0.81067,0.234667 z m 6.21868,-5.056016 v 0.725336 h -0.91734 v 3.829345 q 0,0.298668 0.096,0.405335 0.10667,0.096 0.39467,0.096 0.26667,0 0.42667,-0.04267 v 0.746669 q -0.41601,0.07467 -0.72534,0.07467 -0.52267,0 -0.8,-0.234668 -0.27734,-0.224001 -0.27734,-0.650669 v -4.224013 h -0.75733 v -0.725336 h 0.75733 v -1.536004 h 0.88534 v 1.536004 z m 1.81334,0 v 5.589351 h -0.88533 v -5.589351 z m 0,-2.186673 v 1.120003 h -0.896 v -1.120003 z m 3.80802,7.776024 h -0.97067 l -1.96267,-5.589351 h 1.00267 l 1.49333,4.533348 1.57867,-4.533348 h 1.00267 z m 7.61603,-2.496007 h -4.11735 q 0.0213,0.874669 0.448,1.397337 0.43734,0.522669 1.19467,0.522669 1.08801,0 1.46134,-1.120004 h 0.896 q -0.17066,0.917336 -0.8,1.429338 -0.62934,0.512002 -1.58934,0.512002 -1.17334,0 -1.856,-0.789336 -0.68267,-0.800003 -0.68267,-2.176007 0,-1.376005 0.69333,-2.19734 0.704,-0.832003 1.86667,-0.832003 2.48535,0 2.48535,3.253344 z m -4.09602,-0.725336 h 3.14668 q 0,-0.725336 -0.43733,-1.216004 -0.43734,-0.490668 -1.10934,-0.490668 -0.672,0 -1.10934,0.469335 -0.43733,0.458668 -0.49067,1.237337 z m 13.22138,-2.368008 v 5.589351 h -0.88534 v -4.864015 h -1.49333 v 4.864015 h -0.88534 v -4.864015 h -0.74667 v -0.725336 h 0.74667 v -0.949336 q 0,-0.597335 0.34134,-0.928003 0.352,-0.341334 0.97066,-0.341334 h 1.90934 v 1.088003 q 0,0 -0.736,0 -0.032,-0.08533 -0.43733,-0.192 -0.39467,-0.117334 -0.544,-0.117334 -0.61867,0 -0.61867,0.565335 v 0.874669 h 1.49333 0.0853 z m 2.304,-2.186673 v 7.776024 h -0.896 v -7.776024 z m 3.52002,2.186673 v 0.725336 h -0.91734 v 3.829345 q 0,0.298668 0.096,0.405335 0.10667,0.096 0.39467,0.096 0.26667,0 0.42667,-0.04267 v 0.746669 q -0.416,0.07467 -0.72534,0.07467 -0.52267,0 -0.8,-0.234668 -0.27733,-0.224001 -0.27733,-0.650669 v -4.224013 h -0.75734 v -0.725336 h 0.75734 v -1.536004 h 0.88533 v 1.536004 z m 5.57868,3.093344 h -4.11734 q 0.0213,0.874669 0.448,1.397337 0.43733,0.522669 1.19467,0.522669 1.088,0 1.46134,-1.120004 h 0.896 q -0.17067,0.917336 -0.8,1.429338 -0.62934,0.512002 -1.58934,0.512002 -1.17334,0 -1.85601,-0.789336 -0.68266,-0.800003 -0.68266,-2.176007 0,-1.376005 0.69333,-2.19734 0.704,-0.832003 1.86667,-0.832003 2.48534,0 2.48534,3.253344 z m -4.09601,-0.725336 h 3.14668 q 0,-0.725336 -0.43734,-1.216004 -0.43733,-0.490668 -1.10933,-0.490668 -0.67201,0 -1.10934,0.469335 -0.43733,0.458668 -0.49067,1.237337 z m 7.74404,-1.589338 q -0.896,0.02133 -1.34401,0.416001 -0.448,0.394668 -0.448,1.493338 v 2.901342 h -0.896 v -5.589351 h 0.82134 v 1.013337 q 0.384,-0.629335 0.736,-0.896003 0.36267,-0.277334 0.78933,-0.277334 0.11734,0 0.34134,0.032 z"
         id="path123" />
    </g>
    <g
       stroke="#000000"
       stroke-miterlimit="10"
       id="g11"
       transform="translate(-7.3496628,-7.0154103)">
      <path
         fill="none"
         d="M 8.5,7.5 73.53,24.03"
         pointer-events="stroke"
         id="path10" />
      <path
         d="m 78.62,25.32 -7.65,1.67 2.56,-2.96 -0.84,-3.82 z"
         pointer-events="all"
         id="path11" />
    </g>
    <g
       stroke="#000000"
       stroke-miterlimit="10"
       id="g13"
       transform="translate(-7.3496628,-7.0154103)">
      <path
         fill="none"
         d="M 7.5,67.5 72.43,47.03"
         pointer-events="stroke"
         id="path12" />
      <path
         d="m 77.43,45.45 -5.62,5.44 0.62,-3.86 -2.72,-2.81 z"
         pointer-events="all"
         id="path13" />
    </g>
    <g
       stroke="#000000"
       stroke-miterlimit="10"
       id="g15"
       transform="translate(-7.3496628,-7.0154103)">
      <path
         fill="none"
         d="m 158.5,32.5 h 53.63"
         pointer-events="stroke"
         id="path14" />
      <path
         d="m 217.38,32.5 -7,3.5 1.75,-3.5 -1.75,-3.5 z"
         pointer-events="all"
         id="path15" />
    </g>
    <path
       d="m 105.31316,26.237597 q 0.064,0.501334 0.34134,0.800002 0.288,0.288001 1.024,0.288001 0.58667,0 0.93867,-0.234667 0.36267,-0.245335 0.36267,-0.640002 0,-0.309335 -0.20267,-0.490669 -0.20267,-0.181334 -0.66134,-0.288001 l -0.832,-0.202667 q -0.992,-0.234667 -1.38667,-0.586668 -0.384,-0.362668 -0.384,-1.024004 0,-0.778669 0.58667,-1.237337 0.58667,-0.469335 1.55734,-0.469335 0.97067,0 1.49333,0.448002 0.52267,0.448001 0.53334,1.269337 h -0.93867 q -0.032,-0.896003 -1.12,-0.896003 -0.54401,0 -0.86401,0.234668 -0.32,0.224 -0.32,0.608002 0,0.298667 0.24534,0.490668 0.24533,0.181334 0.78933,0.309334 l 0.85334,0.202667 q 0.832,0.202668 1.20533,0.576002 0.37334,0.362668 0.37334,0.981337 0,0.810669 -0.62934,1.29067 -0.61866,0.480002 -1.67467,0.480002 -2.16534,0 -2.22934,-1.909339 z m 9.3227,-0.832003 h -4.11735 q 0.0213,0.874669 0.448,1.397338 0.43734,0.522668 1.19467,0.522668 1.08801,0 1.46134,-1.120004 h 0.896 q -0.17066,0.917337 -0.8,1.429338 -0.62933,0.512002 -1.58934,0.512002 -1.17333,0 -1.856,-0.789336 -0.68267,-0.800002 -0.68267,-2.176007 0,-1.376004 0.69333,-2.19734 0.70401,-0.832003 1.86668,-0.832003 2.48534,0 2.48534,3.253344 z m -4.09602,-0.725336 h 3.14668 q 0,-0.725335 -0.43733,-1.216004 -0.43734,-0.490668 -1.10934,-0.490668 -0.672,0 -1.10934,0.469335 -0.43733,0.458668 -0.49067,1.237337 z m 7.18937,-2.368007 v 0.725335 h -0.91734 v 3.829346 q 0,0.298667 0.096,0.405334 0.10666,0.096 0.39466,0.096 0.26667,0 0.42667,-0.04267 v 0.746669 q -0.416,0.07467 -0.72533,0.07467 -0.52267,0 -0.80001,-0.234668 -0.27733,-0.224 -0.27733,-0.650668 v -4.224014 h -0.75734 V 22.31225 h 0.75734 v -1.536005 h 0.88533 v 1.536005 z"
       id="text16"
       style="font-size:10.6667px;line-height:1em;font-family:FreeSans;-inkscape-font-specification:FreeSans;text-align:center;letter-spacing:0;word-spacing:2px;text-anchor:middle;stroke-width:4"
       aria-label="set" />
    <path
       d="m 239.11796,24.530914 h -0.89601 q -0.0853,-0.586669 -0.42666,-0.896003 -0.34134,-0.320001 -0.89601,-0.320001 -0.72533,0 -1.14133,0.597335 -0.40534,0.586669 -0.40534,1.632005 0,0.992004 0.416,1.557339 0.416,0.565335 1.15201,0.565335 1.14133,0 1.36533,-1.344004 h 0.89601 q -0.0853,1.024003 -0.68267,1.600005 -0.59734,0.565335 -1.60001,0.565335 -1.14133,0 -1.81334,-0.789336 -0.66133,-0.800003 -0.66133,-2.154674 0,-1.386671 0.672,-2.218673 0.68267,-0.832003 1.81334,-0.832003 0.97067,0 1.54667,0.522668 0.58667,0.522669 0.66134,1.514672 z m 5.47202,3.712012 h -0.8 v -0.778669 q -0.39467,0.554668 -0.82134,0.789335 -0.42667,0.234668 -1.04534,0.234668 -0.81066,0 -1.30133,-0.416002 -0.48,-0.416001 -0.48,-1.109336 v -4.309347 h 0.88533 v 3.957345 q 0,0.501335 0.30934,0.800003 0.30933,0.298668 0.84267,0.298668 0.69333,0 1.10933,-0.512002 0.416,-0.522668 0.416,-1.376004 v -3.16801 h 0.88534 z m 1.94135,-1.664006 q 0.064,0.501335 0.34133,0.800003 0.288,0.288001 1.024,0.288001 0.58667,0 0.93867,-0.234668 0.36267,-0.245334 0.36267,-0.640002 0,-0.309334 -0.20267,-0.490668 -0.20266,-0.181334 -0.66133,-0.288001 l -0.832,-0.202667 q -0.99201,-0.234667 -1.38667,-0.586669 -0.38401,-0.362667 -0.38401,-1.024003 0,-0.778669 0.58667,-1.237337 0.58667,-0.469335 1.55734,-0.469335 0.97067,0 1.49334,0.448002 0.52267,0.448001 0.53333,1.269337 h -0.93867 q -0.032,-0.896003 -1.12,-0.896003 -0.544,0 -0.864,0.234667 -0.32,0.224001 -0.32,0.608002 0,0.298668 0.24533,0.490669 0.24534,0.181334 0.78934,0.309334 l 0.85333,0.202667 q 0.83201,0.202668 1.20534,0.576002 0.37333,0.362668 0.37333,0.981336 0,0.81067 -0.62933,1.290671 -0.61867,0.480002 -1.67467,0.480002 -2.16534,0 -2.22934,-1.90934 z m 6.73068,-3.925345 v 0.725335 h -0.91733 v 3.829346 q 0,0.298667 0.096,0.405334 0.10666,0.096 0.39467,0.096 0.26666,0 0.42666,-0.04267 v 0.746669 q -0.416,0.07467 -0.72533,0.07467 -0.52267,0 -0.8,-0.234668 -0.27734,-0.224 -0.27734,-0.650668 V 23.37891 h -0.75733 v -0.725335 h 0.75733 V 21.11757 h 0.88534 v 1.536005 z m 3.05069,-0.160001 q 1.20534,0 1.86667,0.800003 0.672,0.789336 0.672,2.240007 0,1.376004 -0.68267,2.16534 -0.672,0.789336 -1.84533,0.789336 -1.19468,0 -1.86668,-0.789336 -0.66133,-0.800003 -0.66133,-2.208007 0,-1.408004 0.672,-2.19734 0.672,-0.800003 1.84534,-0.800003 z m 0.0107,0.821336 q -0.74667,0 -1.17334,0.586669 -0.42667,0.576001 -0.42667,1.589338 0,1.013336 0.42667,1.600005 0.42667,0.576002 1.17334,0.576002 0.736,0 1.16267,-0.576002 0.43733,-0.586669 0.43733,-1.568005 0,-1.03467 -0.42667,-1.621338 -0.416,-0.586669 -1.17333,-0.586669 z m 3.48801,-0.661335 h 0.82134 v 0.789335 q 0.36266,-0.501334 0.75733,-0.725335 0.40534,-0.224001 0.96,-0.224001 1.03467,0 1.50401,0.853336 0.39467,-0.469335 0.77867,-0.661335 0.384,-0.192001 0.93867,-0.192001 0.77867,0 1.19467,0.405335 0.42667,0.394668 0.42667,1.152003 v 4.192014 h -0.89601 v -3.850679 q 0,-0.533335 -0.27733,-0.821336 -0.26667,-0.298668 -0.75734,-0.298668 -0.544,0 -0.928,0.426668 -0.384,0.426668 -0.384,1.03467 v 3.509345 h -0.896 v -3.850679 q 0,-0.533335 -0.27734,-0.821336 -0.26666,-0.298668 -0.75733,-0.298668 -0.544,0 -0.92801,0.426668 -0.384,0.426668 -0.384,1.03467 v 3.509345 h -0.896 z m 16.82672,0 v 5.589351 h -0.88534 V 23.37891 h -1.49334 v 4.864016 h -0.88533 V 23.37891 h -0.74667 v -0.725335 h 0.74667 v -0.949337 q 0,-0.597335 0.34133,-0.928003 0.352,-0.341334 0.97067,-0.341334 h 1.90934 v 1.088003 q 0,0 -0.736,0 -0.032,-0.08533 -0.43734,-0.192 -0.39466,-0.117334 -0.544,-0.117334 -0.61867,0 -0.61867,0.565335 v 0.87467 h 1.49334 0.0853 z m 2.304,-2.186674 v 7.776025 h -0.89601 v -7.776025 z m 3.52001,2.186674 v 0.725335 h -0.91733 v 3.829346 q 0,0.298667 0.096,0.405334 0.10666,0.096 0.39467,0.096 0.26666,0 0.42666,-0.04267 v 0.746669 q -0.416,0.07467 -0.72533,0.07467 -0.52267,0 -0.8,-0.234668 -0.27734,-0.224 -0.27734,-0.650668 V 23.37891 h -0.75733 v -0.725335 h 0.75733 V 21.11757 h 0.88534 v 1.536005 z m 5.57869,3.093343 h -4.11734 q 0.0213,0.874669 0.448,1.397338 0.43733,0.522668 1.19467,0.522668 1.088,0 1.46134,-1.120004 h 0.896 q -0.17067,0.917337 -0.8,1.429338 -0.62934,0.512002 -1.58934,0.512002 -1.17334,0 -1.85601,-0.789336 -0.68266,-0.800003 -0.68266,-2.176007 0,-1.376004 0.69333,-2.19734 0.704,-0.832003 1.86667,-0.832003 2.48534,0 2.48534,3.253344 z m -4.09601,-0.725336 h 3.14668 q 0,-0.725335 -0.43734,-1.216004 -0.43733,-0.490668 -1.10933,-0.490668 -0.67201,0 -1.10934,0.469335 -0.43734,0.458668 -0.49067,1.237337 z m 7.74403,-1.589338 q -0.896,0.02133 -1.344,0.416001 -0.448,0.394668 -0.448,1.493338 v 2.901343 h -0.896 v -5.589351 h 0.82133 v 1.013336 q 0.384,-0.629335 0.736,-0.896003 0.36267,-0.277334 0.78934,-0.277334 0.11733,0 0.34133,0.032 z"
       id="text17"
       style="font-size:10.6667px;line-height:1em;font-family:FreeSans;-inkscape-font-specification:FreeSans;text-align:center;letter-spacing:0;word-spacing:2px;text-anchor:middle;stroke-width:4"
       aria-label="custom filter" />
    <path
       d="M 16.798116,3.9978346 Q 15.902113,4.019168 15.454111,4.413836 15.00611,4.8085039 15.00611,5.907174 v 2.9013425 h -0.896003 v -5.589351 h 0.821336 V 4.232502 q 0.384001,-0.6293353 0.736002,-0.8960028 0.362668,-0.2773342 0.789336,-0.2773342 0.117334,0 0.341335,0.032 z m 5.578692,2.314674 h -4.117347 q 0.02133,0.8746694 0.448002,1.3973378 0.437335,0.5226683 1.19467,0.5226683 1.088004,0 1.461338,-1.1200036 h 0.896003 q -0.170667,0.9173363 -0.800003,1.4293379 -0.629335,0.5120016 -1.589338,0.5120016 -1.173337,0 -1.856006,-0.7893358 -0.682669,-0.8000025 -0.682669,-2.1760069 0,-1.3760043 0.693336,-2.1973403 0.704002,-0.8320026 1.866673,-0.8320026 2.485341,0 2.485341,3.2533436 z M 18.280795,5.587173 h 3.146676 q 0,-0.7253356 -0.437334,-1.2160038 -0.437335,-0.4906683 -1.109337,-0.4906683 -0.672002,0 -1.109337,0.4693349 -0.437335,0.4586681 -0.490668,1.2373372 z m 9.738707,5.546684 H 27.134166 V 8.1685145 q -0.608002,0.8853361 -1.728006,0.8853361 -1.109337,0 -1.749339,-0.7893358 -0.640002,-0.7893358 -0.640002,-2.1440068 0,-1.386671 0.661336,-2.2186737 0.661335,-0.8426693 1.770672,-0.8426693 1.141337,0 1.781339,0.9066695 v -0.746669 h 0.789336 z M 25.576827,3.8911676 q -0.736002,0 -1.184003,0.5973353 -0.448002,0.5973352 -0.448002,1.5680049 0,0.9813364 0.448002,1.5786717 0.448001,0.5866685 1.184003,0.5866685 0.704003,0 1.130671,-0.5866685 0.426668,-0.5866686 0.426668,-1.5466716 0,-1.0026698 -0.426668,-1.600005 Q 26.291496,3.8911676 25.576827,3.8911676 Z M 33.982188,1.0324919 V 8.8085165 H 33.192853 V 8.0725142 q -0.362668,0.5226683 -0.789336,0.746669 -0.416002,0.2346674 -0.992003,0.2346674 -1.130671,0 -1.781339,-0.8106692 -0.650669,-0.8213359 -0.650669,-2.2400071 0,-1.3333375 0.650669,-2.1333401 0.661335,-0.8106692 1.749338,-0.8106692 1.152004,0 1.717339,0.8640027 V 1.0324919 Z m -2.453341,2.8586757 q -0.725335,0 -1.173337,0.5973353 -0.448001,0.5973352 -0.448001,1.5680049 0,0.9813364 0.448001,1.5786717 0.448002,0.5866685 1.184004,0.5866685 0.704002,0 1.13067,-0.5866685 0.426668,-0.5866686 0.426668,-1.5573383 0,-1.0026698 -0.426668,-1.5893383 -0.426668,-0.5973353 -1.141337,-0.5973353 z m 3.658678,0.9813365 q 0.064,-1.8133391 2.240007,-1.8133391 1.03467,0 1.568005,0.3946679 0.533335,0.3840012 0.533335,1.1306703 v 3.2853437 q 0,0.4373347 0.480001,0.4373347 0.096,0 0.192001,-0.021333 v 0.6720021 q -0.373335,0.096 -0.608002,0.096 -0.426668,0 -0.650669,-0.2026673 -0.213334,-0.1920006 -0.266667,-0.6186686 -0.896003,0.8213359 -1.898673,0.8213359 -0.842669,0 -1.344004,-0.4480014 -0.490668,-0.4480014 -0.490668,-1.2053371 0,-0.2453342 0.04267,-0.4480015 0.05333,-0.2026673 0.106667,-0.3520011 0.064,-0.1600005 0.213334,-0.2880009 0.149334,-0.1386671 0.245334,-0.2240007 0.106667,-0.085334 0.341335,-0.1600005 0.245334,-0.085334 0.373334,-0.1173337 0.128001,-0.042667 0.448002,-0.096 0.320001,-0.053333 0.469335,-0.074667 0.149333,-0.021333 0.533335,-0.074667 0.522668,-0.064 0.725335,-0.2026673 Q 38.64354,5.2245054 38.64354,4.9471712 V 4.7125036 q 0,-0.4053347 -0.330668,-0.6186687 -0.320001,-0.213334 -0.917336,-0.213334 -0.618669,0 -0.93867,0.2453341 -0.320001,0.2346675 -0.373335,0.7466691 z m 1.781339,3.4026774 q 0.736002,0 1.205337,-0.3840012 0.469335,-0.3946679 0.469335,-0.8426694 V 6.0458411 q -0.266668,0.1280004 -0.81067,0.213334 -0.533335,0.085334 -0.928003,0.1493338 -0.394668,0.064 -0.714669,0.3093343 -0.320001,0.2346674 -0.320001,0.6613355 0,0.426668 0.288001,0.6613354 0.288001,0.2346674 0.81067,0.2346674 z m 6.218679,-5.056016 v 0.7253356 h -0.917336 v 3.8293455 q 0,0.2986676 0.096,0.4053346 0.106667,0.096 0.394668,0.096 0.266667,0 0.426668,-0.042667 v 0.746669 q -0.416001,0.074667 -0.725336,0.074667 -0.522668,0 -0.800002,-0.2346674 Q 41.384871,8.5951825 41.384871,8.1685145 V 3.9445011 H 40.627535 V 3.2191655 h 0.757336 V 1.6831607 h 0.885336 v 1.5360048 z m 0.778676,1.6533386 q 0.064,-1.8133391 2.240007,-1.8133391 1.03467,0 1.568005,0.3946679 0.533335,0.3840012 0.533335,1.1306703 v 3.2853437 q 0,0.4373347 0.480001,0.4373347 0.096,0 0.192001,-0.021333 v 0.6720021 q -0.373335,0.096 -0.608002,0.096 -0.426668,0 -0.650669,-0.2026673 -0.213334,-0.1920006 -0.266667,-0.6186686 -0.896003,0.8213359 -1.898673,0.8213359 -0.842669,0 -1.344004,-0.4480014 -0.490668,-0.4480014 -0.490668,-1.2053371 0,-0.2453342 0.04267,-0.4480015 0.05333,-0.2026673 0.106667,-0.3520011 0.064,-0.1600005 0.213334,-0.2880009 0.149334,-0.1386671 0.245335,-0.2240007 0.106667,-0.085334 0.341334,-0.1600005 0.245334,-0.085334 0.373335,-0.1173337 0.128,-0.042667 0.448001,-0.096 0.320001,-0.053333 0.469335,-0.074667 0.149334,-0.021333 0.533335,-0.074667 0.522668,-0.064 0.725335,-0.2026673 Q 47.42223,5.2245052 47.42223,4.947171 V 4.7125036 q 0,-0.4053347 -0.330668,-0.6186687 -0.320001,-0.213334 -0.917336,-0.213334 -0.618669,0 -0.93867,0.2453341 -0.320001,0.2346675 -0.373334,0.7466691 z m 1.781339,3.4026774 q 0.736002,0 1.205337,-0.3840012 Q 47.42223,7.4965124 47.42223,7.0485109 V 6.0458411 q -0.266668,0.1280004 -0.81067,0.213334 -0.533335,0.085334 -0.928002,0.1493338 -0.394668,0.064 -0.714669,0.3093343 -0.320001,0.2346674 -0.320001,0.6613355 0,0.426668 0.288001,0.6613354 0.288,0.2346674 0.810669,0.2346674 z"
       id="text19"
       style="font-size:10.6667px;line-height:1em;font-family:FreeSans;-inkscape-font-specification:FreeSans;letter-spacing:0;word-spacing:2px;stroke-width:4"
       transform="rotate(14.882)"
       aria-label="reqdata" />
    <path
       d="m 2.930831,47.908093 q 1.2053371,0 1.8666726,0.800002 0.6720021,0.789336 0.6720021,2.240007 0,1.376004 -0.6826688,2.16534 -0.6720022,0.789336 -1.8453392,0.789336 -1.1946704,0 -1.8666726,-0.789336 -0.66133539,-0.800002 -0.66133539,-2.208007 0,-1.408004 0.67200209,-2.19734 0.6720022,-0.800002 1.8453392,-0.800002 z m 0.010667,0.821335 q -0.746669,0 -1.173337,0.586669 -0.4266681,0.576002 -0.4266681,1.589338 0,1.013337 0.4266681,1.600005 0.426668,0.576002 1.173337,0.576002 0.7360023,0 1.1626703,-0.576002 0.4373348,-0.586668 0.4373348,-1.568005 0,-1.03467 -0.4266681,-1.621338 -0.4160013,-0.586669 -1.173337,-0.586669 z m 3.4880151,-2.848009 h 0.8853361 v 2.94401 q 0.6080019,-0.917336 1.7280054,-0.917336 1.1093364,0 1.7493384,0.789335 0.640002,0.789336 0.640002,2.144007 0,1.386671 -0.661335,2.22934 -0.661336,0.832003 -1.7706722,0.832003 -1.1413369,0 -1.7706722,-0.960003 v 0.714669 H 6.4295128 Z m 2.4426743,2.858676 q -0.7040022,0 -1.1306702,0.597335 -0.426668,0.586669 -0.426668,1.568005 0,0.981337 0.426668,1.578672 0.426668,0.586668 1.1306702,0.586668 0.7253357,0 1.1733366,-0.586668 0.458668,-0.597335 0.458668,-1.546672 0,-1.002669 -0.448001,-1.600005 -0.4373345,-0.597335 -1.1840036,-0.597335 z m 3.8186786,-0.672002 h 0.885336 v 6.752021 q 0,1.162671 -1.525338,1.162671 -0.138667,0 -0.298668,-0.032 v -0.757336 q 0.128001,0.02133 0.245334,0.02133 0.384002,0 0.533335,-0.170667 0.160001,-0.16 0.160001,-0.576002 z m 0.885336,-2.186674 v 1.120004 h -0.885336 v -1.120004 z m 6.133353,5.280017 h -4.117346 q 0.02133,0.87467 0.448001,1.397338 0.437335,0.522668 1.194671,0.522668 1.088003,0 1.461338,-1.120003 h 0.896002 q -0.170667,0.917336 -0.800002,1.429337 -0.629335,0.512002 -1.589338,0.512002 -1.173337,0 -1.856006,-0.789336 -0.682669,-0.800002 -0.682669,-2.176007 0,-1.376004 0.693335,-2.19734 0.704003,-0.832002 1.866673,-0.832002 2.485341,0 2.485341,3.253343 z M 15.613542,50.4361 h 3.146677 q 0,-0.725335 -0.437335,-1.216003 -0.437335,-0.490669 -1.109337,-0.490669 -0.672002,0 -1.109337,0.469335 -0.437334,0.458668 -0.490668,1.237337 z m 9.429373,-0.490668 h -0.896003 q -0.08533,-0.586668 -0.426668,-0.896003 -0.341334,-0.320001 -0.896003,-0.320001 -0.725335,0 -1.141337,0.597336 -0.405334,0.586668 -0.405334,1.632005 0,0.992003 0.416001,1.557338 0.416001,0.565335 1.152004,0.565335 1.141337,0 1.365337,-1.344004 h 0.896003 q -0.08533,1.024003 -0.682669,1.600005 -0.597335,0.565335 -1.600005,0.565335 -1.141337,0 -1.813339,-0.789336 -0.661335,-0.800002 -0.661335,-2.154673 0,-1.386671 0.672002,-2.218674 0.682669,-0.832002 1.813339,-0.832002 0.97067,0 1.546672,0.522668 0.586668,0.522668 0.661335,1.514671 z m 3.157349,-1.877339 v 0.725336 h -0.917336 v 3.829345 q 0,0.298668 0.096,0.405335 0.106667,0.096 0.394668,0.096 0.266667,0 0.426668,-0.04267 v 0.746669 q -0.416001,0.07467 -0.725336,0.07467 -0.522668,0 -0.800002,-0.234667 -0.277334,-0.224001 -0.277334,-0.650669 v -4.224013 h -0.757336 v -0.725336 h 0.757336 v -1.536005 h 0.885336 v 1.536005 z"
       id="text20"
       style="font-size:10.6667px;line-height:1em;font-family:FreeSans;-inkscape-font-specification:FreeSans;letter-spacing:0;word-spacing:2px;stroke-width:4"
       transform="rotate(-18.884)"
       aria-label="object" />
    <path
       d="m 331.90634,22.621588 h -0.97067 L 328.973,17.032237 h 1.00267 l 1.49334,4.533347 1.57867,-4.533347 h 1.00267 z m 2.81601,-3.936013 q 0.064,-1.813339 2.24001,-1.813339 1.03467,0 1.56801,0.394668 0.53333,0.384001 0.53333,1.13067 v 3.285344 q 0,0.437335 0.48,0.437335 0.096,0 0.192,-0.02133 v 0.672003 q -0.37333,0.096 -0.608,0.096 -0.42667,0 -0.65067,-0.202667 -0.21333,-0.192001 -0.26666,-0.618669 -0.89601,0.821336 -1.89868,0.821336 -0.84267,0 -1.344,-0.448002 -0.49067,-0.448001 -0.49067,-1.205337 0,-0.245334 0.0427,-0.448001 0.0533,-0.202667 0.10666,-0.352001 0.064,-0.160001 0.21334,-0.288001 0.14933,-0.138667 0.24533,-0.224001 0.10667,-0.08533 0.34134,-0.16 0.24533,-0.08533 0.37333,-0.117334 0.128,-0.04267 0.448,-0.096 0.32,-0.05333 0.46934,-0.07467 0.14933,-0.02133 0.53333,-0.07467 0.52267,-0.064 0.72534,-0.202667 0.20267,-0.138668 0.20267,-0.416002 v -0.234667 q 0,-0.405335 -0.33067,-0.618669 -0.32,-0.213334 -0.91734,-0.213334 -0.61867,0 -0.93867,0.245334 -0.32,0.234668 -0.37333,0.746669 z m 1.78134,3.402678 q 0.73601,0 1.20534,-0.384001 0.46934,-0.394668 0.46934,-0.84267 v -1.00267 q -0.26667,0.128001 -0.81067,0.213334 -0.53334,0.08533 -0.92801,0.149334 -0.39466,0.064 -0.71467,0.309334 -0.32,0.234668 -0.32,0.661336 0,0.426668 0.288,0.661335 0.28801,0.234668 0.81067,0.234668 z m 4.98134,-7.24269 v 7.776025 h -0.896 v -7.776025 z m 5.8347,7.776025 h -0.80001 v -0.778669 q -0.39466,0.554668 -0.82133,0.789335 -0.42667,0.234668 -1.04534,0.234668 -0.81067,0 -1.30134,-0.416001 -0.48,-0.416002 -0.48,-1.109337 v -4.309347 h 0.88534 v 3.957346 q 0,0.501335 0.30933,0.800002 0.30934,0.298668 0.84267,0.298668 0.69334,0 1.10934,-0.512002 0.416,-0.522668 0.416,-1.376004 v -3.16801 h 0.88534 z m 6.00536,-2.496008 h -4.11735 q 0.0213,0.874669 0.448,1.397338 0.43734,0.522668 1.19467,0.522668 1.08801,0 1.46134,-1.120004 h 0.896 q -0.17066,0.917337 -0.8,1.429338 -0.62934,0.512002 -1.58934,0.512002 -1.17334,0 -1.856,-0.789336 -0.68267,-0.800002 -0.68267,-2.176007 0,-1.376004 0.69333,-2.19734 0.704,-0.832003 1.86667,-0.832003 2.48535,0 2.48535,3.253344 z m -4.09602,-0.725336 h 3.14668 q 0,-0.725335 -0.43733,-1.216004 -0.43734,-0.490668 -1.10934,-0.490668 -0.672,0 -1.10934,0.469335 -0.43733,0.458668 -0.49067,1.237337 z"
       id="text21"
       style="font-size:10.6667px;line-height:1em;font-family:FreeSans;-inkscape-font-specification:FreeSans;letter-spacing:0;word-spacing:2px;stroke-width:4"
       aria-label="value" />
    <path
       d="m 171.90636,22.621588 h -0.97067 l -1.96267,-5.589351 h 1.00267 l 1.49333,4.533347 1.57867,-4.533347 h 1.00267 z m 2.81601,-3.936013 q 0.064,-1.813339 2.24001,-1.813339 1.03467,0 1.568,0.394668 0.53334,0.384001 0.53334,1.13067 v 3.285344 q 0,0.437335 0.48,0.437335 0.096,0 0.192,-0.02133 v 0.672003 q -0.37334,0.096 -0.608,0.096 -0.42667,0 -0.65067,-0.202667 -0.21334,-0.192001 -0.26667,-0.618669 -0.896,0.821336 -1.89867,0.821336 -0.84267,0 -1.34401,-0.448002 -0.49066,-0.448001 -0.49066,-1.205337 0,-0.245334 0.0427,-0.448001 0.0533,-0.202667 0.10667,-0.352001 0.064,-0.160001 0.21333,-0.288001 0.14934,-0.138667 0.24534,-0.224001 0.10666,-0.08533 0.34133,-0.16 0.24534,-0.08533 0.37334,-0.117334 0.128,-0.04267 0.448,-0.096 0.32,-0.05333 0.46933,-0.07467 0.14934,-0.02133 0.53334,-0.07467 0.52267,-0.064 0.72533,-0.202667 0.20267,-0.138668 0.20267,-0.416002 v -0.234667 q 0,-0.405335 -0.33067,-0.618669 -0.32,-0.213334 -0.91733,-0.213334 -0.61867,0 -0.93867,0.245334 -0.32,0.234668 -0.37334,0.746669 z m 1.78134,3.402678 q 0.736,0 1.20534,-0.384001 0.46933,-0.394668 0.46933,-0.84267 v -1.00267 q -0.26667,0.128001 -0.81067,0.213334 -0.53333,0.08533 -0.928,0.149334 -0.39467,0.064 -0.71467,0.309334 -0.32,0.234668 -0.32,0.661336 0,0.426668 0.288,0.661335 0.288,0.234668 0.81067,0.234668 z m 4.98134,-7.24269 v 7.776025 h -0.896 v -7.776025 z m 5.83469,7.776025 h -0.8 v -0.778669 q -0.39467,0.554668 -0.82134,0.789335 -0.42666,0.234668 -1.04533,0.234668 -0.81067,0 -1.30134,-0.416001 -0.48,-0.416002 -0.48,-1.109337 v -4.309347 h 0.88533 v 3.957346 q 0,0.501335 0.30934,0.800002 0.30933,0.298668 0.84267,0.298668 0.69333,0 1.10934,-0.512002 0.416,-0.522668 0.416,-1.376004 v -3.16801 h 0.88533 z m 6.00536,-2.496008 h -4.11734 q 0.0213,0.874669 0.448,1.397338 0.43733,0.522668 1.19467,0.522668 1.088,0 1.46133,-1.120004 h 0.89601 q -0.17067,0.917337 -0.8,1.429338 -0.62934,0.512002 -1.58934,0.512002 -1.17334,0 -1.85601,-0.789336 -0.68267,-0.800002 -0.68267,-2.176007 0,-1.376004 0.69334,-2.19734 0.704,-0.832003 1.86667,-0.832003 2.48534,0 2.48534,3.253344 z m -4.09601,-0.725336 h 3.14668 q 0,-0.725335 -0.43734,-1.216004 -0.43733,-0.490668 -1.10934,-0.490668 -0.672,0 -1.10933,0.469335 -0.43734,0.458668 -0.49067,1.237337 z"
       id="text23"
       style="font-size:10.6667px;line-height:1em;font-family:FreeSans;-inkscape-font-specification:FreeSans;letter-spacing:0;word-spacing:2px;stroke-width:4"
       aria-label="value" />
    <g
       stroke="#000000"
       stroke-miterlimit="10"
       id="g9"
       transform="translate(-103.34966,-7.0154103)">
      <path
         fill="none"
         d="m 578.5,32.5 h 63.63"
         pointer-events="stroke"
         id="path8" />
      <path
         d="m 647.38,32.5 -7,3.5 1.75,-3.5 -1.75,-3.5 z"
         pointer-events="all"
         id="path9" />
    </g>
    <path
       d="m 500.90634,22.621588 h -0.97067 L 497.973,17.032237 h 1.00267 l 1.49334,4.533347 1.57867,-4.533347 h 1.00267 z m 2.81601,-3.936013 q 0.064,-1.813339 2.24001,-1.813339 1.03467,0 1.56801,0.394668 0.53333,0.384001 0.53333,1.13067 v 3.285344 q 0,0.437335 0.48,0.437335 0.096,0 0.192,-0.02133 v 0.672003 q -0.37333,0.096 -0.608,0.096 -0.42667,0 -0.65067,-0.202667 -0.21333,-0.192001 -0.26666,-0.618669 -0.89601,0.821336 -1.89868,0.821336 -0.84267,0 -1.344,-0.448002 -0.49067,-0.448001 -0.49067,-1.205337 0,-0.245334 0.0427,-0.448001 0.0533,-0.202667 0.10666,-0.352001 0.064,-0.160001 0.21334,-0.288001 0.14933,-0.138667 0.24533,-0.224001 0.10667,-0.08533 0.34134,-0.16 0.24533,-0.08533 0.37333,-0.117334 0.128,-0.04267 0.448,-0.096 0.32,-0.05333 0.46934,-0.07467 0.14933,-0.02133 0.53333,-0.07467 0.52267,-0.064 0.72534,-0.202667 0.20267,-0.138668 0.20267,-0.416002 v -0.234667 q 0,-0.405335 -0.33067,-0.618669 -0.32,-0.213334 -0.91734,-0.213334 -0.61867,0 -0.93867,0.245334 -0.32,0.234668 -0.37333,0.746669 z m 1.78134,3.402678 q 0.73601,0 1.20534,-0.384001 0.46934,-0.394668 0.46934,-0.84267 v -1.00267 q -0.26667,0.128001 -0.81067,0.213334 -0.53334,0.08533 -0.92801,0.149334 -0.39466,0.064 -0.71467,0.309334 -0.32,0.234668 -0.32,0.661336 0,0.426668 0.288,0.661335 0.28801,0.234668 0.81067,0.234668 z m 4.98134,-7.24269 v 7.776025 h -0.896 v -7.776025 z m 5.8347,7.776025 h -0.80001 v -0.778669 q -0.39466,0.554668 -0.82133,0.789335 -0.42667,0.234668 -1.04534,0.234668 -0.81067,0 -1.30134,-0.416001 -0.48,-0.416002 -0.48,-1.109337 v -4.309347 h 0.88534 v 3.957346 q 0,0.501335 0.30933,0.800002 0.30934,0.298668 0.84267,0.298668 0.69334,0 1.10934,-0.512002 0.416,-0.522668 0.416,-1.376004 v -3.16801 h 0.88534 z m 6.00536,-2.496008 h -4.11735 q 0.0213,0.874669 0.448,1.397338 0.43734,0.522668 1.19467,0.522668 1.08801,0 1.46134,-1.120004 h 0.896 q -0.17066,0.917337 -0.8,1.429338 -0.62934,0.512002 -1.58934,0.512002 -1.17334,0 -1.856,-0.789336 -0.68267,-0.800002 -0.68267,-2.176007 0,-1.376004 0.69333,-2.19734 0.704,-0.832003 1.86667,-0.832003 2.48535,0 2.48535,3.253344 z m -4.09602,-0.725336 h 3.14668 q 0,-0.725335 -0.43733,-1.216004 -0.43734,-0.490668 -1.10934,-0.490668 -0.672,0 -1.10934,0.469335 -0.43733,0.458668 -0.49067,1.237337 z"
       id="text22"
       style="font-size:10.6667px;line-height:1em;font-family:FreeSans;-inkscape-font-specification:FreeSans;letter-spacing:0;word-spacing:2px;stroke-width:4"
       aria-label="value" />
  </g>
</svg>
