<?xml version="1.0" encoding="UTF-8" standalone="no"?>
<svg
   width="545.14838"
   height="60.961449"
   version="1.1"
   id="svg32"
   xmlns:xlink="http://www.w3.org/1999/xlink"
   xmlns="http://www.w3.org/2000/svg"
   xmlns:svg="http://www.w3.org/2000/svg">
  <defs
     id="defs4">
    <linearGradient
       id="a">
      <stop
         offset="0"
         style="stop-color:#fff;stop-opacity:1"
         id="stop1" />
      <stop
         offset=".546"
         style="stop-color:#cedff8;stop-opacity:1"
         id="stop2" />
    </linearGradient>
    <linearGradient
       id="b">
      <stop
         offset="0"
         style="stop-color:#fbf0d4;stop-opacity:1"
         id="stop3" />
      <stop
         offset=".546"
         style="stop-color:#fbe9a3;stop-opacity:1"
         id="stop4" />
    </linearGradient>
    <linearGradient
       xlink:href="#a"
       id="linearGradient57"
       gradientUnits="userSpaceOnUse"
       gradientTransform="translate(-7.3496628,74.195675)"
       x1="97.950996"
       y1="-3.9449999"
       x2="138.853"
       y2="66.899002" />
    <linearGradient
       xlink:href="#b"
       id="linearGradient58"
       gradientUnits="userSpaceOnUse"
       gradientTransform="matrix(1.2976853,0,0,0.99648125,-72.310143,74.306435)"
       x1="217.94901"
       y1="31.476999"
       x2="298.98599"
       y2="31.476999" />
    <linearGradient
       xlink:href="#a"
       id="linearGradient59"
       gradientUnits="userSpaceOnUse"
       gradientTransform="matrix(1.2976854,0,0,0.9964812,-94.005483,74.306435)"
       x1="358.01401"
       y1="31.476999"
       x2="439.05099"
       y2="31.476999" />
  </defs>
  <g
     id="g131"
     transform="translate(0,-81.211082)">
    <path
       id="rect42"
       style="fill:url(#linearGradient57);stroke:#9fd1ff"
       d="m 78.03634,86.18367 h 66.031 c 3.87967,0 7.003,2.433822 7.003,5.457 v 28.064 c 0,3.02318 -3.12333,5.457 -7.003,5.457 h -66.031 c -3.879662,0 -7.003,-2.43382 -7.003,-5.457 v -28.064 c 0,-3.023178 3.123338,-5.457 7.003,-5.457 z" />
    <g
       stroke="#000000"
       stroke-miterlimit="10"
       id="g43"
       transform="translate(12.650337,74.195675)"
       style="stroke:#e0e0e0;stroke-opacity:1">
      <path
         fill="none"
         d="m 298.5,32.5 h 53.63"
         pointer-events="stroke"
         id="path42"
         style="stroke:#e0e0e0;stroke-opacity:1" />
      <path
         d="m 357.38,32.5 -7,3.5 1.75,-3.5 -1.75,-3.5 z"
         pointer-events="all"
         id="path43"
         style="stroke:#e0e0e0;stroke-opacity:1" />
    </g>
    <path
       id="rect43"
       style="fill:url(#linearGradient58);stroke:#e8c900;stroke-width:1.13716"
       d="m 220.25561,86.252251 h 85.68746 c 5.03458,0 9.08769,2.425258 9.08769,5.437798 V 119.6553 c 0,3.01254 -4.05311,5.4378 -9.08769,5.4378 h -85.68746 c -5.03458,0 -9.08769,-2.42526 -9.08769,-5.4378 V 91.690049 c 0,-3.01254 4.05311,-5.437798 9.08769,-5.437798 z" />
    <path
       id="rect44"
       style="fill:url(#linearGradient59);stroke:#9fd1ff;stroke-width:1.13715"
       d="m 380.3206,86.252251 h 85.68747 c 5.03458,0 9.08769,2.425258 9.08769,5.437798 V 119.6553 c 0,3.01254 -4.05311,5.4378 -9.08769,5.4378 H 380.3206 c -5.03458,0 -9.08769,-2.42526 -9.08769,-5.4378 V 91.690049 c 0,-3.01254 4.05311,-5.437798 9.08769,-5.437798 z" />
    <g
       id="text45"
       style="font-size:10.6667px;line-height:1em;font-family:FreeSans;-inkscape-font-specification:FreeSans;text-align:center;letter-spacing:0;word-spacing:2px;text-anchor:middle;white-space:pre;inline-size:339.646;stroke-width:4"
       transform="translate(24.577814,74.195665)"
       aria-label="required check&#10;and native filter">
      <path
         d="m 366.45041,25.098319 q -0.896,0.02133 -1.344,0.416001 -0.44801,0.394668 -0.44801,1.493338 V 29.909 h -0.896 v -5.589351 h 0.82134 v 1.013337 q 0.384,-0.629335 0.736,-0.896003 0.36267,-0.277334 0.78934,-0.277334 0.11733,0 0.34133,0.032 z m 5.57869,2.314674 h -4.11734 q 0.0213,0.874669 0.448,1.397337 0.43733,0.522669 1.19467,0.522669 1.088,0 1.46134,-1.120004 h 0.896 q -0.17067,0.917336 -0.8,1.429338 -0.62934,0.512002 -1.58934,0.512002 -1.17334,0 -1.85601,-0.789336 -0.68267,-0.800003 -0.68267,-2.176007 0,-1.376005 0.69334,-2.19734 0.704,-0.832003 1.86667,-0.832003 2.48534,0 2.48534,3.253344 z m -4.09601,-0.725336 h 3.14668 q 0,-0.725336 -0.43734,-1.216004 -0.43733,-0.490668 -1.10934,-0.490668 -0.672,0 -1.10933,0.469335 -0.43734,0.458668 -0.49067,1.237337 z m 9.73871,5.546684 h -0.88534 v -2.965343 q -0.608,0.885337 -1.72801,0.885337 -1.10933,0 -1.74933,-0.789336 -0.64001,-0.789336 -0.64001,-2.144007 0,-1.386671 0.66134,-2.218674 0.66133,-0.842669 1.77067,-0.842669 1.14134,0 1.78134,0.906669 v -0.746669 h 0.78934 z m -2.44268,-7.242689 q -0.736,0 -1.184,0.597335 -0.448,0.597335 -0.448,1.568005 0,0.981336 0.448,1.578671 0.448,0.586669 1.184,0.586669 0.704,0 1.13067,-0.586669 0.42667,-0.586668 0.42667,-1.546671 0,-1.00267 -0.42667,-1.600005 -0.416,-0.597335 -1.13067,-0.597335 z m 8.17069,4.917348 h -0.8 v -0.778669 q -0.39467,0.554669 -0.82133,0.789336 -0.42667,0.234668 -1.04534,0.234668 -0.81067,0 -1.30134,-0.416002 -0.48,-0.416001 -0.48,-1.109337 v -4.309347 h 0.88534 v 3.957346 q 0,0.501335 0.30933,0.800003 0.30934,0.298667 0.84267,0.298667 0.69334,0 1.10934,-0.512001 0.416,-0.522669 0.416,-1.376005 v -3.16801 h 0.88533 z m 2.24002,-5.589351 V 29.909 h -0.88534 v -5.589351 z m 0,-2.186673 v 1.120003 h -0.89601 v -1.120003 z m 4.09601,2.965343 q -0.896,0.02133 -1.344,0.416001 -0.448,0.394668 -0.448,1.493338 V 29.909 h -0.89601 v -5.589351 h 0.82134 v 1.013337 q 0.384,-0.629335 0.736,-0.896003 0.36267,-0.277334 0.78934,-0.277334 0.11733,0 0.34133,0.032 z m 5.5787,2.314674 h -4.11735 q 0.0213,0.874669 0.448,1.397337 0.43734,0.522669 1.19467,0.522669 1.088,0 1.46134,-1.120004 h 0.896 q -0.17067,0.917336 -0.8,1.429338 -0.62934,0.512002 -1.58934,0.512002 -1.17334,0 -1.85601,-0.789336 -0.68266,-0.800003 -0.68266,-2.176007 0,-1.376005 0.69333,-2.19734 0.704,-0.832003 1.86667,-0.832003 2.48535,0 2.48535,3.253344 z m -4.09602,-0.725336 h 3.14668 q 0,-0.725336 -0.43734,-1.216004 -0.43733,-0.490668 -1.10933,-0.490668 -0.672,0 -1.10934,0.469335 -0.43733,0.458668 -0.49067,1.237337 z m 9.73871,-4.554681 V 29.909 h -0.78934 v -0.736002 q -0.36267,0.522668 -0.78933,0.746669 -0.416,0.234668 -0.99201,0.234668 -1.13067,0 -1.78134,-0.81067 -0.65066,-0.821336 -0.65066,-2.240007 0,-1.333337 0.65066,-2.13334 0.66134,-0.810669 1.74934,-0.810669 1.15201,0 1.71734,0.864003 v -2.890676 z m -2.45334,2.858676 q -0.72534,0 -1.17334,0.597335 -0.448,0.597335 -0.448,1.568005 0,0.981336 0.448,1.578671 0.448,0.586669 1.184,0.586669 0.70401,0 1.13067,-0.586669 0.42667,-0.586668 0.42667,-1.557338 0,-1.00267 -0.42667,-1.589338 -0.42666,-0.597335 -1.14133,-0.597335 z"
         id="path128" />
      <path
         d="m 411.27725,26.196989 h -0.896 q -0.0853,-0.586669 -0.42667,-0.896003 -0.34133,-0.320001 -0.896,-0.320001 -0.72533,0 -1.14134,0.597335 -0.40533,0.586669 -0.40533,1.632005 0,0.992003 0.416,1.557338 0.416,0.565336 1.152,0.565336 1.14134,0 1.36534,-1.344005 h 0.896 q -0.0853,1.024004 -0.68266,1.600005 -0.59734,0.565336 -1.60001,0.565336 -1.14134,0 -1.81334,-0.789336 -0.66133,-0.800003 -0.66133,-2.154674 0,-1.386671 0.672,-2.218673 0.68267,-0.832003 1.81334,-0.832003 0.97067,0 1.54667,0.522668 0.58667,0.522669 0.66133,1.514672 z m 4.57603,-0.160001 q 0,-0.586668 -0.36267,-0.842669 -0.352,-0.256001 -0.78934,-0.256001 -0.68267,0 -1.09867,0.522668 -0.416,0.512002 -0.416,1.365338 V 29.909 h -0.88533 v -7.776024 h 0.88533 v 2.954676 q 0.39467,-0.512002 0.78934,-0.714669 0.40533,-0.213334 1.00267,-0.213334 0.81067,0 1.28,0.416001 0.48,0.405335 0.48,1.109337 V 29.909 h -0.88533 z m 6.89068,1.376005 h -4.11735 q 0.0213,0.874669 0.448,1.397337 0.43734,0.522669 1.19467,0.522669 1.088,0 1.46134,-1.120004 h 0.896 q -0.17067,0.917336 -0.8,1.429338 -0.62934,0.512002 -1.58934,0.512002 -1.17334,0 -1.856,-0.789336 -0.68267,-0.800003 -0.68267,-2.176007 0,-1.376005 0.69333,-2.19734 0.704,-0.832003 1.86667,-0.832003 2.48535,0 2.48535,3.253344 z m -4.09602,-0.725336 h 3.14668 q 0,-0.725336 -0.43734,-1.216004 -0.43733,-0.490668 -1.10933,-0.490668 -0.672,0 -1.10934,0.469335 -0.43733,0.458668 -0.49067,1.237337 z m 9.42938,-0.490668 h -0.896 q -0.0853,-0.586669 -0.42667,-0.896003 -0.34134,-0.320001 -0.89601,-0.320001 -0.72533,0 -1.14133,0.597335 -0.40534,0.586669 -0.40534,1.632005 0,0.992003 0.416,1.557338 0.41601,0.565336 1.15201,0.565336 1.14134,0 1.36534,-1.344005 h 0.896 q -0.0853,1.024004 -0.68267,1.600005 -0.59734,0.565336 -1.60001,0.565336 -1.14133,0 -1.81333,-0.789336 -0.66134,-0.800003 -0.66134,-2.154674 0,-1.386671 0.672,-2.218673 0.68267,-0.832003 1.81334,-0.832003 0.97067,0 1.54667,0.522668 0.58667,0.522669 0.66134,1.514672 z m 1.90935,-4.064013 v 4.554681 l 2.368,-2.368008 h 1.14134 l -1.94134,1.930673 2.28267,3.658678 h -1.09867 l -1.888,-3.029343 -0.864,0.853337 V 29.909 h -0.88534 v -7.776024 z"
         id="path129" />
      <path
         d="m 362.06374,36.639691 q 0.064,-1.813339 2.24001,-1.813339 1.03467,0 1.568,0.394668 0.53334,0.384001 0.53334,1.13067 v 3.285344 q 0,0.437335 0.48,0.437335 0.096,0 0.192,-0.02133 v 0.672002 q -0.37334,0.096 -0.608,0.096 -0.42667,0 -0.65067,-0.202668 -0.21334,-0.192 -0.26667,-0.618668 -0.896,0.821336 -1.89867,0.821336 -0.84267,0 -1.34401,-0.448002 -0.49066,-0.448001 -0.49066,-1.205337 0,-0.245334 0.0427,-0.448001 0.0533,-0.202668 0.10667,-0.352002 0.064,-0.16 0.21333,-0.288 0.14934,-0.138668 0.24534,-0.224001 0.10666,-0.08533 0.34133,-0.160001 0.24534,-0.08533 0.37334,-0.117333 0.128,-0.04267 0.448,-0.096 0.32,-0.05333 0.46933,-0.07467 0.14934,-0.02133 0.53334,-0.07467 0.52267,-0.064 0.72533,-0.202668 0.20267,-0.138667 0.20267,-0.416001 V 36.47969 q 0,-0.405334 -0.33067,-0.618668 -0.32,-0.213334 -0.91733,-0.213334 -0.61867,0 -0.93867,0.245334 -0.32,0.234667 -0.37334,0.746669 z m 1.78134,3.402677 q 0.736,0 1.20534,-0.384001 0.46933,-0.394668 0.46933,-0.842669 v -1.00267 q -0.26667,0.128 -0.81067,0.213334 -0.53333,0.08533 -0.928,0.149334 -0.39467,0.064 -0.71467,0.309334 -0.32,0.234668 -0.32,0.661336 0,0.426668 0.288,0.661335 0.288,0.234667 0.81067,0.234667 z m 4.08534,-5.056016 h 0.82133 v 0.93867 q 0.37334,-0.586668 0.8,-0.842669 0.43734,-0.256001 1.05601,-0.256001 0.81067,0 1.29067,0.416001 0.48,0.416002 0.48,1.109337 v 4.224013 h -0.88534 v -3.872012 q 0,-0.501335 -0.30933,-0.800002 -0.30933,-0.298668 -0.84267,-0.298668 -0.68267,0 -1.09867,0.522668 -0.416,0.512002 -0.416,1.365338 v 3.082676 h -0.896 z m 10.4107,-2.186673 v 7.776024 h -0.78933 v -0.736002 q -0.36267,0.522668 -0.78934,0.746669 -0.416,0.234668 -0.992,0.234668 -1.13067,0 -1.78134,-0.81067 -0.65067,-0.821336 -0.65067,-2.240007 0,-1.333337 0.65067,-2.13334 0.66133,-0.810669 1.74934,-0.810669 1.152,0 1.71734,0.864003 v -2.890676 z m -2.45334,2.858676 q -0.72533,0 -1.17334,0.597335 -0.448,0.597335 -0.448,1.568005 0,0.981336 0.448,1.578671 0.44801,0.586669 1.18401,0.586669 0.704,0 1.13067,-0.586669 0.42667,-0.586668 0.42667,-1.557338 0,-1.00267 -0.42667,-1.589338 -0.42667,-0.597335 -1.14134,-0.597335 z m 8.40002,-0.672003 h 0.82134 v 0.93867 q 0.37333,-0.586668 0.8,-0.842669 0.43733,-0.256001 1.056,-0.256001 0.81067,0 1.29067,0.416001 0.48001,0.416002 0.48001,1.109337 v 4.224013 h -0.88534 v -3.872012 q 0,-0.501335 -0.30934,-0.800002 -0.30933,-0.298668 -0.84266,-0.298668 -0.68267,0 -1.09867,0.522668 -0.41601,0.512002 -0.41601,1.365338 v 3.082676 h -0.896 z m 5.65336,1.653339 q 0.064,-1.813339 2.24001,-1.813339 1.03467,0 1.568,0.394668 0.53334,0.384001 0.53334,1.13067 v 3.285344 q 0,0.437335 0.48,0.437335 0.096,0 0.192,-0.02133 v 0.672002 q -0.37334,0.096 -0.608,0.096 -0.42667,0 -0.65067,-0.202668 -0.21334,-0.192 -0.26667,-0.618668 -0.896,0.821336 -1.89867,0.821336 -0.84267,0 -1.34401,-0.448002 -0.49066,-0.448001 -0.49066,-1.205337 0,-0.245334 0.0427,-0.448001 0.0533,-0.202668 0.10667,-0.352002 0.064,-0.16 0.21333,-0.288 0.14934,-0.138668 0.24534,-0.224001 0.10666,-0.08533 0.34133,-0.160001 0.24534,-0.08533 0.37334,-0.117333 0.128,-0.04267 0.448,-0.096 0.32,-0.05333 0.46933,-0.07467 0.14934,-0.02133 0.53334,-0.07467 0.52267,-0.064 0.72533,-0.202668 0.20267,-0.138667 0.20267,-0.416001 V 36.47969 q 0,-0.405334 -0.33067,-0.618668 -0.32,-0.213334 -0.91733,-0.213334 -0.61867,0 -0.93867,0.245334 -0.32,0.234667 -0.37334,0.746669 z m 1.78134,3.402677 q 0.736,0 1.20534,-0.384001 0.46933,-0.394668 0.46933,-0.842669 v -1.00267 q -0.26667,0.128 -0.81067,0.213334 -0.53333,0.08533 -0.928,0.149334 -0.39467,0.064 -0.71467,0.309334 -0.32,0.234668 -0.32,0.661336 0,0.426668 0.288,0.661335 0.288,0.234667 0.81067,0.234667 z m 6.21868,-5.056016 v 0.725336 h -0.91734 v 3.829345 q 0,0.298668 0.096,0.405335 0.10667,0.096 0.39467,0.096 0.26667,0 0.42667,-0.04267 v 0.746669 q -0.41601,0.07467 -0.72534,0.07467 -0.52267,0 -0.8,-0.234668 -0.27734,-0.224001 -0.27734,-0.650669 v -4.224013 h -0.75733 v -0.725336 h 0.75733 v -1.536004 h 0.88534 v 1.536004 z m 1.81334,0 v 5.589351 h -0.88533 v -5.589351 z m 0,-2.186673 v 1.120003 h -0.896 v -1.120003 z m 3.80802,7.776024 h -0.97067 l -1.96267,-5.589351 h 1.00267 l 1.49333,4.533348 1.57867,-4.533348 h 1.00267 z m 7.61603,-2.496007 h -4.11735 q 0.0213,0.874669 0.448,1.397337 0.43734,0.522669 1.19467,0.522669 1.08801,0 1.46134,-1.120004 h 0.896 q -0.17066,0.917336 -0.8,1.429338 -0.62934,0.512002 -1.58934,0.512002 -1.17334,0 -1.856,-0.789336 -0.68267,-0.800003 -0.68267,-2.176007 0,-1.376005 0.69333,-2.19734 0.704,-0.832003 1.86667,-0.832003 2.48535,0 2.48535,3.253344 z m -4.09602,-0.725336 h 3.14668 q 0,-0.725336 -0.43733,-1.216004 -0.43734,-0.490668 -1.10934,-0.490668 -0.672,0 -1.10934,0.469335 -0.43733,0.458668 -0.49067,1.237337 z m 13.22138,-2.368008 v 5.589351 h -0.88534 v -4.864015 h -1.49333 v 4.864015 h -0.88534 v -4.864015 h -0.74667 v -0.725336 h 0.74667 v -0.949336 q 0,-0.597335 0.34134,-0.928003 0.352,-0.341334 0.97066,-0.341334 h 1.90934 v 1.088003 q 0,0 -0.736,0 -0.032,-0.08533 -0.43733,-0.192 -0.39467,-0.117334 -0.544,-0.117334 -0.61867,0 -0.61867,0.565335 v 0.874669 h 1.49333 0.0853 z m 2.304,-2.186673 v 7.776024 h -0.896 v -7.776024 z m 3.52002,2.186673 v 0.725336 h -0.91734 v 3.829345 q 0,0.298668 0.096,0.405335 0.10667,0.096 0.39467,0.096 0.26667,0 0.42667,-0.04267 v 0.746669 q -0.416,0.07467 -0.72534,0.07467 -0.52267,0 -0.8,-0.234668 -0.27733,-0.224001 -0.27733,-0.650669 v -4.224013 h -0.75734 v -0.725336 h 0.75734 v -1.536004 h 0.88533 v 1.536004 z m 5.57868,3.093344 h -4.11734 q 0.0213,0.874669 0.448,1.397337 0.43733,0.522669 1.19467,0.522669 1.088,0 1.46134,-1.120004 h 0.896 q -0.17067,0.917336 -0.8,1.429338 -0.62934,0.512002 -1.58934,0.512002 -1.17334,0 -1.85601,-0.789336 -0.68266,-0.800003 -0.68266,-2.176007 0,-1.376005 0.69333,-2.19734 0.704,-0.832003 1.86667,-0.832003 2.48534,0 2.48534,3.253344 z m -4.09601,-0.725336 h 3.14668 q 0,-0.725336 -0.43734,-1.216004 -0.43733,-0.490668 -1.10933,-0.490668 -0.67201,0 -1.10934,0.469335 -0.43733,0.458668 -0.49067,1.237337 z m 7.74404,-1.589338 q -0.896,0.02133 -1.34401,0.416001 -0.448,0.394668 -0.448,1.493338 v 2.901342 h -0.896 v -5.589351 h 0.82134 v 1.013337 q 0.384,-0.629335 0.736,-0.896003 0.36267,-0.277334 0.78933,-0.277334 0.11734,0 0.34134,0.032 z"
         id="path130" />
    </g>
    <g
       stroke="#000000"
       stroke-miterlimit="10"
       id="g46"
       transform="translate(-7.3496628,74.195675)"
       style="stroke:#e0e0e0;stroke-opacity:1">
      <path
         fill="none"
         d="M 8.5,7.5 73.53,24.03"
         pointer-events="stroke"
         id="path45"
         style="stroke:#e0e0e0;stroke-opacity:1" />
      <path
         d="m 78.62,25.32 -7.65,1.67 2.56,-2.96 -0.84,-3.82 z"
         pointer-events="all"
         id="path46"
         style="stroke:#e0e0e0;stroke-opacity:1" />
    </g>
    <g
       stroke="#000000"
       stroke-miterlimit="10"
       id="g48"
       transform="translate(-7.3496628,74.195675)"
       style="stroke:#e0e0e0;stroke-opacity:1">
      <path
         fill="none"
         d="M 7.5,67.5 72.43,47.03"
         pointer-events="stroke"
         id="path47"
         style="stroke:#e0e0e0;stroke-opacity:1" />
      <path
         d="m 77.43,45.45 -5.62,5.44 0.62,-3.86 -2.72,-2.81 z"
         pointer-events="all"
         id="path48"
         style="stroke:#e0e0e0;stroke-opacity:1" />
    </g>
    <g
       stroke="#000000"
       stroke-miterlimit="10"
       id="g50"
       transform="translate(-7.3496628,74.195675)"
       style="stroke:#e0e0e0;stroke-opacity:1">
      <path
         fill="none"
         d="m 158.5,32.5 h 53.63"
         pointer-events="stroke"
         id="path49"
         style="stroke:#e0e0e0;stroke-opacity:1" />
      <path
         d="m 217.38,32.5 -7,3.5 1.75,-3.5 -1.75,-3.5 z"
         pointer-events="all"
         id="path50"
         style="stroke:#e0e0e0;stroke-opacity:1" />
    </g>
    <path
       d="m 105.31316,107.44867 q 0.064,0.50134 0.34134,0.80001 0.288,0.288 1.024,0.288 0.58667,0 0.93867,-0.23467 0.36267,-0.24533 0.36267,-0.64 0,-0.30934 -0.20267,-0.49067 -0.20267,-0.18133 -0.66134,-0.288 l -0.832,-0.20267 q -0.992,-0.23467 -1.38667,-0.58667 -0.384,-0.36267 -0.384,-1.024 0,-0.77867 0.58667,-1.23734 0.58667,-0.46933 1.55734,-0.46933 0.97067,0 1.49333,0.448 0.52267,0.448 0.53334,1.26934 h -0.93867 q -0.032,-0.89601 -1.12,-0.89601 -0.54401,0 -0.86401,0.23467 -0.32,0.224 -0.32,0.608 0,0.29867 0.24534,0.49067 0.24533,0.18133 0.78933,0.30933 l 0.85334,0.20267 q 0.832,0.20267 1.20533,0.576 0.37334,0.36267 0.37334,0.98134 0,0.81067 -0.62934,1.29067 -0.61866,0.48 -1.67467,0.48 -2.16534,0 -2.22934,-1.90934 z m 9.3227,-0.832 h -4.11735 q 0.0213,0.87467 0.448,1.39734 0.43734,0.52267 1.19467,0.52267 1.08801,0 1.46134,-1.12001 h 0.896 q -0.17066,0.91734 -0.8,1.42934 -0.62933,0.512 -1.58934,0.512 -1.17333,0 -1.856,-0.78933 -0.68267,-0.80001 -0.68267,-2.17601 0,-1.376 0.69333,-2.19734 0.70401,-0.832 1.86668,-0.832 2.48534,0 2.48534,3.25334 z m -4.09602,-0.72533 h 3.14668 q 0,-0.72534 -0.43733,-1.21601 -0.43734,-0.49067 -1.10934,-0.49067 -0.672,0 -1.10934,0.46934 -0.43733,0.45867 -0.49067,1.23734 z m 7.18937,-2.36801 v 0.72533 h -0.91734 v 3.82935 q 0,0.29867 0.096,0.40533 0.10666,0.096 0.39466,0.096 0.26667,0 0.42667,-0.0427 v 0.74667 q -0.416,0.0747 -0.72533,0.0747 -0.52267,0 -0.80001,-0.23466 -0.27733,-0.22401 -0.27733,-0.65067 v -4.22402 h -0.75734 v -0.72533 h 0.75734 v -1.53601 h 0.88533 v 1.53601 z"
       id="text50"
       style="font-size:10.6667px;line-height:1em;font-family:FreeSans;-inkscape-font-specification:FreeSans;text-align:center;letter-spacing:0;word-spacing:2px;text-anchor:middle;stroke-width:4"
       aria-label="set" />
    <path
       d="m 239.11796,105.742 h -0.89601 q -0.0853,-0.58667 -0.42666,-0.896 -0.34134,-0.32001 -0.89601,-0.32001 -0.72533,0 -1.14133,0.59734 -0.40534,0.58667 -0.40534,1.632 0,0.99201 0.416,1.55734 0.416,0.56534 1.15201,0.56534 1.14133,0 1.36533,-1.34401 h 0.89601 q -0.0853,1.02401 -0.68267,1.60001 -0.59734,0.56533 -1.60001,0.56533 -1.14133,0 -1.81334,-0.78933 -0.66133,-0.8 -0.66133,-2.15468 0,-1.38667 0.672,-2.21867 0.68267,-0.832 1.81334,-0.832 0.97067,0 1.54667,0.52267 0.58667,0.52267 0.66134,1.51467 z m 5.47202,3.71201 h -0.8 v -0.77867 q -0.39467,0.55467 -0.82134,0.78934 -0.42667,0.23466 -1.04534,0.23466 -0.81066,0 -1.30133,-0.416 -0.48,-0.416 -0.48,-1.10933 v -4.30935 h 0.88533 v 3.95734 q 0,0.50134 0.30934,0.80001 0.30933,0.29866 0.84267,0.29866 0.69333,0 1.10933,-0.512 0.416,-0.52266 0.416,-1.376 v -3.16801 h 0.88534 z m 1.94135,-1.66401 q 0.064,0.50134 0.34133,0.80001 0.288,0.288 1.024,0.288 0.58667,0 0.93867,-0.23467 0.36267,-0.24533 0.36267,-0.64 0,-0.30934 -0.20267,-0.49067 -0.20266,-0.18133 -0.66133,-0.288 l -0.832,-0.20267 q -0.99201,-0.23467 -1.38667,-0.58667 -0.38401,-0.36266 -0.38401,-1.024 0,-0.77867 0.58667,-1.23734 0.58667,-0.46933 1.55734,-0.46933 0.97067,0 1.49334,0.448 0.52267,0.448 0.53333,1.26934 h -0.93867 q -0.032,-0.89601 -1.12,-0.89601 -0.544,0 -0.864,0.23467 -0.32,0.224 -0.32,0.608 0,0.29867 0.24533,0.49067 0.24534,0.18134 0.78934,0.30934 l 0.85333,0.20266 q 0.83201,0.20267 1.20534,0.57601 0.37333,0.36266 0.37333,0.98133 0,0.81067 -0.62933,1.29067 -0.61867,0.48 -1.67467,0.48 -2.16534,0 -2.22934,-1.90934 z m 6.73068,-3.92534 v 0.72533 h -0.91733 v 3.82935 q 0,0.29867 0.096,0.40533 0.10666,0.096 0.39467,0.096 0.26666,0 0.42666,-0.0427 v 0.74667 q -0.416,0.0747 -0.72533,0.0747 -0.52267,0 -0.8,-0.23466 -0.27734,-0.224 -0.27734,-0.65067 v -4.22402 h -0.75733 v -0.72533 h 0.75733 v -1.53601 h 0.88534 v 1.53601 z m 3.05069,-0.16 q 1.20534,0 1.86667,0.8 0.672,0.78934 0.672,2.24001 0,1.376 -0.68267,2.16534 -0.672,0.78933 -1.84533,0.78933 -1.19468,0 -1.86668,-0.78933 -0.66133,-0.8 -0.66133,-2.20801 0,-1.408 0.672,-2.19734 0.672,-0.8 1.84534,-0.8 z m 0.0107,0.82133 q -0.74667,0 -1.17334,0.58667 -0.42667,0.576 -0.42667,1.58934 0,1.01334 0.42667,1.60001 0.42667,0.576 1.17334,0.576 0.736,0 1.16267,-0.576 0.43733,-0.58667 0.43733,-1.56801 0,-1.03467 -0.42667,-1.62134 -0.416,-0.58667 -1.17333,-0.58667 z m 3.48801,-0.66133 h 0.82134 v 0.78933 q 0.36266,-0.50133 0.75733,-0.72533 0.40534,-0.224 0.96,-0.224 1.03467,0 1.50401,0.85333 0.39467,-0.46933 0.77867,-0.66133 0.384,-0.192 0.93867,-0.192 0.77867,0 1.19467,0.40533 0.42667,0.39467 0.42667,1.15201 v 4.19201 h -0.89601 v -3.85068 q 0,-0.53333 -0.27733,-0.82133 -0.26667,-0.29867 -0.75734,-0.29867 -0.544,0 -0.928,0.42667 -0.384,0.42666 -0.384,1.03467 v 3.50934 h -0.896 v -3.85068 q 0,-0.53333 -0.27734,-0.82133 -0.26666,-0.29867 -0.75733,-0.29867 -0.544,0 -0.92801,0.42667 -0.384,0.42666 -0.384,1.03467 v 3.50934 h -0.896 z m 16.82672,0 v 5.58935 h -0.88534 v -4.86402 h -1.49334 v 4.86402 h -0.88533 v -4.86402 h -0.74667 v -0.72533 h 0.74667 v -0.94934 q 0,-0.59733 0.34133,-0.928 0.352,-0.34133 0.97067,-0.34133 h 1.90934 v 1.088 q 0,0 -0.736,0 -0.032,-0.0853 -0.43734,-0.192 -0.39466,-0.11734 -0.544,-0.11734 -0.61867,0 -0.61867,0.56534 v 0.87467 h 1.49334 0.0853 z m 2.304,-2.18667 v 7.77602 h -0.89601 v -7.77602 z m 3.52001,2.18667 v 0.72533 h -0.91733 v 3.82935 q 0,0.29867 0.096,0.40533 0.10666,0.096 0.39467,0.096 0.26666,0 0.42666,-0.0427 v 0.74667 q -0.416,0.0747 -0.72533,0.0747 -0.52267,0 -0.8,-0.23466 -0.27734,-0.224 -0.27734,-0.65067 v -4.22402 h -0.75733 v -0.72533 h 0.75733 v -1.53601 h 0.88534 v 1.53601 z m 5.57869,3.09334 h -4.11734 q 0.0213,0.87467 0.448,1.39734 0.43733,0.52267 1.19467,0.52267 1.088,0 1.46134,-1.12001 h 0.896 q -0.17067,0.91734 -0.8,1.42934 -0.62934,0.512 -1.58934,0.512 -1.17334,0 -1.85601,-0.78933 -0.68266,-0.8 -0.68266,-2.17601 0,-1.376 0.69333,-2.19734 0.704,-0.832 1.86667,-0.832 2.48534,0 2.48534,3.25334 z m -4.09601,-0.72533 h 3.14668 q 0,-0.72534 -0.43734,-1.21601 -0.43733,-0.49067 -1.10933,-0.49067 -0.67201,0 -1.10934,0.46934 -0.43734,0.45867 -0.49067,1.23734 z m 7.74403,-1.58934 q -0.896,0.0213 -1.344,0.416 -0.448,0.39467 -0.448,1.49334 v 2.90134 h -0.896 v -5.58935 h 0.82133 v 1.01334 q 0.384,-0.62934 0.736,-0.89601 0.36267,-0.27733 0.78934,-0.27733 0.11733,0 0.34133,0.032 z"
       id="text51"
       style="font-size:10.6667px;line-height:1em;font-family:FreeSans;-inkscape-font-specification:FreeSans;text-align:center;letter-spacing:0;word-spacing:2px;text-anchor:middle;stroke-width:4"
       aria-label="custom filter" />
    <path
       d="m 37.655487,82.484843 q -0.896003,0.02133 -1.344004,0.416001 -0.448002,0.394668 -0.448002,1.493338 v 2.901343 h -0.896002 v -5.589351 h 0.821335 v 1.013336 q 0.384002,-0.629335 0.736003,-0.896003 0.362668,-0.277334 0.789336,-0.277334 0.117333,0 0.341334,0.032 z m 5.578692,2.314674 h -4.117346 q 0.02133,0.874669 0.448001,1.397337 0.437335,0.522669 1.194671,0.522669 1.088003,0 1.461338,-1.120004 h 0.896002 q -0.170667,0.917336 -0.800002,1.429338 -0.629335,0.512002 -1.589339,0.512002 -1.173337,0 -1.856005,-0.789336 -0.682669,-0.800003 -0.682669,-2.176007 0,-1.376004 0.693335,-2.19734 0.704003,-0.832003 1.866673,-0.832003 2.485341,0 2.485341,3.253344 z m -4.096013,-0.725336 h 3.146677 q 0,-0.725336 -0.437335,-1.216004 -0.437335,-0.490668 -1.109337,-0.490668 -0.672002,0 -1.109337,0.469335 -0.437334,0.458668 -0.490668,1.237337 z m 9.738707,5.546684 h -0.885336 v -2.965342 q -0.608002,0.885336 -1.728005,0.885336 -1.109337,0 -1.749339,-0.789336 -0.640002,-0.789336 -0.640002,-2.144007 0,-1.386671 0.661335,-2.218674 0.661336,-0.842669 1.770672,-0.842669 1.141337,0 1.781339,0.90667 v -0.746669 h 0.789336 z m -2.442674,-7.242689 q -0.736003,0 -1.184004,0.597335 -0.448001,0.597335 -0.448001,1.568005 0,0.981336 0.448001,1.578672 0.448001,0.586668 1.184004,0.586668 0.704002,0 1.13067,-0.586668 0.426668,-0.586669 0.426668,-1.546672 0,-1.00267 -0.426668,-1.600005 -0.416001,-0.597335 -1.13067,-0.597335 z M 54.83956,79.5195 v 7.776025 h -0.789336 v -0.736003 q -0.362668,0.522669 -0.789336,0.746669 -0.416001,0.234668 -0.992003,0.234668 -1.13067,0 -1.781339,-0.81067 -0.650669,-0.821335 -0.650669,-2.240007 0,-1.333337 0.650669,-2.13334 0.661335,-0.810669 1.749339,-0.810669 1.152003,0 1.717339,0.864003 V 79.5195 Z m -2.453341,2.858676 q -0.725336,0 -1.173337,0.597335 -0.448002,0.597335 -0.448002,1.568005 0,0.981336 0.448002,1.578672 0.448001,0.586668 1.184003,0.586668 0.704003,0 1.130671,-0.586668 0.426668,-0.586669 0.426668,-1.557339 0,-1.00267 -0.426668,-1.589338 -0.426668,-0.597335 -1.141337,-0.597335 z m 3.658677,0.981336 q 0.064,-1.813339 2.240007,-1.813339 1.03467,0 1.568005,0.394668 0.533335,0.384001 0.533335,1.13067 v 3.285344 q 0,0.437335 0.480002,0.437335 0.096,0 0.192,-0.02133 v 0.672002 q -0.373334,0.096 -0.608002,0.096 -0.426668,0 -0.650669,-0.202668 -0.213334,-0.192 -0.266667,-0.618668 -0.896003,0.821336 -1.898673,0.821336 -0.842669,0 -1.344004,-0.448002 -0.490668,-0.448001 -0.490668,-1.205337 0,-0.245334 0.04267,-0.448001 0.05333,-0.202668 0.106667,-0.352001 0.064,-0.160001 0.213334,-0.288001 0.149333,-0.138667 0.245334,-0.224001 0.106667,-0.08533 0.341334,-0.160001 0.245334,-0.08533 0.373335,-0.117333 0.128,-0.04267 0.448001,-0.096 0.320001,-0.05333 0.469335,-0.07467 0.149334,-0.02133 0.533335,-0.07467 0.522668,-0.064 0.725336,-0.202668 0.202667,-0.138667 0.202667,-0.416001 v -0.234667 q 0,-0.405335 -0.330668,-0.618669 -0.320001,-0.213334 -0.917336,-0.213334 -0.618669,0 -0.93867,0.245334 -0.320001,0.234668 -0.373334,0.746669 z m 1.781339,3.402678 q 0.736002,0 1.205337,-0.384002 0.469335,-0.394668 0.469335,-0.842669 v -1.00267 q -0.266668,0.128001 -0.810669,0.213334 -0.533335,0.08533 -0.928003,0.149334 -0.394668,0.064 -0.714669,0.309334 -0.320001,0.234668 -0.320001,0.661336 0,0.426668 0.288001,0.661335 0.288001,0.234668 0.810669,0.234668 z m 6.218679,-5.056016 v 0.725335 h -0.917336 v 3.829346 q 0,0.298667 0.096,0.405334 0.106667,0.096 0.394668,0.096 0.266668,0 0.426668,-0.04267 v 0.746669 q -0.416001,0.07467 -0.725335,0.07467 -0.522669,0 -0.800003,-0.234668 -0.277334,-0.224 -0.277334,-0.650668 v -4.224014 h -0.757336 v -0.725335 h 0.757336 v -1.536005 h 0.885336 v 1.536005 z m 0.778676,1.653338 q 0.064,-1.813339 2.240007,-1.813339 1.03467,0 1.568005,0.394668 0.533335,0.384001 0.533335,1.13067 v 3.285344 q 0,0.437335 0.480002,0.437335 0.096,0 0.192,-0.02133 v 0.672002 q -0.373334,0.096 -0.608002,0.096 -0.426668,0 -0.650668,-0.202668 -0.213334,-0.192 -0.266668,-0.618668 -0.896003,0.821336 -1.898673,0.821336 -0.842669,0 -1.344004,-0.448002 -0.490668,-0.448001 -0.490668,-1.205337 0,-0.245334 0.04267,-0.448001 0.05333,-0.202668 0.106667,-0.352001 0.064,-0.160001 0.213334,-0.288001 0.149334,-0.138667 0.245334,-0.224001 0.106667,-0.08533 0.341334,-0.160001 0.245334,-0.08533 0.373335,-0.117333 0.128,-0.04267 0.448001,-0.096 0.320001,-0.05333 0.469335,-0.07467 0.149334,-0.02133 0.533335,-0.07467 0.522668,-0.064 0.725336,-0.202668 0.202667,-0.138667 0.202667,-0.416001 v -0.234667 q 0,-0.405335 -0.330668,-0.618669 -0.320001,-0.213334 -0.917336,-0.213334 -0.618669,0 -0.93867,0.245334 -0.320001,0.234668 -0.373334,0.746669 z m 1.781339,3.402678 q 0.736002,0 1.205337,-0.384002 0.469335,-0.394668 0.469335,-0.842669 v -1.00267 q -0.266667,0.128001 -0.810669,0.213334 -0.533335,0.08533 -0.928003,0.149334 -0.394668,0.064 -0.714669,0.309334 -0.320001,0.234668 -0.320001,0.661336 0,0.426668 0.288001,0.661335 0.288001,0.234668 0.810669,0.234668 z"
       id="text52"
       style="font-size:10.6667px;line-height:1em;font-family:FreeSans;-inkscape-font-specification:FreeSans;letter-spacing:0;word-spacing:2px;fill:#e0e0e0;stroke-width:4"
       transform="rotate(14.882)"
       aria-label="reqdata" />
    <path
       d="m -23.353396,124.74807 q 1.205337,0 1.866672,0.8 0.672002,0.78934 0.672002,2.24001 0,1.376 -0.682669,2.16534 -0.672002,0.78934 -1.845339,0.78934 -1.19467,0 -1.866672,-0.78934 -0.661336,-0.8 -0.661336,-2.20801 0,-1.408 0.672002,-2.19734 0.672003,-0.8 1.84534,-0.8 z m 0.01067,0.82134 q -0.746669,0 -1.173337,0.58666 -0.426668,0.57601 -0.426668,1.58934 0,1.01334 0.426668,1.60001 0.426668,0.576 1.173337,0.576 0.736003,0 1.162671,-0.576 0.437334,-0.58667 0.437334,-1.56801 0,-1.03467 -0.426668,-1.62134 -0.416001,-0.58666 -1.173337,-0.58666 z m 3.488015,-2.84801 h 0.885337 v 2.94401 q 0.608001,-0.91734 1.728005,-0.91734 1.109337,0 1.749339,0.78934 0.640002,0.78933 0.640002,2.144 0,1.38667 -0.661336,2.22934 -0.661335,0.83201 -1.770672,0.83201 -1.141337,0 -1.770672,-0.96001 v 0.71467 h -0.800003 z m 2.442675,2.85867 q -0.704002,0 -1.13067,0.59734 -0.426668,0.58667 -0.426668,1.568 0,0.98134 0.426668,1.57867 0.426668,0.58667 1.13067,0.58667 0.725335,0 1.173337,-0.58667 0.458668,-0.59733 0.458668,-1.54667 0,-1.00267 -0.448001,-1.6 -0.437335,-0.59734 -1.184004,-0.59734 z m 3.818679,-0.672 h 0.885336 v 6.75202 q 0,1.16267 -1.525338,1.16267 -0.138668,0 -0.298668,-0.032 v -0.75733 q 0.128,0.0213 0.245334,0.0213 0.384001,0 0.533335,-0.17067 0.160001,-0.16 0.160001,-0.576 z m 0.885336,-2.18667 v 1.12 h -0.885336 v -1.12 z m 6.1333528,5.28001 h -4.1173468 q 0.02133,0.87467 0.448002,1.39734 0.4373346,0.52267 1.1946703,0.52267 1.0880035,0 1.461338,-1.12 h 0.8960028 q -0.1706672,0.91733 -0.8000025,1.42933 -0.6293353,0.51201 -1.5893384,0.51201 -1.1733372,0 -1.8560062,-0.78934 -0.682668,-0.8 -0.682668,-2.17601 0,-1.376 0.693335,-2.19734 0.704002,-0.832 1.8666726,-0.832 2.4853412,0 2.4853412,3.25334 z m -4.0960128,-0.72533 h 3.1466765 q 0,-0.72534 -0.4373347,-1.21601 -0.4373347,-0.49066 -1.1093369,-0.49066 -0.6720021,0 -1.1093369,0.46933 -0.437335,0.45867 -0.490668,1.23734 z m 9.4293726,-0.49067 h -0.8960028 q -0.085334,-0.58667 -0.426668,-0.896 -0.3413344,-0.32 -0.8960029,-0.32 -0.7253356,0 -1.1413369,0.59733 -0.4053346,0.58667 -0.4053346,1.63201 0,0.992 0.4160013,1.55733 0.4160013,0.56534 1.1520036,0.56534 1.141337,0 1.3653377,-1.344 h 0.8960028 q -0.085334,1.024 -0.6826688,1.6 -0.5973352,0.56534 -1.6000051,0.56534 -1.1413369,0 -1.813339,-0.78934 -0.6613354,-0.8 -0.6613354,-2.15467 0,-1.38667 0.6720021,-2.21868 0.6826688,-0.832 1.813339,-0.832 0.9706698,0 1.5466716,0.52267 0.5866685,0.52267 0.6613354,1.51467 z m 3.157349,-1.87734 v 0.72534 H 0.99870034 v 3.82934 q 0,0.29867 0.0960003,0.40534 0.106667,0.096 0.394668,0.096 0.2666675,0 0.426668,-0.0427 v 0.74667 q -0.4160013,0.0747 -0.7253357,0.0747 -0.52266811,0 -0.80000232,-0.23467 -0.27733421,-0.224 -0.27733421,-0.65067 v -4.22401 H -0.6439714 v -0.72534 h 0.75733573 v -1.536 h 0.88533613 v 1.536 z"
       id="text53"
       style="font-size:10.6667px;line-height:1em;font-family:FreeSans;-inkscape-font-specification:FreeSans;letter-spacing:0;word-spacing:2px;fill:#e0e0e0;stroke-width:4"
       transform="rotate(-18.884)"
       aria-label="object" />
    <path
       d="m 331.90634,103.83267 h -0.97067 L 328.973,98.243321 h 1.00267 l 1.49334,4.533349 1.57867,-4.533349 h 1.00267 z m 2.81601,-3.93601 q 0.064,-1.813339 2.24001,-1.813339 1.03467,0 1.56801,0.394668 0.53333,0.384001 0.53333,1.13067 V 102.894 q 0,0.43734 0.48,0.43734 0.096,0 0.192,-0.0213 v 0.67201 q -0.37333,0.096 -0.608,0.096 -0.42667,0 -0.65067,-0.20267 -0.21333,-0.192 -0.26666,-0.61867 -0.89601,0.82134 -1.89868,0.82134 -0.84267,0 -1.344,-0.44801 -0.49067,-0.448 -0.49067,-1.20533 0,-0.24534 0.0427,-0.448 0.0533,-0.20267 0.10666,-0.352 0.064,-0.16001 0.21334,-0.28801 0.14933,-0.13866 0.24533,-0.224 0.10667,-0.0853 0.34134,-0.16 0.24533,-0.0853 0.37333,-0.11733 0.128,-0.0427 0.448,-0.096 0.32,-0.0533 0.46934,-0.0747 0.14933,-0.0213 0.53333,-0.0747 0.52267,-0.064 0.72534,-0.20267 0.20267,-0.13867 0.20267,-0.416003 v -0.234668 q 0,-0.405334 -0.33067,-0.618668 -0.32,-0.213334 -0.91734,-0.213334 -0.61867,0 -0.93867,0.245334 -0.32,0.234667 -0.37333,0.746669 z m 1.78134,3.40268 q 0.73601,0 1.20534,-0.384 0.46934,-0.39467 0.46934,-0.84267 V 101.07 q -0.26667,0.128 -0.81067,0.21333 -0.53334,0.0853 -0.92801,0.14933 -0.39466,0.064 -0.71467,0.30934 -0.32,0.23467 -0.32,0.66133 0,0.42667 0.288,0.66134 0.28801,0.23467 0.81067,0.23467 z m 4.98134,-7.242692 v 7.776022 h -0.896 v -7.776022 z m 5.8347,7.776022 h -0.80001 V 103.054 q -0.39466,0.55467 -0.82133,0.78934 -0.42667,0.23467 -1.04534,0.23467 -0.81067,0 -1.30134,-0.41601 -0.48,-0.416 -0.48,-1.10933 v -4.309349 h 0.88534 v 3.957349 q 0,0.50133 0.30933,0.8 0.30934,0.29867 0.84267,0.29867 0.69334,0 1.10934,-0.512 0.416,-0.52267 0.416,-1.37601 v -3.168009 h 0.88534 z m 6.00536,-2.49601 h -4.11735 q 0.0213,0.87467 0.448,1.39734 0.43734,0.52267 1.19467,0.52267 1.08801,0 1.46134,-1.12 h 0.896 q -0.17066,0.91733 -0.8,1.42933 -0.62934,0.51201 -1.58934,0.51201 -1.17334,0 -1.856,-0.78934 -0.68267,-0.8 -0.68267,-2.17601 0,-1.376001 0.69333,-2.197337 0.704,-0.832002 1.86667,-0.832002 2.48535,0 2.48535,3.253339 z m -4.09602,-0.72533 h 3.14668 q 0,-0.725337 -0.43733,-1.216005 -0.43734,-0.490668 -1.10934,-0.490668 -0.672,0 -1.10934,0.469334 -0.43733,0.458668 -0.49067,1.237339 z"
       id="text54"
       style="font-size:10.6667px;line-height:1em;font-family:FreeSans;-inkscape-font-specification:FreeSans;letter-spacing:0;word-spacing:2px;fill:#e0e0e0;stroke-width:4"
       aria-label="value" />
    <path
       d="m 171.90636,103.83267 h -0.97067 l -1.96267,-5.589349 h 1.00267 l 1.49333,4.533349 1.57867,-4.533349 h 1.00267 z m 2.81601,-3.93601 q 0.064,-1.813339 2.24001,-1.813339 1.03467,0 1.568,0.394668 0.53334,0.384001 0.53334,1.13067 V 102.894 q 0,0.43734 0.48,0.43734 0.096,0 0.192,-0.0213 v 0.67201 q -0.37334,0.096 -0.608,0.096 -0.42667,0 -0.65067,-0.20267 -0.21334,-0.192 -0.26667,-0.61867 -0.896,0.82134 -1.89867,0.82134 -0.84267,0 -1.34401,-0.44801 -0.49066,-0.448 -0.49066,-1.20533 0,-0.24534 0.0427,-0.448 0.0533,-0.20267 0.10667,-0.352 0.064,-0.16001 0.21333,-0.28801 0.14934,-0.13866 0.24534,-0.224 0.10666,-0.0853 0.34133,-0.16 0.24534,-0.0853 0.37334,-0.11733 0.128,-0.0427 0.448,-0.096 0.32,-0.0533 0.46933,-0.0747 0.14934,-0.0213 0.53334,-0.0747 0.52267,-0.064 0.72533,-0.20267 0.20267,-0.13867 0.20267,-0.416003 v -0.234668 q 0,-0.405334 -0.33067,-0.618668 -0.32,-0.213334 -0.91733,-0.213334 -0.61867,0 -0.93867,0.245334 -0.32,0.234667 -0.37334,0.746669 z m 1.78134,3.40268 q 0.736,0 1.20534,-0.384 0.46933,-0.39467 0.46933,-0.84267 V 101.07 q -0.26667,0.128 -0.81067,0.21333 -0.53333,0.0853 -0.928,0.14933 -0.39467,0.064 -0.71467,0.30934 -0.32,0.23467 -0.32,0.66133 0,0.42667 0.288,0.66134 0.288,0.23467 0.81067,0.23467 z m 4.98134,-7.242692 v 7.776022 h -0.896 v -7.776022 z m 5.83469,7.776022 h -0.8 V 103.054 q -0.39467,0.55467 -0.82134,0.78934 -0.42666,0.23467 -1.04533,0.23467 -0.81067,0 -1.30134,-0.41601 -0.48,-0.416 -0.48,-1.10933 v -4.309349 h 0.88533 v 3.957349 q 0,0.50133 0.30934,0.8 0.30933,0.29867 0.84267,0.29867 0.69333,0 1.10934,-0.512 0.416,-0.52267 0.416,-1.37601 v -3.168009 h 0.88533 z m 6.00536,-2.49601 h -4.11734 q 0.0213,0.87467 0.448,1.39734 0.43733,0.52267 1.19467,0.52267 1.088,0 1.46133,-1.12 h 0.89601 q -0.17067,0.91733 -0.8,1.42933 -0.62934,0.51201 -1.58934,0.51201 -1.17334,0 -1.85601,-0.78934 -0.68267,-0.8 -0.68267,-2.17601 0,-1.376001 0.69334,-2.197337 0.704,-0.832002 1.86667,-0.832002 2.48534,0 2.48534,3.253339 z m -4.09601,-0.72533 h 3.14668 q 0,-0.725337 -0.43734,-1.216005 -0.43733,-0.490668 -1.10934,-0.490668 -0.672,0 -1.10933,0.469334 -0.43734,0.458668 -0.49067,1.237339 z"
       id="text55"
       style="font-size:10.6667px;line-height:1em;font-family:FreeSans;-inkscape-font-specification:FreeSans;letter-spacing:0;word-spacing:2px;fill:#e0e0e0;stroke-width:4"
       aria-label="value" />
    <g
       stroke="#000000"
       stroke-miterlimit="10"
       id="g56"
       transform="translate(-103.34966,74.195675)"
       style="stroke:#e0e0e0;stroke-opacity:1">
      <path
         fill="none"
         d="m 578.5,32.5 h 63.63"
         pointer-events="stroke"
         id="path55"
         style="stroke:#e0e0e0;stroke-opacity:1" />
      <path
         d="m 647.38,32.5 -7,3.5 1.75,-3.5 -1.75,-3.5 z"
         pointer-events="all"
         id="path56"
         style="stroke:#e0e0e0;stroke-opacity:1" />
    </g>
    <path
       d="m 500.90634,103.83267 h -0.97067 L 497.973,98.243321 h 1.00267 l 1.49334,4.533349 1.57867,-4.533349 h 1.00267 z m 2.81601,-3.93601 q 0.064,-1.813339 2.24001,-1.813339 1.03467,0 1.56801,0.394668 0.53333,0.384001 0.53333,1.13067 V 102.894 q 0,0.43734 0.48,0.43734 0.096,0 0.192,-0.0213 v 0.67201 q -0.37333,0.096 -0.608,0.096 -0.42667,0 -0.65067,-0.20267 -0.21333,-0.192 -0.26666,-0.61867 -0.89601,0.82134 -1.89868,0.82134 -0.84267,0 -1.344,-0.44801 -0.49067,-0.448 -0.49067,-1.20533 0,-0.24534 0.0427,-0.448 0.0533,-0.20267 0.10666,-0.352 0.064,-0.16001 0.21334,-0.28801 0.14933,-0.13866 0.24533,-0.224 0.10667,-0.0853 0.34134,-0.16 0.24533,-0.0853 0.37333,-0.11733 0.128,-0.0427 0.448,-0.096 0.32,-0.0533 0.46934,-0.0747 0.14933,-0.0213 0.53333,-0.0747 0.52267,-0.064 0.72534,-0.20267 0.20267,-0.13867 0.20267,-0.416003 v -0.234668 q 0,-0.405334 -0.33067,-0.618668 -0.32,-0.213334 -0.91734,-0.213334 -0.61867,0 -0.93867,0.245334 -0.32,0.234667 -0.37333,0.746669 z m 1.78134,3.40268 q 0.73601,0 1.20534,-0.384 0.46934,-0.39467 0.46934,-0.84267 V 101.07 q -0.26667,0.128 -0.81067,0.21333 -0.53334,0.0853 -0.92801,0.14933 -0.39466,0.064 -0.71467,0.30934 -0.32,0.23467 -0.32,0.66133 0,0.42667 0.288,0.66134 0.28801,0.23467 0.81067,0.23467 z m 4.98134,-7.242692 v 7.776022 h -0.896 v -7.776022 z m 5.8347,7.776022 h -0.80001 V 103.054 q -0.39466,0.55467 -0.82133,0.78934 -0.42667,0.23467 -1.04534,0.23467 -0.81067,0 -1.30134,-0.41601 -0.48,-0.416 -0.48,-1.10933 v -4.309349 h 0.88534 v 3.957349 q 0,0.50133 0.30933,0.8 0.30934,0.29867 0.84267,0.29867 0.69334,0 1.10934,-0.512 0.416,-0.52267 0.416,-1.37601 v -3.168009 h 0.88534 z m 6.00536,-2.49601 h -4.11735 q 0.0213,0.87467 0.448,1.39734 0.43734,0.52267 1.19467,0.52267 1.08801,0 1.46134,-1.12 h 0.896 q -0.17066,0.91733 -0.8,1.42933 -0.62934,0.51201 -1.58934,0.51201 -1.17334,0 -1.856,-0.78934 -0.68267,-0.8 -0.68267,-2.17601 0,-1.376001 0.69333,-2.197337 0.704,-0.832002 1.86667,-0.832002 2.48535,0 2.48535,3.253339 z m -4.09602,-0.72533 h 3.14668 q 0,-0.725337 -0.43733,-1.216005 -0.43734,-0.490668 -1.10934,-0.490668 -0.672,0 -1.10934,0.469334 -0.43733,0.458668 -0.49067,1.237339 z"
       id="text56"
       style="font-size:10.6667px;line-height:1em;font-family:FreeSans;-inkscape-font-specification:FreeSans;letter-spacing:0;word-spacing:2px;fill:#e0e0e0;stroke-width:4"
       aria-label="value" />
  </g>
</svg>
