<svg xmlns="http://www.w3.org/2000/svg" width="2027" height="348"><path d="M0 0h2027v348H0z" style="fill:#f9f9f9;fill-opacity:.80000001;stroke-width:4"/><path fill="#060606" d="M0 0h168v19h17v27h-4V23h-13v2h11v21h-4V29h-7v17H0V0Z" style="fill:#1a1a1a" transform="translate(1774 233)"/><path fill="#060606" d="M0 0h168v19h17v27h-4V23h-13v2h11v21h-4V29h-7v17H0V0Z" style="fill:#1a1a1a" transform="translate(1582 233)"/><path fill="#060606" d="M0 0h168v19h17v27h-4V23h-13v2h11v21h-4V29h-7v17H0V0Z" style="fill:#1a1a1a" transform="translate(1774 29)"/><path fill="#060606" d="M70 29h168v19h17v27h-4V52h-13v2h11v21h-4V58h-7v17H70V29z" style="fill:#1a1a1a"/><path fill="#030303" d="M0 0h168v46H0V0Z" style="fill:#1a1a1a" transform="translate(1198 131)"/><path fill="#060606" d="M0 0h4v25h13v-2l-2.152.035c-.92.01-1.839.018-2.786.027l-2.777.036C7 23 7 23 6 22a83.431 83.431 0 0 1-.098-4.91l.01-2.998.026-3.155.013-3.166C5.963 5.181 5.98 2.591 6 0h4v19h7V0h144v46H17V29H0V0Z" style="fill:#1a1a1a" transform="translate(269 233)"/><path fill="#060606" d="M0 0h144v19h17v27h-4V23h-13v2h11v21h-4V29h-7v17H0V0Z" style="fill:#1a1a1a" transform="translate(1390 29)"/><path fill="#060606" d="M0 0h144v19h17v27h-4V23h-13v2h11v21h-4V29h-7v17H0V0Z" style="fill:#1a1a1a" transform="translate(1006 29)"/><path fill="#060606" d="M0 0h144v19h17v27h-4V23h-13v2h11v21h-4V29h-7v17H0V0Z" style="fill:#1a1a1a" transform="translate(478 29)"/><path fill="#060606" d="M0 0h144v19h17v27h-4V23h-13v2h11v21h-4V29h-7v17H0V0Z" style="fill:#1a1a1a" transform="translate(286 29)"/><path fill="#030303" d="M0 0h144v46H0V0Z" style="fill:#1a1a1a" transform="translate(1390 233)"/><path fill="#030303" d="M0 0h144v46H0V0Z" style="fill:#1a1a1a" transform="translate(1006 233)"/><path fill="#030303" d="M0 0h144v46H0V0Z" style="fill:#1a1a1a" transform="translate(1390 131)"/><path fill="#030303" d="M0 0h144v46H0V0Z" style="fill:#1a1a1a" transform="translate(478 131)"/><path fill="#060606" d="M0 0h120v19h17v27h-4V23h-13v2h11v21h-4V29h-7v17H0V0Z" style="fill:#1a1a1a" transform="translate(1774 131)"/><path fill="#060606" d="M70 131h120v19h17v27h-4v-23h-13v2h11v21h-4v-17h-7v17H70v-46z" style="fill:#1a1a1a"/><path fill="#060606" d="M0 0h120v19h17v27h-4V23h-13v2h11v21h-4V29h-7v17H0V0Z" style="fill:#1a1a1a" transform="translate(1222 29)"/><path fill="#070707" d="M0 0h96v46H0V29h-7v17h-4V25H0v-2h-13v23h-4V19H0V0Z" style="fill:#1a1a1a" transform="translate(742 131)"/><path fill="#070707" d="M0 0h96v19h17v27h-4V23H96v2h11v21h-4V29h-7v17H0V0Z" style="fill:#1a1a1a" transform="translate(670 80)"/><path fill="#030303" d="M0 0h96v46H0V0Z" style="fill:#1a1a1a" transform="translate(814 80)"/><path fill="#080808" d="M0 0h72v19h17v27h-4V23H72v2h11v21h-4V29h-7v17H0V0Z" style="fill:#1a1a1a" transform="translate(838 29)"/><path fill="#080808" d="M0 0h72v19h17v27h-4V23H72v2h11v21h-4V29h-7v17H0V0Z" style="fill:#1a1a1a" transform="translate(670 29)"/><path fill="#1A1A1A" d="M0 0h48v19h17v27h-4V23H48v2h11v21h-4V29h-7v17H0V29h-79v17h-4V25H0v-2h-85v23h-4V19H0V0Z" style="fill:#1a1a1a" transform="translate(406 80)"/><path fill="#171717" d="M0 0h48v19h17v27h-4V23H48v2h11v21h-4V29h-7v17H0V29h-55v17h-4V25H0v-2h-61v23h-4V19H0V0Z" style="fill:#1a1a1a" transform="translate(1510 182)"/><path fill="#171717" d="M0 0h48v19h17v27h-4V23H48v2h11v21h-4V29h-7v17H0V29h-55v17h-4V25H0v-2h-61v23h-4V19H0V0Z" style="fill:#1a1a1a" transform="translate(598 182)"/><path fill="#171717" d="M0 0h48v19h17v27h-4V23H48v2h11v21h-4V29h-7v17H0V29h-55v17h-4V25H0v-2h-61v23h-4V19H0V0Z" style="fill:#1a1a1a" transform="translate(1510 80)"/><path fill="#171717" d="M0 0h48v19h17v27h-4V23H48v2h11v21h-4V29h-7v17H0V29h-55v17h-4V25H0v-2h-61v23h-4V19H0V0Z" style="fill:#1a1a1a" transform="translate(1318 80)"/><path fill="#171717" d="M0 0h48v19h17v27h-4V23H48v2h11v21h-4V29h-7v17H0V29h-55v17h-4V25H0v-2h-61v23h-4V19H0V0Z" style="fill:#1a1a1a" transform="translate(1126 80)"/><path fill="#171717" d="M0 0h48v19h17v27h-4V23H48v2h11v21h-4V29h-7v17H0V29h-55v17h-4V25H0v-2h-61v23h-4V19H0V0Z" style="fill:#1a1a1a" transform="translate(598 80)"/><path fill="#121212" d="M0 0h48v46H0V29h-55v17h-4V25H0v-2h-61v23h-4V19H0V0Z" style="fill:#1a1a1a" transform="translate(1318 182)"/><path fill="#0C0C0C" d="M0 0h4v25h13v-2l-2.152.035c-.92.01-1.839.018-2.786.027l-2.777.036C7 23 7 23 6 22a83.431 83.431 0 0 1-.098-4.91l.01-2.998.026-3.155.013-3.166C5.963 5.181 5.98 2.591 6 0h4v19h7V0h48v46H17V29H0V0Z" style="fill:#1a1a1a" transform="translate(749 182)"/><path fill="#0B0B0B" d="M0 0h48v46H0V29h-7v17h-4V25H0v-2h-13v23h-4V19H0V0Z" style="fill:#1a1a1a" transform="translate(862 131)"/><path fill="#0B0B0B" d="M0 0h48v19h17v27h-4V23H48v2h11v21h-4V29h-7v17H0V0Z" style="fill:#1a1a1a" transform="translate(1582 29)"/><path fill="#0B0B0B" d="M0 0h48v19h17v27h-4V23H48v2h11v21h-4V29h-7v17H0V0Z" style="fill:#1a1a1a" transform="translate(934 29)"/><path fill="#030303" d="M0 0h48v46H0V0Z" style="fill:#1a1a1a" transform="translate(1318 233)"/><path fill="#030303" d="M0 0h48v46H0V0Z" style="fill:#1a1a1a" transform="translate(1198 233)"/><path fill="#030303" d="M0 0h48v46H0V0Z" style="fill:#1a1a1a" transform="translate(934 233)"/><path fill="#030303" d="M0 0h48v46H0V0Z" style="fill:#1a1a1a" transform="translate(862 233)"/><path fill="#030303" d="M0 0h48v46H0V0Z" style="fill:#1a1a1a" transform="translate(670 233)"/><path fill="#030303" d="M0 0h48v46H0V0Z" style="fill:#1a1a1a" transform="translate(598 233)"/><path fill="#030303" d="M0 0h48v46H0V0Z" style="fill:#1a1a1a" transform="translate(478 233)"/><path fill="#030303" d="M0 0h48v46H0V0Z" style="fill:#1a1a1a" transform="translate(70 233)"/><path fill="#030303" d="M0 0h48v46H0V0Z" style="fill:#1a1a1a" transform="translate(1774 182)"/><path fill="#030303" d="M0 0h48v46H0V0Z" style="fill:#1a1a1a" transform="translate(1582 182)"/><path fill="#030303" d="M0 0h48v46H0V0Z" style="fill:#1a1a1a" transform="translate(1390 182)"/><path fill="#030303" d="M0 0h48v46H0V0Z" style="fill:#1a1a1a" transform="translate(1198 182)"/><path fill="#030303" d="M0 0h48v46H0V0Z" style="fill:#1a1a1a" transform="translate(1126 182)"/><path fill="#030303" d="M0 0h48v46H0V0Z" style="fill:#1a1a1a" transform="translate(1006 182)"/><path fill="#030303" d="M0 0h48v46H0V0Z" style="fill:#1a1a1a" transform="translate(934 182)"/><path fill="#030303" d="M0 0h48v46H0V0Z" style="fill:#1a1a1a" transform="translate(862 182)"/><path fill="#030303" d="M0 0h48v46H0V0Z" style="fill:#1a1a1a" transform="translate(670 182)"/><path fill="#030303" d="M0 0h48v46H0V0Z" style="fill:#1a1a1a" transform="translate(478 182)"/><path fill="#030303" d="M0 0h48v46H0V0Z" style="fill:#1a1a1a" transform="translate(406 182)"/><path fill="#030303" d="M0 0h48v46H0V0Z" style="fill:#1a1a1a" transform="translate(262 182)"/><path fill="#030303" d="M0 0h48v46H0V0Z" style="fill:#1a1a1a" transform="translate(70 182)"/><path fill="#030303" d="M0 0h48v46H0V0Z" style="fill:#1a1a1a" transform="translate(1582 131)"/><path fill="#030303" d="M0 0h48v46H0V0Z" style="fill:#1a1a1a" transform="translate(1126 131)"/><path fill="#030303" d="M0 0h48v46H0V0Z" style="fill:#1a1a1a" transform="translate(1006 131)"/><path fill="#030303" d="M0 0h48v46H0V0Z" style="fill:#1a1a1a" transform="translate(934 131)"/><path fill="#030303" d="M0 0h48v46H0V0Z" style="fill:#1a1a1a" transform="translate(670 131)"/><path fill="#030303" d="M0 0h48v46H0V0Z" style="fill:#1a1a1a" transform="translate(406 131)"/><path fill="#030303" d="M0 0h48v46H0V0Z" style="fill:#1a1a1a" transform="translate(262 131)"/><path fill="#030303" d="M0 0h48v46H0V0Z" style="fill:#1a1a1a" transform="translate(1774 80)"/><path fill="#030303" d="M0 0h48v46H0V0Z" style="fill:#1a1a1a" transform="translate(1582 80)"/><path fill="#030303" d="M0 0h48v46H0V0Z" style="fill:#1a1a1a" transform="translate(1390 80)"/><path fill="#030303" d="M0 0h48v46H0V0Z" style="fill:#1a1a1a" transform="translate(1198 80)"/><path fill="#030303" d="M0 0h48v46H0V0Z" style="fill:#1a1a1a" transform="translate(1006 80)"/><path fill="#030303" d="M0 0h48v46H0V0Z" style="fill:#1a1a1a" transform="translate(934 80)"/><path fill="#030303" d="M0 0h48v46H0V0Z" style="fill:#1a1a1a" transform="translate(478 80)"/><path fill="#030303" d="M0 0h48v46H0V0Z" style="fill:#1a1a1a" transform="translate(262 80)"/><path fill="#030303" d="M70 80h48v46H70V80z" style="fill:#1a1a1a"/><path fill="#919191" d="M0 0h4v25h170V0h4v29H0V0Z" style="fill:#1a1a1a" transform="translate(1781 284)"/><path fill="#919191" d="M0 0h4v25h170V0h4v29H0V0Z" style="fill:#1a1a1a" transform="translate(1589 284)"/><path fill="#919191" d="M0 0h4v25h146V0h4v29H0V0Z" style="fill:#1a1a1a" transform="translate(1397 284)"/><path fill="#919191" d="M0 0h4v25h146V0h4v29H0V0Z" style="fill:#1a1a1a" transform="translate(1013 284)"/><path fill="#919191" d="M0 0h4v25h146V0h4v29H0V0Z" style="fill:#1a1a1a" transform="translate(293 284)"/><path fill="#454546" d="M0 0h4v19h158V0h4c.029 3.646.047 7.292.063 10.938l.025 3.154.01 2.998.016 2.777C166 22 166 22 165 23c-2.111.1-4.226.126-6.34.127l-2.03.005c-2.26.004-4.521 0-6.782-.003l-4.843.006c-4.397.004-8.793.002-13.19 0-4.59-.003-9.181 0-13.772 0-7.71.003-15.421 0-23.132-.005-8.928-.005-17.856-.003-26.783.002-7.651.005-15.302.005-22.953.003-4.576-.002-9.152-.002-13.728.001-4.3.003-8.601.001-12.902-.005-1.583 0-3.167 0-4.75.002-2.152.002-4.303-.001-6.455-.006l-3.658-.001C1 23 1 23 0 22a83.431 83.431 0 0 1-.098-4.91l.01-2.998.025-3.155.014-3.166C-.037 5.181-.02 2.591 0 0Z" style="fill:#1a1a1a" transform="translate(1787 284)"/><path fill="#454546" d="M0 0h4v19h158V0h4c.029 3.646.047 7.292.063 10.938l.025 3.154.01 2.998.016 2.777C166 22 166 22 165 23c-2.111.1-4.226.126-6.34.127l-2.03.005c-2.26.004-4.521 0-6.782-.003l-4.843.006c-4.397.004-8.793.002-13.19 0-4.59-.003-9.181 0-13.772 0-7.71.003-15.421 0-23.132-.005-8.928-.005-17.856-.003-26.783.002-7.651.005-15.302.005-22.953.003-4.576-.002-9.152-.002-13.728.001-4.3.003-8.601.001-12.902-.005-1.583 0-3.167 0-4.75.002-2.152.002-4.303-.001-6.455-.006l-3.658-.001C1 23 1 23 0 22a83.431 83.431 0 0 1-.098-4.91l.01-2.998.025-3.155.014-3.166C-.037 5.181-.02 2.591 0 0Z" style="fill:#1a1a1a" transform="translate(1595 284)"/><path fill="#454547" d="M0 0h4v19h134V0h4c.029 3.646.047 7.292.063 10.938l.025 3.154.01 2.998.016 2.777C142 22 142 22 141 23c-1.807.099-3.618.126-5.428.127l-3.57.009-3.951-.007-4.134.006c-3.752.004-7.504.002-11.256 0-3.918-.003-7.836 0-11.754 0-6.58.003-13.161 0-19.742-.005-7.62-.005-15.238-.003-22.857.002-6.53.005-13.06.005-19.59.003-3.905-.002-7.81-.002-11.715.001-3.67.003-7.341.001-11.012-.005-1.998-.002-3.995.001-5.993.005l-3.57-.009-3.121-.001C1 23 1 23 0 22a83.431 83.431 0 0 1-.098-4.91l.01-2.998.025-3.155.014-3.166C-.037 5.181-.02 2.591 0 0Z" style="fill:#1a1a1a" transform="translate(1403 284)"/><path fill="#454547" d="M0 0h4v19h134V0h4c.029 3.646.047 7.292.063 10.938l.025 3.154.01 2.998.016 2.777C142 22 142 22 141 23c-1.807.099-3.618.126-5.428.127l-3.57.009-3.951-.007-4.134.006c-3.752.004-7.504.002-11.256 0-3.918-.003-7.836 0-11.754 0-6.58.003-13.161 0-19.742-.005-7.62-.005-15.238-.003-22.857.002-6.53.005-13.06.005-19.59.003-3.905-.002-7.81-.002-11.715.001-3.67.003-7.341.001-11.012-.005-1.998-.002-3.995.001-5.993.005l-3.57-.009-3.121-.001C1 23 1 23 0 22a83.431 83.431 0 0 1-.098-4.91l.01-2.998.025-3.155.014-3.166C-.037 5.181-.02 2.591 0 0Z" style="fill:#1a1a1a" transform="translate(1019 284)"/><path fill="#454547" d="M0 0h4v19h134V0h4c.029 3.646.047 7.292.063 10.938l.025 3.154.01 2.998.016 2.777C142 22 142 22 141 23c-1.807.099-3.618.126-5.428.127l-3.57.009-3.951-.007-4.134.006c-3.752.004-7.504.002-11.256 0-3.918-.003-7.836 0-11.754 0-6.58.003-13.161 0-19.742-.005-7.62-.005-15.238-.003-22.857.002-6.53.005-13.06.005-19.59.003-3.905-.002-7.81-.002-11.715.001-3.67.003-7.341.001-11.012-.005-1.998-.002-3.995.001-5.993.005l-3.57-.009-3.121-.001C1 23 1 23 0 22a83.431 83.431 0 0 1-.098-4.91l.01-2.998.025-3.155.014-3.166C-.037 5.181-.02 2.591 0 0Z" style="fill:#1a1a1a" transform="translate(299 284)"/><path fill="#909090" d="M0 0h4v29h-120v17h-4V25H0V0Z" style="fill:#1a1a1a" transform="translate(1955 80)"/><path fill="#909090" d="M251 80h4v29H135v17h-4v-21h120V80z" style="fill:#1a1a1a"/><path fill="#444446" d="M0 0h4c.029 3.646.047 7.292.063 10.938l.025 3.154.01 2.998.016 2.777C4 22 4 22 3 23a73.593 73.593 0 0 1-4.638.12l-3.038.004-3.361-.01h-3.518c-3.858 0-7.716-.009-11.574-.016l-8-.005c-6.314-.003-12.629-.011-18.944-.021-7.187-.011-14.374-.017-21.561-.022-14.789-.01-29.577-.028-44.366-.05v23h-4V19H0V0Z" style="fill:#1a1a1a" transform="translate(1949 80)"/><path fill="#444446" d="M0 0h4c.029 3.646.047 7.292.063 10.938l.025 3.154.01 2.998.016 2.777C4 22 4 22 3 23a73.593 73.593 0 0 1-4.638.12l-3.038.004-3.361-.01h-3.518c-3.858 0-7.716-.009-11.574-.016l-8-.005c-6.314-.003-12.629-.011-18.944-.021-7.187-.011-14.374-.017-21.561-.022-14.789-.01-29.577-.028-44.366-.05v23h-4V19H0V0Z" style="fill:#1a1a1a" transform="translate(245 80)"/><path fill="#919191" d="M0 0h4v29h-72v17h-4V25H0V0Z" style="fill:#1a1a1a" transform="translate(1907 182)"/><path fill="#919191" d="M0 0h4v29h-72v17h-4V25H0V0Z" style="fill:#1a1a1a" transform="translate(203 182)"/><path fill="#434345" d="M0 0h4c.029 3.646.047 7.292.063 10.938l.025 3.154.01 2.998.016 2.777C4 22 4 22 3 23c-2.209.094-4.42.117-6.631.114H-5.73c-2.3 0-4.6-.009-6.899-.016l-4.771-.005c-4.194-.003-8.388-.013-12.582-.024-4.276-.01-8.552-.015-12.829-.02-8.396-.01-16.793-.029-25.189-.049v23h-4V19H0V0Z" style="fill:#1a1a1a" transform="translate(1901 182)"/><path fill="#434345" d="M0 0h4c.029 3.646.047 7.292.063 10.938l.025 3.154.01 2.998.016 2.777C4 22 4 22 3 23c-2.209.094-4.42.117-6.631.114H-5.73c-2.3 0-4.6-.009-6.899-.016l-4.771-.005c-4.194-.003-8.388-.013-12.582-.024-4.276-.01-8.552-.015-12.829-.02-8.396-.01-16.793-.029-25.189-.049v23h-4V19H0V0Z" style="fill:#1a1a1a" transform="translate(197 182)"/><path fill="#929292" d="M0 0h4v25h50V0h4v29H0V0Z" style="fill:#1a1a1a" transform="translate(1325 284)"/><path fill="#929292" d="M0 0h4v25h50V0h4v29H0V0Z" style="fill:#1a1a1a" transform="translate(1205 284)"/><path fill="#929292" d="M0 0h4v25h50V0h4v29H0V0Z" style="fill:#1a1a1a" transform="translate(941 284)"/><path fill="#929292" d="M0 0h4v25h50V0h4v29H0V0Z" style="fill:#1a1a1a" transform="translate(869 284)"/><path fill="#929292" d="M0 0h4v25h50V0h4v29H0V0Z" style="fill:#1a1a1a" transform="translate(677 284)"/><path fill="#929292" d="M0 0h4v25h50V0h4v29H0V0Z" style="fill:#1a1a1a" transform="translate(605 284)"/><path fill="#929292" d="M0 0h4v25h50V0h4v29H0V0Z" style="fill:#1a1a1a" transform="translate(485 284)"/><path fill="#929292" d="M0 0h4v25h50V0h4v29H0V0Z" style="fill:#1a1a1a" transform="translate(77 284)"/><path fill="#929292" d="M0 0h4v25h50V0h4v29H0V0Z" style="fill:#1a1a1a" transform="translate(773 233)"/><path fill="#49494A" d="M0 0h4v19h38V0h4c.029 3.646.047 7.292.063 10.938l.025 3.154.01 2.998.016 2.777C46 22 46 22 45 23a59.124 59.124 0 0 1-4.137.13l-2.66.009-2.89-.006-2.948.003c-2.062 0-4.123-.001-6.184-.006-3.167-.005-6.334 0-9.501.007-1.998 0-3.995-.002-5.992-.004l-2.892.006-2.66-.01-2.352-.002C1 23 1 23 0 22a83.431 83.431 0 0 1-.098-4.91l.01-2.998.025-3.155.014-3.166C-.037 5.181-.02 2.591 0 0Z" style="fill:#1a1a1a" transform="translate(1331 284)"/><path fill="#49494A" d="M0 0h4v19h38V0h4c.029 3.646.047 7.292.063 10.938l.025 3.154.01 2.998.016 2.777C46 22 46 22 45 23a59.124 59.124 0 0 1-4.137.13l-2.66.009-2.89-.006-2.948.003c-2.062 0-4.123-.001-6.184-.006-3.167-.005-6.334 0-9.501.007-1.998 0-3.995-.002-5.992-.004l-2.892.006-2.66-.01-2.352-.002C1 23 1 23 0 22a83.431 83.431 0 0 1-.098-4.91l.01-2.998.025-3.155.014-3.166C-.037 5.181-.02 2.591 0 0Z" style="fill:#1a1a1a" transform="translate(1211 284)"/><path fill="#49494A" d="M0 0h4v19h38V0h4c.029 3.646.047 7.292.063 10.938l.025 3.154.01 2.998.016 2.777C46 22 46 22 45 23a59.124 59.124 0 0 1-4.137.13l-2.66.009-2.89-.006-2.948.003c-2.062 0-4.123-.001-6.184-.006-3.167-.005-6.334 0-9.501.007-1.998 0-3.995-.002-5.992-.004l-2.892.006-2.66-.01-2.352-.002C1 23 1 23 0 22a83.431 83.431 0 0 1-.098-4.91l.01-2.998.025-3.155.014-3.166C-.037 5.181-.02 2.591 0 0Z" style="fill:#1a1a1a" transform="translate(947 284)"/><path fill="#49494A" d="M0 0h4v19h38V0h4c.029 3.646.047 7.292.063 10.938l.025 3.154.01 2.998.016 2.777C46 22 46 22 45 23a59.124 59.124 0 0 1-4.137.13l-2.66.009-2.89-.006-2.948.003c-2.062 0-4.123-.001-6.184-.006-3.167-.005-6.334 0-9.501.007-1.998 0-3.995-.002-5.992-.004l-2.892.006-2.66-.01-2.352-.002C1 23 1 23 0 22a83.431 83.431 0 0 1-.098-4.91l.01-2.998.025-3.155.014-3.166C-.037 5.181-.02 2.591 0 0Z" style="fill:#1a1a1a" transform="translate(875 284)"/><path fill="#49494A" d="M0 0h4v19h38V0h4c.029 3.646.047 7.292.063 10.938l.025 3.154.01 2.998.016 2.777C46 22 46 22 45 23a59.124 59.124 0 0 1-4.137.13l-2.66.009-2.89-.006-2.948.003c-2.062 0-4.123-.001-6.184-.006-3.167-.005-6.334 0-9.501.007-1.998 0-3.995-.002-5.992-.004l-2.892.006-2.66-.01-2.352-.002C1 23 1 23 0 22a83.431 83.431 0 0 1-.098-4.91l.01-2.998.025-3.155.014-3.166C-.037 5.181-.02 2.591 0 0Z" style="fill:#1a1a1a" transform="translate(683 284)"/><path fill="#49494A" d="M0 0h4v19h38V0h4c.029 3.646.047 7.292.063 10.938l.025 3.154.01 2.998.016 2.777C46 22 46 22 45 23a59.124 59.124 0 0 1-4.137.13l-2.66.009-2.89-.006-2.948.003c-2.062 0-4.123-.001-6.184-.006-3.167-.005-6.334 0-9.501.007-1.998 0-3.995-.002-5.992-.004l-2.892.006-2.66-.01-2.352-.002C1 23 1 23 0 22a83.431 83.431 0 0 1-.098-4.91l.01-2.998.025-3.155.014-3.166C-.037 5.181-.02 2.591 0 0Z" style="fill:#1a1a1a" transform="translate(611 284)"/><path fill="#49494A" d="M0 0h4v19h38V0h4c.029 3.646.047 7.292.063 10.938l.025 3.154.01 2.998.016 2.777C46 22 46 22 45 23a59.124 59.124 0 0 1-4.137.13l-2.66.009-2.89-.006-2.948.003c-2.062 0-4.123-.001-6.184-.006-3.167-.005-6.334 0-9.501.007-1.998 0-3.995-.002-5.992-.004l-2.892.006-2.66-.01-2.352-.002C1 23 1 23 0 22a83.431 83.431 0 0 1-.098-4.91l.01-2.998.025-3.155.014-3.166C-.037 5.181-.02 2.591 0 0Z" style="fill:#1a1a1a" transform="translate(491 284)"/><path fill="#49494a" d="M83 284h4v19h38v-19h4c.029 3.646.047 7.292.063 10.938l.025 3.154.01 2.998.016 2.777C129 306 129 306 128 307a59.094 59.094 0 0 1-4.137.13l-2.66.01-2.89-.007-2.949.003c-2.06.001-4.122 0-6.183-.005-3.167-.005-6.334 0-9.501.006-1.998 0-3.995-.002-5.993-.004l-2.89.006-2.66-.01-2.353-.002C84 307 84 307 83 306a83.437 83.437 0 0 1-.098-4.91l.01-2.998.026-3.155.013-3.166c.012-2.59.028-5.18.049-7.771z" style="fill:#1a1a1a"/><path fill="#49494A" d="M0 0h4v19h38V0h4c.029 3.646.047 7.292.063 10.938l.025 3.154.01 2.998.016 2.777C46 22 46 22 45 23a59.124 59.124 0 0 1-4.137.13l-2.66.009-2.89-.006-2.948.003c-2.062 0-4.123-.001-6.184-.006-3.167-.005-6.334 0-9.501.007-1.998 0-3.995-.002-5.992-.004l-2.892.006-2.66-.01-2.352-.002C1 23 1 23 0 22a83.431 83.431 0 0 1-.098-4.91l.01-2.998.025-3.155.014-3.166C-.037 5.181-.02 2.591 0 0Z" style="fill:#1a1a1a" transform="translate(779 233)"/><path fill="#919191" d="M0 0h4v29h-24v17h-4V25H0V0Z" style="fill:#1a1a1a" transform="translate(1571 233)"/><path fill="#919191" d="M0 0h4v29h-24v17h-4V25H0V0Z" style="fill:#1a1a1a" transform="translate(1187 233)"/><path fill="#919191" d="M0 0h4v29h-24v17h-4V25H0V0Z" style="fill:#1a1a1a" transform="translate(467 233)"/><path fill="#919191" d="M0 0h4v29h-24v17h-4V25H0V0Z" style="fill:#1a1a1a" transform="translate(851 182)"/><path fill="#919191" d="M0 0h4v29h-24v17h-4V25H0V0Z" style="fill:#1a1a1a" transform="translate(1571 131)"/><path fill="#919191" d="M0 0h4v29h-24v17h-4V25H0V0Z" style="fill:#1a1a1a" transform="translate(659 131)"/><path fill="#474748" d="M0 0h4c.029 3.646.047 7.292.063 10.938l.025 3.154.01 2.998.016 2.777C4 22 4 22 3 23a90.91 90.91 0 0 1-5.129.098l-2.822-.008-3.612-.027L-20 23v23h-4V19H0V0Z" style="fill:#1a1a1a" transform="translate(1565 233)"/><path fill="#474748" d="M0 0h4c.029 3.646.047 7.292.063 10.938l.025 3.154.01 2.998.016 2.777C4 22 4 22 3 23a90.91 90.91 0 0 1-5.129.098l-2.822-.008-3.612-.027L-20 23v23h-4V19H0V0Z" style="fill:#1a1a1a" transform="translate(1181 233)"/><path fill="#474748" d="M0 0h4c.029 3.646.047 7.292.063 10.938l.025 3.154.01 2.998.016 2.777C4 22 4 22 3 23a90.91 90.91 0 0 1-5.129.098l-2.822-.008-3.612-.027L-20 23v23h-4V19H0V0Z" style="fill:#1a1a1a" transform="translate(461 233)"/><path fill="#464647" d="M0 0h4c.029 3.646.047 7.292.063 10.938l.025 3.154.01 2.998.016 2.777C4 22 4 22 3 23a90.91 90.91 0 0 1-5.129.098l-2.822-.008-3.612-.027L-20 23v23h-4V19H0V0Z" style="fill:#1a1a1a" transform="translate(845 182)"/><path fill="#474748" d="M0 0h4c.029 3.646.047 7.292.063 10.938l.025 3.154.01 2.998.016 2.777C4 22 4 22 3 23a90.91 90.91 0 0 1-5.129.098l-2.822-.008-3.612-.027L-20 23v23h-4V19H0V0Z" style="fill:#1a1a1a" transform="translate(1565 131)"/><path fill="#474748" d="M0 0h4c.029 3.646.047 7.292.063 10.938l.025 3.154.01 2.998.016 2.777C4 22 4 22 3 23a90.91 90.91 0 0 1-5.129.098l-2.822-.008-3.612-.027L-20 23v23h-4V19H0V0Z" style="fill:#1a1a1a" transform="translate(653 131)"/><path fill="#4B4B4B" d="M0 0h4v46H0V0Z" style="fill:#1a1a1a" transform="translate(1379 233)"/><path fill="#4B4B4B" d="M0 0h4v46H0V0Z" style="fill:#1a1a1a" transform="translate(1373 233)"/><path fill="#4B4B4B" d="M0 0h4v46H0V0Z" style="fill:#1a1a1a" transform="translate(1259 233)"/><path fill="#4B4B4B" d="M0 0h4v46H0V0Z" style="fill:#1a1a1a" transform="translate(1253 233)"/><path fill="#4B4B4B" d="M0 0h4v46H0V0Z" style="fill:#1a1a1a" transform="translate(995 233)"/><path fill="#4B4B4B" d="M0 0h4v46H0V0Z" style="fill:#1a1a1a" transform="translate(989 233)"/><path fill="#4B4B4B" d="M0 0h4v46H0V0Z" style="fill:#1a1a1a" transform="translate(923 233)"/><path fill="#4B4B4B" d="M0 0h4v46H0V0Z" style="fill:#1a1a1a" transform="translate(917 233)"/><path fill="#4B4B4B" d="M0 0h4v46H0V0Z" style="fill:#1a1a1a" transform="translate(731 233)"/><path fill="#4B4B4B" d="M0 0h4v46H0V0Z" style="fill:#1a1a1a" transform="translate(725 233)"/><path fill="#4B4B4B" d="M0 0h4v46H0V0Z" style="fill:#1a1a1a" transform="translate(659 233)"/><path fill="#4B4B4B" d="M0 0h4v46H0V0Z" style="fill:#1a1a1a" transform="translate(653 233)"/><path fill="#4B4B4B" d="M0 0h4v46H0V0Z" style="fill:#1a1a1a" transform="translate(539 233)"/><path fill="#4B4B4B" d="M0 0h4v46H0V0Z" style="fill:#1a1a1a" transform="translate(533 233)"/><path fill="none" d="M0 0h4v46H0V0Z" style="fill:#1a1a1a;fill-opacity:0" transform="translate(131 233)"/><path fill="#4B4B4B" d="M0 0h4v46H0V0Z" style="fill:#1a1a1a" transform="translate(125 233)"/><path fill="#4B4B4B" d="M0 0h4v46H0V0Z" style="fill:#1a1a1a" transform="translate(1643 182)"/><path fill="#4B4B4B" d="M0 0h4v46H0V0Z" style="fill:#1a1a1a" transform="translate(1637 182)"/><path fill="#4B4B4B" d="M0 0h4v46H0V0Z" style="fill:#1a1a1a" transform="translate(1379 182)"/><path fill="#4B4B4B" d="M0 0h4v46H0V0Z" style="fill:#1a1a1a" transform="translate(1373 182)"/><path fill="#4B4B4B" d="M0 0h4v46H0V0Z" style="fill:#1a1a1a" transform="translate(1187 182)"/><path fill="#4B4B4B" d="M0 0h4v46H0V0Z" style="fill:#1a1a1a" transform="translate(1181 182)"/><path fill="#4B4B4B" d="M0 0h4v46H0V0Z" style="fill:#1a1a1a" transform="translate(1067 182)"/><path fill="#4B4B4B" d="M0 0h4v46H0V0Z" style="fill:#1a1a1a" transform="translate(1061 182)"/><path fill="#4B4B4B" d="M0 0h4v46H0V0Z" style="fill:#1a1a1a" transform="translate(995 182)"/><path fill="#4B4B4B" d="M0 0h4v46H0V0Z" style="fill:#1a1a1a" transform="translate(989 182)"/><path fill="#4B4B4B" d="M0 0h4v46H0V0Z" style="fill:#1a1a1a" transform="translate(923 182)"/><path fill="#4B4B4B" d="M0 0h4v46H0V0Z" style="fill:#1a1a1a" transform="translate(917 182)"/><path fill="#4B4B4B" d="M0 0h4v46H0V0Z" style="fill:#1a1a1a" transform="translate(731 182)"/><path fill="#4B4B4B" d="M0 0h4v46H0V0Z" style="fill:#1a1a1a" transform="translate(725 182)"/><path fill="#4B4B4B" d="M0 0h4v46H0V0Z" style="fill:#1a1a1a" transform="translate(467 182)"/><path fill="#4B4B4B" d="M0 0h4v46H0V0Z" style="fill:#1a1a1a" transform="translate(461 182)"/><path fill="#4B4B4B" d="M0 0h4v46H0V0Z" style="fill:#1a1a1a" transform="translate(323 182)"/><path fill="#4B4B4B" d="M0 0h4v46H0V0Z" style="fill:#1a1a1a" transform="translate(317 182)"/><path fill="#4B4B4B" d="M0 0h4v46H0V0Z" style="fill:#1a1a1a" transform="translate(1643 131)"/><path fill="#4B4B4B" d="M0 0h4v46H0V0Z" style="fill:#1a1a1a" transform="translate(1637 131)"/><path fill="#4B4B4B" d="M0 0h4v46H0V0Z" style="fill:#1a1a1a" transform="translate(1379 131)"/><path fill="#4B4B4B" d="M0 0h4v46H0V0Z" style="fill:#1a1a1a" transform="translate(1373 131)"/><path fill="#4B4B4B" d="M0 0h4v46H0V0Z" style="fill:#1a1a1a" transform="translate(1187 131)"/><path fill="#4B4B4B" d="M0 0h4v46H0V0Z" style="fill:#1a1a1a" transform="translate(1181 131)"/><path fill="#4B4B4B" d="M0 0h4v46H0V0Z" style="fill:#1a1a1a" transform="translate(1067 131)"/><path fill="#4B4B4B" d="M0 0h4v46H0V0Z" style="fill:#1a1a1a" transform="translate(1061 131)"/><path fill="#4B4B4B" d="M0 0h4v46H0V0Z" style="fill:#1a1a1a" transform="translate(995 131)"/><path fill="#4B4B4B" d="M0 0h4v46H0V0Z" style="fill:#1a1a1a" transform="translate(989 131)"/><path fill="#4B4B4B" d="M0 0h4v46H0V0Z" style="fill:#1a1a1a" transform="translate(923 131)"/><path fill="#4B4B4B" d="M0 0h4v46H0V0Z" style="fill:#1a1a1a" transform="translate(917 131)"/><path fill="#4B4B4B" d="M0 0h4v46H0V0Z" style="fill:#1a1a1a" transform="translate(467 131)"/><path fill="#4B4B4B" d="M0 0h4v46H0V0Z" style="fill:#1a1a1a" transform="translate(461 131)"/><path fill="#4B4B4B" d="M0 0h4v46H0V0Z" style="fill:#1a1a1a" transform="translate(323 131)"/><path fill="#4B4B4B" d="M0 0h4v46H0V0Z" style="fill:#1a1a1a" transform="translate(317 131)"/><path fill="#4B4B4B" d="M0 0h4v46H0V0Z" style="fill:#1a1a1a" transform="translate(1643 80)"/><path fill="#4B4B4B" d="M0 0h4v46H0V0Z" style="fill:#1a1a1a" transform="translate(995 80)"/><path fill="#4B4B4B" d="M0 0h4v46H0V0Z" style="fill:#1a1a1a" transform="translate(923 80)"/><path fill="#4B4B4B" d="M0 0h4v46H0V0Z" style="fill:#1a1a1a" transform="translate(1637 80)"/><path fill="#4B4B4B" d="M0 0h4v46H0V0Z" style="fill:#1a1a1a" transform="translate(989 80)"/><path fill="#4B4B4B" d="M0 0h4v46H0V0Z" style="fill:#1a1a1a" transform="translate(917 80)"/></svg>