<svg xmlns="http://www.w3.org/2000/svg" xml:space="preserve" width="241.89" height="241.89" viewBox="0 0 64 64"><path d="M76.3 139.551h64v64h-64z" style="fill:#fafafa;fill-opacity:1;stroke:none;stroke-width:2.64583;stroke-dasharray:none;stroke-opacity:1" transform="translate(-76.3 -139.551)"/><path fill="#060606" d="M61.383 52.206H97.49v4.083h3.654v5.803h-.86v-4.943H97.49v.43h2.364v4.513h-.86v-3.654H97.49v3.654H61.383v-9.886zm0 21.921h25.79v4.084h3.654v5.802h-.86V79.07h-2.794v.43h2.364v4.513h-.86V80.36h-1.504v3.653h-25.79v-9.886z" style="fill:#1a1a1a;stroke-width:.214915" transform="matrix(1.03052 0 0 .8883 -50.512 -40.468)"/><path fill="#030303" d="M61.383 96.048H71.7v9.887H61.383v-9.887zm0-10.96H71.7v9.886H61.383v-9.886zm0-21.922H71.7v9.887H61.383v-9.887z" style="fill:#1a1a1a;stroke-width:.214915" transform="matrix(1.03052 0 0 .8883 -50.512 -40.468)"/><path fill="#909090" d="M100.283 63.166h.86V69.4h-25.79v3.654h-.86V68.54h25.79v-5.373z" style="fill:#1a1a1a;stroke-width:.214915" transform="matrix(1.03052 0 0 .8883 -50.512 -40.468)"/><path fill="#444446" d="M98.993 63.166h.86c.007.784.01 1.568.014 2.351l.005.678.003.644.003.597c-.025.459-.025.459-.24.673-.331.021-.664.027-.996.026l-.653.001-.723-.002h-.756c-.829 0-1.658-.002-2.487-.004h-1.72l-4.07-.005-4.635-.005c-3.178-.002-6.356-.006-9.534-.01v4.943h-.86V67.25h25.79v-4.083z" style="fill:#1a1a1a;stroke-width:.214915" transform="matrix(1.03052 0 0 .8883 -50.512 -40.468)"/><path fill="#919191" d="M89.967 85.088h.86v6.232H75.353v3.654h-.86V90.46h15.474v-5.373z" style="fill:#1a1a1a;stroke-width:.214915" transform="matrix(1.03052 0 0 .8883 -50.512 -40.468)"/><path fill="#434345" d="M88.678 85.088h.86c.005.783.01 1.567.013 2.35l.005.678.002.645.004.596c-.025.459-.025.459-.24.674-.474.02-.95.025-1.425.024h-.451l-1.483-.003-1.025-.001c-.901 0-1.803-.003-2.704-.005-.919-.003-1.838-.004-2.757-.005-1.805-.002-3.61-.006-5.414-.01v4.943h-.86v-5.803h15.474v-4.083z" style="fill:#1a1a1a;stroke-width:.214915" transform="matrix(1.03052 0 0 .8883 -50.512 -40.468)"/><path fill="#929292" d="M62.888 107.01h.86v5.372h10.745v-5.373h.86v6.233H62.888v-6.233z" style="fill:#1a1a1a;stroke-width:.214915" transform="matrix(1.03052 0 0 .8883 -50.512 -40.468)"/><path fill="#49494a" d="M64.177 107.01h.86v4.083h8.167v-4.084h.86c.006.784.01 1.567.013 2.35l.005.679.002.644.004.597c-.025.458-.025.458-.24.673a12.53 12.53 0 0 1-.889.028l-.571.002c-.205 0-.41 0-.622-.002h-1.963a2303.414 2303.414 0 0 1-3.33.001c-.204 0-.41 0-.62.002l-.572-.002h-.506c-.383-.028-.383-.028-.598-.243a17.93 17.93 0 0 1-.02-1.055l.001-.644.006-.678.003-.68a492 492 0 0 1 .01-1.67z" style="fill:#1a1a1a;stroke-width:.214915" transform="matrix(1.03052 0 0 .8883 -50.512 -40.468)"/><path fill="none" d="M74.493 96.048h.86v9.887h-.86v-9.887z" style="fill:#1a1a1a;fill-opacity:0;stroke-width:.214915" transform="matrix(1.03052 0 0 .8883 -50.512 -40.468)"/><path fill="#4B4B4B" d="M73.204 96.048h.86v9.887h-.86v-9.887z" style="fill:#1a1a1a;stroke-width:.214915" transform="matrix(1.03052 0 0 .8883 -50.512 -40.468)"/></svg>