<svg xmlns="http://www.w3.org/2000/svg" xml:space="preserve" width="241.89" height="241.89" viewBox="0 0 64 64"><rect width="62.975" height="62.975" x=".513" y=".513" rx="2.113" ry="2.104" style="fill:#f6f1ee;stroke:#000;stroke-width:1.05415;stroke-dasharray:none;stroke-opacity:1;fill-opacity:1"/><path d="M134.944 63.225c3.456 0 5.184-1.728 5.184-5.184V42.105c0-3.456-1.728-5.184-5.184-5.184H64.48c-6.144 0-9.216 3.072-9.216 9.216v127.68c0 4.224 2.304 6.528 6.912 6.528h24.96c4.416 0 6.72-2.304 6.72-6.528v-43.392c0-3.456 1.536-5.184 5.184-5.184h33.216c3.072 0 4.8-1.728 4.8-5.568v-14.208c0-3.264-1.728-4.992-4.8-4.992H95.392c-3.456 0-4.992-1.92-4.992-5.568V66.873c0-2.496 1.152-3.648 3.648-3.648z" aria-label="F" style="font-size:192px;line-height:1em;font-family:Wheaton;-inkscape-font-specification:Wheaton;letter-spacing:-3px;word-spacing:2px;white-space:pre;fill:#212121;stroke-width:4" transform="translate(-3.549 -7.529) scale(.36387)"/></svg>