<?xml version="1.0" encoding="UTF-8" standalone="no"?>
<svg
   xml:space="preserve"
   width="1200"
   height="630"
   version="1.1"
   id="svg6"
   sodipodi:docname="opengraph.svg"
   inkscape:version="1.4.2 (ebf0e940d0, 2025-05-08)"
   inkscape:export-filename="opengraph.png"
   inkscape:export-xdpi="96"
   inkscape:export-ydpi="96"
   xmlns:inkscape="http://www.inkscape.org/namespaces/inkscape"
   xmlns:sodipodi="http://sodipodi.sourceforge.net/DTD/sodipodi-0.dtd"
   xmlns="http://www.w3.org/2000/svg"
   xmlns:svg="http://www.w3.org/2000/svg"><sodipodi:namedview
     id="namedview6"
     pagecolor="#ffffff"
     bordercolor="#111111"
     borderopacity="1"
     inkscape:showpageshadow="0"
     inkscape:pageopacity="0"
     inkscape:pagecheckerboard="1"
     inkscape:deskcolor="#d1d1d1"
     inkscape:zoom="0.75666667"
     inkscape:cx="600"
     inkscape:cy="314.53744"
     inkscape:window-width="2552"
     inkscape:window-height="1358"
     inkscape:window-x="26"
     inkscape:window-y="23"
     inkscape:window-maximized="0"
     inkscape:current-layer="svg6" /><defs
     id="defs1"><rect
       x="84.581498"
       y="325.11013"
       width="684.5815"
       height="75.330396"
       id="rect7" /><path
       id="a"
       d="M-80.617 409.692H926.431v142.731H-80.617z" /><path
       id="b"
       d="M-80.617 409.692h1008.37v71.366H-80.617z" /></defs><path
     d="M0 0h1200v630H0z"
     style="fill:#ececec;fill-opacity:1;stroke-width:5.60024"
     id="path1" /><path
     fill="none"
     d="M-3.965 0h1055.947v507.489H-3.965z"
     style="fill:#1a1a1a;fill-opacity:0;stroke-width:4"
     id="path2" /><text
     xml:space="preserve"
     style="font-style:normal;font-variant:normal;font-weight:700;font-stretch:normal;font-size:32px;line-height:1.2em;font-family:'Ubuntu Mono';-inkscape-font-specification:'Ubuntu Mono Bold';text-align:start;writing-mode:lr-tb;direction:ltr;white-space:pre;shape-inside:url(#b);display:inline;fill:#666666;fill-opacity:1;stroke-width:4"
     transform="translate(784.795,82.71)"
     id="text6"><tspan
       x="-80.617188"
       y="439.49622"
       id="tspan1">formidable.scaletti.dev</tspan></text><path
     d="M153.152 132.696c2.991 0 4.487-1.573 4.487-4.718v-14.504c0-3.145-1.496-4.718-4.487-4.718h-61c-5.318 0-7.977 2.796-7.977 8.388v116.204c0 3.844 1.994 5.941 5.983 5.941h21.607c3.823 0 5.818-2.097 5.818-5.941v-39.492c0-3.145 1.33-4.718 4.487-4.718h28.755c2.66 0 4.155-1.573 4.155-5.068v-12.93c0-2.971-1.496-4.544-4.155-4.544h-31.913c-2.991 0-4.321-1.747-4.321-5.068v-25.512c0-2.272.997-3.32 3.158-3.32zm81.313 106.593c23.767 0 27.922-11.358 27.922-34.075v-65.879c0-24.464-9.64-30.58-34.572-30.58H205.71c-28.588 0-34.571 5.941-34.571 36.172v60.112c0 28.483 9.64 34.25 34.571 34.25zm.497-35.123c0 9.436-1.994 12.581-8.809 12.581H213.19c-8.31 0-8.81-5.242-8.81-12.581V146.5c0-11.184 1.33-15.203 8.81-15.203h13.13c6.815 0 8.643 4.019 8.643 16.775zm139.984-5.941c0-15.378-10.305-20.795-10.305-23.59 0-2.272 4.82-7.515 4.82-16.252v-24.639c0-19.396-5.318-24.988-26.427-24.988h-51.192c-9.142 0-11.469 2.621-11.469 11.708v112.884c0 3.844 1.995 5.941 5.984 5.941h16.454c3.823 0 5.818-2.097 5.818-5.941v-40.716c0-2.796.997-4.02 3.158-4.02h17.784c7.48 0 10.471 2.272 10.471 11.534v33.201c0 3.844 1.829 5.941 5.818 5.941h23.269c3.823 0 5.817-2.097 5.817-5.941zm-37.895-40.54c0 6.115-2.494 9.086-7.646 9.086h-17.12c-2.493 0-3.656-1.223-3.656-3.67v-28.483c0-2.446.997-3.67 3.324-3.67h14.793c7.811 0 10.305 1.923 10.305 9.96zm60.868-48.929c-3.99 0-5.984 2.097-5.984 6.29v118.127c0 4.02 1.995 6.116 5.984 6.116h25.762c4.156 0 6.15-2.097 6.15-6.116v-95.585c0-2.796 1.33-4.369 4.155-4.369h15.624c2.493 0 3.657 1.573 3.657 4.369v95.584c0 4.02 1.994 6.116 6.15 6.116h20.11c4.156 0 6.15-2.097 6.15-6.116v-95.584c0-2.796 1.33-4.369 4.322-4.369h12.964c4.156 0 6.15 2.272 6.15 6.815v93.138c0 4.02 1.995 6.116 6.15 6.116h17.452c4.155 0 5.983-2.097 5.983-6.116v-97.156c0-24.464-9.64-27.26-30.416-27.26zm188.85 0h-23.103c-3.989 0-5.817 2.097-5.817 6.29v118.302c0 3.844 1.828 5.941 5.817 5.941h23.103c3.99 0 5.984-2.097 5.984-5.941V115.047c0-4.194-1.995-6.291-5.984-6.291zm25.299 121.272c0 6.465 2.66 9.261 8.975 9.261h43.88c15.956 0 27.092-6.29 33.408-17.3 3.823-6.99 5.65-15.552 5.65-31.977v-53.647c0-20.095-5.318-27.609-25.928-27.609h-57.01c-6.316 0-8.975 2.796-8.975 9.436zm44.378-14.154h-11.302c-2.161 0-3.158-1.398-3.158-3.67V135.84c0-2.271.997-3.495 3.158-3.495h18.117c5.484 0 7.147 2.097 7.147 7.34v50.151c0 11.708-.665 15.552-1.829 18.523-2.16 4.893-6.15 7.514-12.133 7.514zm102.92-77.062c0-4.718 1.661-6.815 6.481-6.815h14.96c4.32 0 5.65 2.446 5.65 6.815v31.104c0 3.32-1.496 5.068-4.487 5.068h-17.952c-2.992 0-4.654-1.748-4.654-5.068zm60.832 53.471c0-6.465-1.33-8.562-5.817-12.057-3.325-2.796-4.987-4.369-4.987-7.863v-45.26c0-13.455-3.823-18.348-17.12-18.348h-47.037c-12.133 0-18.116 4.893-18.116 18.348v43.336c0 3.495-1.33 5.243-4.156 7.864-4.155 3.844-4.986 5.592-4.986 12.232v42.463c0 4.193 1.662 6.29 5.319 6.29H746.9c3.324 0 4.82-2.097 4.82-6.29v-31.454c0-3.146 1.33-4.544 3.989-4.544h32.078c2.66 0 3.99 1.398 3.99 4.544v31.454c0 4.193 1.661 6.29 4.985 6.29h18.45c3.324 0 4.986-2.097 4.986-6.29zm93.112 47.006c16.29 0 20.112-7.514 20.112-22.542v-19.92c0-9.96-1.33-13.98-6.316-19.222-4.654-4.893-5.65-6.815-5.65-8.563 0-3.494 4.653-6.465 4.653-15.552v-23.415c0-16.426-6.316-21.319-25.264-21.319h-51.857c-9.142 0-11.469 2.621-11.469 11.708V227.93c0 8.737 2.327 11.358 11.469 11.358zm-15.79-29.706c0 5.417-1.827 7.514-7.146 7.514h-19.945c-2.327 0-3.49-1.049-3.49-3.495v-26.736c0-2.796 1.163-4.019 3.324-4.019h17.784c6.482 0 9.474 2.97 9.474 9.262zm-2.99-55.918c0 5.592-2.993 8.737-7.646 8.737H870.76c-2.493 0-3.823-1.398-3.823-3.844v-24.115c0-2.446 1.164-3.67 3.49-3.67h16.622c4.986 0 7.48 1.923 7.48 7.34zm87.96-38.618c0-4.194-1.995-6.291-5.818-6.291h-21.275c-3.989 0-5.983 2.097-5.983 6.29v106.769c0 11.708 5.817 17.474 16.953 17.474h52.523c2.991 0 4.321-1.747 4.321-5.242v-13.805c0-3.145-1.33-4.543-4.321-4.543h-32.411c-2.66 0-3.99-1.573-3.99-4.369zm126.354 69.373c2.66-.35 3.99-1.922 3.99-4.893v-13.106c0-2.97-1.33-4.543-4.156-4.543h-35.569c-2.16 0-3.158-1.223-3.158-3.67v-22.017c0-2.272.998-3.32 3.158-3.32h36.733c2.992 0 4.487-1.573 4.487-4.718v-14.679c0-3.145-1.495-4.718-4.487-4.718h-64.49c-6.15 0-9.307 3.32-9.307 9.61v109.04c0 8.039 4.155 11.883 12.133 11.883h62.994c3.157 0 4.653-1.747 4.653-5.242v-14.154c0-2.97-1.33-4.544-4.321-4.544h-38.062c-2.16 0-3.49-1.223-3.49-3.67v-22.542c0-3.145 1.495-4.718 4.155-4.718z"
     aria-label="formidable"
     style="font-size:192px;line-height:1em;font-family:Wheaton;-inkscape-font-specification:Wheaton;letter-spacing:-4.95113px;word-spacing:3.30075px;white-space:pre;fill:#212121;stroke-width:3.55048"
     id="path6" /><text
     xml:space="preserve"
     id="text7"
     style="font-size:8px;line-height:1em;font-family:FreeSans;-inkscape-font-specification:FreeSans;text-align:center;letter-spacing:0px;word-spacing:2px;writing-mode:lr-tb;direction:ltr;white-space:pre;shape-inside:url(#rect7);display:inline;fill:#000000;stroke:#e0e0e0" /><text
     xml:space="preserve"
     style="font-style:normal;font-variant:normal;font-weight:bold;font-stretch:normal;font-size:50.6667px;line-height:1.3em;font-family:'Ubuntu Mono';-inkscape-font-specification:'Ubuntu Mono Bold';text-align:center;letter-spacing:0px;word-spacing:2px;writing-mode:lr-tb;direction:ltr;text-anchor:middle;white-space:pre;inline-size:1126.81;display:inline;fill:#1a1a1a;stroke:none;stroke-opacity:1"
     x="-357.64404"
     y="-216.7401"
     id="text9"
     transform="translate(1004.7172,538.49302)"><tspan
       x="-357.64404"
       y="-216.7401"
       id="tspan3"><tspan
         dx="0 -2 2 0 0 0 0 -2.0000019 1.9999981 0 0 -2.0000019 1.9999981 0 0 0 0 0 0 0 -1.9999714 1.9999676 0 0 0 0 0 -2.0000324 2.0000286 0 0 0 0 0 0 -1.9999714"
         style="line-height:1.3em;text-align:start;text-anchor:start"
         id="tspan2">A small but powerful Python library 
</tspan></tspan><tspan
       x="-357.64404"
       y="-150.87339"
       id="tspan5"><tspan
         dx="0 0 0 -1.9999981 1.9999981 0 0 0 0 0 0 0 0 -2.0000019 1.9999981 0 0 -2.0000019 2.0000286 0 0 0 0 0 0 0 0 0 -1.9999714"
         style="line-height:1.3em;text-align:start;text-anchor:start"
         id="tspan4">for rendering and processing 
</tspan></tspan><tspan
       x="-357.64404"
       y="-85.006694"
       id="tspan7"><tspan
         dx="0 0 0 -1.9999981 1.9999981"
         style="line-height:1.3em;text-align:start;text-anchor:start"
         id="tspan6">web forms</tspan></tspan></text></svg>
