<svg xmlns="http://www.w3.org/2000/svg" xml:space="preserve" width="1200" height="630"><defs><path id="a" d="M-80.617 409.692H926.431v142.731H-80.617z"/><path id="b" d="M-80.617 409.692h1008.37v71.366H-80.617z"/></defs><path d="M0 0h1200v630H0z" style="fill:#ececec;fill-opacity:1;stroke-width:5.60024"/><path fill="none" d="M-3.965 0h1055.947v507.489H-3.965z" style="fill:#1a1a1a;fill-opacity:0;stroke-width:4"/><path fill="#060606" d="M0 0h168v19h17v27h-4V23h-13v2h11v21h-4V29h-7v17H0Z" style="fill:#1a1a1a" transform="translate(1018.978 204.054) scale(.5393)"/><path fill="#060606" d="M0 0h168v19h17v27h-4V23h-13v2h11v21h-4V29h-7v17H0Z" style="fill:#1a1a1a" transform="translate(915.431 204.054) scale(.5393)"/><path fill="#060606" d="M0 0h168v19h17v27h-4V23h-13v2h11v21h-4V29h-7v17H0Z" style="fill:#1a1a1a" transform="translate(1018.978 94.036) scale(.5393)"/><path fill="#060606" d="M70 29h168v19h17v27h-4V52h-13v2h11v21h-4V58h-7v17H70Z" style="fill:#1a1a1a" transform="translate(62.249 78.396) scale(.5393)"/><path fill="#030303" d="M0 0h168v46H0Z" style="fill:#1a1a1a" transform="translate(708.338 149.045) scale(.5393)"/><path fill="#060606" d="M0 0h4v25h13v-2l-2.152.035c-.92.01-1.839.018-2.786.027l-2.777.036C7 23 7 23 6 22a83.431 83.431 0 0 1-.098-4.91l.01-2.998.026-3.155.013-3.166C5.963 5.181 5.98 2.591 6 0h4v19h7V0h144v46H17V29H0Z" style="fill:#1a1a1a" transform="translate(207.322 204.054) scale(.5393)"/><path fill="#060606" d="M0 0h144v19h17v27h-4V23h-13v2h11v21h-4V29h-7v17H0Z" style="fill:#1a1a1a" transform="translate(811.884 94.036) scale(.5393)"/><path fill="#060606" d="M0 0h144v19h17v27h-4V23h-13v2h11v21h-4V29h-7v17H0Z" style="fill:#1a1a1a" transform="translate(604.79 94.036) scale(.5393)"/><path fill="#060606" d="M0 0h144v19h17v27h-4V23h-13v2h11v21h-4V29h-7v17H0Z" style="fill:#1a1a1a" transform="translate(320.037 94.036) scale(.5393)"/><path fill="#060606" d="M0 0h144v19h17v27h-4V23h-13v2h11v21h-4V29h-7v17H0Z" style="fill:#1a1a1a" transform="translate(216.49 94.036) scale(.5393)"/><path fill="#030303" d="M0 0h144v46H0Z" style="fill:#1a1a1a" transform="translate(811.884 204.054) scale(.5393)"/><path fill="#030303" d="M0 0h144v46H0Z" style="fill:#1a1a1a" transform="translate(604.79 204.054) scale(.5393)"/><path fill="#030303" d="M0 0h144v46H0Z" style="fill:#1a1a1a" transform="translate(811.884 149.045) scale(.5393)"/><path fill="#030303" d="M0 0h144v46H0Z" style="fill:#1a1a1a" transform="translate(320.037 149.045) scale(.5393)"/><path fill="#060606" d="M0 0h120v19h17v27h-4V23h-13v2h11v21h-4V29h-7v17H0Z" style="fill:#1a1a1a" transform="translate(1018.978 149.045) scale(.5393)"/><path fill="#060606" d="M70 131h120v19h17v27h-4v-23h-13v2h11v21h-4v-17h-7v17H70Z" style="fill:#1a1a1a" transform="translate(62.249 78.396) scale(.5393)"/><path fill="#060606" d="M0 0h120v19h17v27h-4V23h-13v2h11v21h-4V29h-7v17H0Z" style="fill:#1a1a1a" transform="translate(721.28 94.036) scale(.5393)"/><path fill="#070707" d="M0 0h96v46H0V29h-7v17h-4V25H0v-2h-13v23h-4V19H0Z" style="fill:#1a1a1a" transform="translate(462.414 149.045) scale(.5393)"/><path fill="#070707" d="M0 0h96v19h17v27h-4V23H96v2h11v21h-4V29h-7v17H0Z" style="fill:#1a1a1a" transform="translate(423.584 121.54) scale(.5393)"/><path fill="#030303" d="M0 0h96v46H0Z" style="fill:#1a1a1a" transform="translate(501.244 121.54) scale(.5393)"/><path fill="#080808" d="M0 0h72v19h17v27h-4V23H72v2h11v21h-4V29h-7v17H0Z" style="fill:#1a1a1a" transform="translate(514.187 94.036) scale(.5393)"/><path fill="#080808" d="M0 0h72v19h17v27h-4V23H72v2h11v21h-4V29h-7v17H0Z" style="fill:#1a1a1a" transform="translate(423.584 94.036) scale(.5393)"/><path fill="#1A1A1A" d="M0 0h48v19h17v27h-4V23H48v2h11v21h-4V29h-7v17H0V29h-79v17h-4V25H0v-2h-85v23h-4V19H0Z" style="fill:#1a1a1a" transform="translate(281.207 121.54) scale(.5393)"/><path fill="#171717" d="M0 0h48v19h17v27h-4V23H48v2h11v21h-4V29h-7v17H0V29h-55v17h-4V25H0v-2h-61v23h-4V19H0Z" style="fill:#1a1a1a" transform="translate(876.601 176.55) scale(.5393)"/><path fill="#171717" d="M0 0h48v19h17v27h-4V23H48v2h11v21h-4V29h-7v17H0V29h-55v17h-4V25H0v-2h-61v23h-4V19H0Z" style="fill:#1a1a1a" transform="translate(384.754 176.55) scale(.5393)"/><path fill="#171717" d="M0 0h48v19h17v27h-4V23H48v2h11v21h-4V29h-7v17H0V29h-55v17h-4V25H0v-2h-61v23h-4V19H0Z" style="fill:#1a1a1a" transform="translate(876.601 121.54) scale(.5393)"/><path fill="#171717" d="M0 0h48v19h17v27h-4V23H48v2h11v21h-4V29h-7v17H0V29h-55v17h-4V25H0v-2h-61v23h-4V19H0Z" style="fill:#1a1a1a" transform="translate(773.054 121.54) scale(.5393)"/><path fill="#171717" d="M0 0h48v19h17v27h-4V23H48v2h11v21h-4V29h-7v17H0V29h-55v17h-4V25H0v-2h-61v23h-4V19H0Z" style="fill:#1a1a1a" transform="translate(669.507 121.54) scale(.5393)"/><path fill="#171717" d="M0 0h48v19h17v27h-4V23H48v2h11v21h-4V29h-7v17H0V29h-55v17h-4V25H0v-2h-61v23h-4V19H0Z" style="fill:#1a1a1a" transform="translate(384.754 121.54) scale(.5393)"/><path fill="#121212" d="M0 0h48v46H0V29h-55v17h-4V25H0v-2h-61v23h-4V19H0Z" style="fill:#1a1a1a" transform="translate(773.054 176.55) scale(.5393)"/><path fill="#0C0C0C" d="M0 0h4v25h13v-2l-2.152.035c-.92.01-1.839.018-2.786.027l-2.777.036C7 23 7 23 6 22a83.431 83.431 0 0 1-.098-4.91l.01-2.998.026-3.155.013-3.166C5.963 5.181 5.98 2.591 6 0h4v19h7V0h48v46H17V29H0Z" style="fill:#1a1a1a" transform="translate(466.189 176.55) scale(.5393)"/><path fill="#0B0B0B" d="M0 0h48v46H0V29h-7v17h-4V25H0v-2h-13v23h-4V19H0Z" style="fill:#1a1a1a" transform="translate(527.13 149.045) scale(.5393)"/><path fill="#0B0B0B" d="M0 0h48v19h17v27h-4V23H48v2h11v21h-4V29h-7v17H0Z" style="fill:#1a1a1a" transform="translate(915.431 94.036) scale(.5393)"/><path fill="#0B0B0B" d="M0 0h48v19h17v27h-4V23H48v2h11v21h-4V29h-7v17H0Z" style="fill:#1a1a1a" transform="translate(565.96 94.036) scale(.5393)"/><path fill="#030303" d="M0 0h48v46H0Z" style="fill:#1a1a1a" transform="translate(773.054 204.054) scale(.5393)"/><path fill="#030303" d="M0 0h48v46H0Z" style="fill:#1a1a1a" transform="translate(708.338 204.054) scale(.5393)"/><path fill="#030303" d="M0 0h48v46H0Z" style="fill:#1a1a1a" transform="translate(565.96 204.054) scale(.5393)"/><path fill="#030303" d="M0 0h48v46H0Z" style="fill:#1a1a1a" transform="translate(527.13 204.054) scale(.5393)"/><path fill="#030303" d="M0 0h48v46H0Z" style="fill:#1a1a1a" transform="translate(423.584 204.054) scale(.5393)"/><path fill="#030303" d="M0 0h48v46H0Z" style="fill:#1a1a1a" transform="translate(384.754 204.054) scale(.5393)"/><path fill="#030303" d="M0 0h48v46H0Z" style="fill:#1a1a1a" transform="translate(320.037 204.054) scale(.5393)"/><path fill="#030303" d="M0 0h48v46H0Z" style="fill:#1a1a1a" transform="translate(100 204.054) scale(.5393)"/><path fill="#030303" d="M0 0h48v46H0Z" style="fill:#1a1a1a" transform="translate(1018.978 176.55) scale(.5393)"/><path fill="#030303" d="M0 0h48v46H0Z" style="fill:#1a1a1a" transform="translate(915.431 176.55) scale(.5393)"/><path fill="#030303" d="M0 0h48v46H0Z" style="fill:#1a1a1a" transform="translate(811.884 176.55) scale(.5393)"/><path fill="#030303" d="M0 0h48v46H0Z" style="fill:#1a1a1a" transform="translate(708.338 176.55) scale(.5393)"/><path fill="#030303" d="M0 0h48v46H0Z" style="fill:#1a1a1a" transform="translate(669.507 176.55) scale(.5393)"/><path fill="#030303" d="M0 0h48v46H0Z" style="fill:#1a1a1a" transform="translate(604.79 176.55) scale(.5393)"/><path fill="#030303" d="M0 0h48v46H0Z" style="fill:#1a1a1a" transform="translate(565.96 176.55) scale(.5393)"/><path fill="#030303" d="M0 0h48v46H0Z" style="fill:#1a1a1a" transform="translate(527.13 176.55) scale(.5393)"/><path fill="#030303" d="M0 0h48v46H0Z" style="fill:#1a1a1a" transform="translate(423.584 176.55) scale(.5393)"/><path fill="#030303" d="M0 0h48v46H0Z" style="fill:#1a1a1a" transform="translate(320.037 176.55) scale(.5393)"/><path fill="#030303" d="M0 0h48v46H0Z" style="fill:#1a1a1a" transform="translate(281.207 176.55) scale(.5393)"/><path fill="#030303" d="M0 0h48v46H0Z" style="fill:#1a1a1a" transform="translate(203.547 176.55) scale(.5393)"/><path fill="#030303" d="M0 0h48v46H0Z" style="fill:#1a1a1a" transform="translate(100 176.55) scale(.5393)"/><path fill="#030303" d="M0 0h48v46H0Z" style="fill:#1a1a1a" transform="translate(915.431 149.045) scale(.5393)"/><path fill="#030303" d="M0 0h48v46H0Z" style="fill:#1a1a1a" transform="translate(669.507 149.045) scale(.5393)"/><path fill="#030303" d="M0 0h48v46H0Z" style="fill:#1a1a1a" transform="translate(604.79 149.045) scale(.5393)"/><path fill="#030303" d="M0 0h48v46H0Z" style="fill:#1a1a1a" transform="translate(565.96 149.045) scale(.5393)"/><path fill="#030303" d="M0 0h48v46H0Z" style="fill:#1a1a1a" transform="translate(423.584 149.045) scale(.5393)"/><path fill="#030303" d="M0 0h48v46H0Z" style="fill:#1a1a1a" transform="translate(281.207 149.045) scale(.5393)"/><path fill="#030303" d="M0 0h48v46H0Z" style="fill:#1a1a1a" transform="translate(203.547 149.045) scale(.5393)"/><path fill="#030303" d="M0 0h48v46H0Z" style="fill:#1a1a1a" transform="translate(1018.978 121.54) scale(.5393)"/><path fill="#030303" d="M0 0h48v46H0Z" style="fill:#1a1a1a" transform="translate(915.431 121.54) scale(.5393)"/><path fill="#030303" d="M0 0h48v46H0Z" style="fill:#1a1a1a" transform="translate(811.884 121.54) scale(.5393)"/><path fill="#030303" d="M0 0h48v46H0Z" style="fill:#1a1a1a" transform="translate(708.338 121.54) scale(.5393)"/><path fill="#030303" d="M0 0h48v46H0Z" style="fill:#1a1a1a" transform="translate(604.79 121.54) scale(.5393)"/><path fill="#030303" d="M0 0h48v46H0Z" style="fill:#1a1a1a" transform="translate(565.96 121.54) scale(.5393)"/><path fill="#030303" d="M0 0h48v46H0Z" style="fill:#1a1a1a" transform="translate(320.037 121.54) scale(.5393)"/><path fill="#030303" d="M0 0h48v46H0Z" style="fill:#1a1a1a" transform="translate(203.547 121.54) scale(.5393)"/><path fill="#030303" d="M70 80h48v46H70Z" style="fill:#1a1a1a" transform="translate(62.249 78.396) scale(.5393)"/><path fill="#919191" d="M0 0h4v25h170V0h4v29H0Z" style="fill:#1a1a1a" transform="translate(1022.753 231.559) scale(.5393)"/><path fill="#919191" d="M0 0h4v25h170V0h4v29H0Z" style="fill:#1a1a1a" transform="translate(919.206 231.559) scale(.5393)"/><path fill="#919191" d="M0 0h4v25h146V0h4v29H0Z" style="fill:#1a1a1a" transform="translate(815.66 231.559) scale(.5393)"/><path fill="#919191" d="M0 0h4v25h146V0h4v29H0Z" style="fill:#1a1a1a" transform="translate(608.566 231.559) scale(.5393)"/><path fill="#919191" d="M0 0h4v25h146V0h4v29H0Z" style="fill:#1a1a1a" transform="translate(220.265 231.559) scale(.5393)"/><path fill="#454546" d="M0 0h4v19h158V0h4c.029 3.646.047 7.292.063 10.938l.025 3.154.01 2.998.016 2.777C166 22 166 22 165 23c-2.111.1-4.226.126-6.34.127l-2.03.005c-2.26.004-4.521 0-6.782-.003l-4.843.006c-4.397.004-8.793.002-13.19 0-4.59-.003-9.181 0-13.772 0-7.71.003-15.421 0-23.132-.005-8.928-.005-17.856-.003-26.783.002-7.651.005-15.302.005-22.953.003-4.576-.002-9.152-.002-13.728.001-4.3.003-8.601.001-12.902-.005-1.583 0-3.167 0-4.75.002-2.152.002-4.303-.001-6.455-.006l-3.658-.001C1 23 1 23 0 22a83.431 83.431 0 0 1-.098-4.91l.01-2.998.025-3.155.014-3.166C-.037 5.181-.02 2.591 0 0Z" style="fill:#1a1a1a" transform="translate(1025.989 231.559) scale(.5393)"/><path fill="#454546" d="M0 0h4v19h158V0h4c.029 3.646.047 7.292.063 10.938l.025 3.154.01 2.998.016 2.777C166 22 166 22 165 23c-2.111.1-4.226.126-6.34.127l-2.03.005c-2.26.004-4.521 0-6.782-.003l-4.843.006c-4.397.004-8.793.002-13.19 0-4.59-.003-9.181 0-13.772 0-7.71.003-15.421 0-23.132-.005-8.928-.005-17.856-.003-26.783.002-7.651.005-15.302.005-22.953.003-4.576-.002-9.152-.002-13.728.001-4.3.003-8.601.001-12.902-.005-1.583 0-3.167 0-4.75.002-2.152.002-4.303-.001-6.455-.006l-3.658-.001C1 23 1 23 0 22a83.431 83.431 0 0 1-.098-4.91l.01-2.998.025-3.155.014-3.166C-.037 5.181-.02 2.591 0 0Z" style="fill:#1a1a1a" transform="translate(922.442 231.559) scale(.5393)"/><path fill="#454547" d="M0 0h4v19h134V0h4c.029 3.646.047 7.292.063 10.938l.025 3.154.01 2.998.016 2.777C142 22 142 22 141 23c-1.807.099-3.618.126-5.428.127l-3.57.009-3.951-.007-4.134.006c-3.752.004-7.504.002-11.256 0-3.918-.003-7.836 0-11.754 0-6.58.003-13.161 0-19.742-.005-7.62-.005-15.238-.003-22.857.002-6.53.005-13.06.005-19.59.003-3.905-.002-7.81-.002-11.715.001-3.67.003-7.341.001-11.012-.005-1.998-.002-3.995.001-5.993.005l-3.57-.009-3.121-.001C1 23 1 23 0 22a83.431 83.431 0 0 1-.098-4.91l.01-2.998.025-3.155.014-3.166C-.037 5.181-.02 2.591 0 0Z" style="fill:#1a1a1a" transform="translate(818.895 231.559) scale(.5393)"/><path fill="#454547" d="M0 0h4v19h134V0h4c.029 3.646.047 7.292.063 10.938l.025 3.154.01 2.998.016 2.777C142 22 142 22 141 23c-1.807.099-3.618.126-5.428.127l-3.57.009-3.951-.007-4.134.006c-3.752.004-7.504.002-11.256 0-3.918-.003-7.836 0-11.754 0-6.58.003-13.161 0-19.742-.005-7.62-.005-15.238-.003-22.857.002-6.53.005-13.06.005-19.59.003-3.905-.002-7.81-.002-11.715.001-3.67.003-7.341.001-11.012-.005-1.998-.002-3.995.001-5.993.005l-3.57-.009-3.121-.001C1 23 1 23 0 22a83.431 83.431 0 0 1-.098-4.91l.01-2.998.025-3.155.014-3.166C-.037 5.181-.02 2.591 0 0Z" style="fill:#1a1a1a" transform="translate(611.802 231.559) scale(.5393)"/><path fill="#454547" d="M0 0h4v19h134V0h4c.029 3.646.047 7.292.063 10.938l.025 3.154.01 2.998.016 2.777C142 22 142 22 141 23c-1.807.099-3.618.126-5.428.127l-3.57.009-3.951-.007-4.134.006c-3.752.004-7.504.002-11.256 0-3.918-.003-7.836 0-11.754 0-6.58.003-13.161 0-19.742-.005-7.62-.005-15.238-.003-22.857.002-6.53.005-13.06.005-19.59.003-3.905-.002-7.81-.002-11.715.001-3.67.003-7.341.001-11.012-.005-1.998-.002-3.995.001-5.993.005l-3.57-.009-3.121-.001C1 23 1 23 0 22a83.431 83.431 0 0 1-.098-4.91l.01-2.998.025-3.155.014-3.166C-.037 5.181-.02 2.591 0 0Z" style="fill:#1a1a1a" transform="translate(223.501 231.559) scale(.5393)"/><path fill="#909090" d="M0 0h4v29h-120v17h-4V25H0Z" style="fill:#1a1a1a" transform="translate(1116.592 121.54) scale(.5393)"/><path fill="#909090" d="M251 80h4v29H135v17h-4v-21h120z" style="fill:#1a1a1a" transform="translate(62.249 78.396) scale(.5393)"/><path fill="#444446" d="M0 0h4c.029 3.646.047 7.292.063 10.938l.025 3.154.01 2.998.016 2.777C4 22 4 22 3 23a73.593 73.593 0 0 1-4.638.12l-3.038.004-3.361-.01h-3.518c-3.858 0-7.716-.009-11.574-.016l-8-.005c-6.314-.003-12.629-.011-18.944-.021-7.187-.011-14.374-.017-21.561-.022-14.789-.01-29.577-.028-44.366-.05v23h-4V19H0Z" style="fill:#1a1a1a" transform="translate(1113.357 121.54) scale(.5393)"/><path fill="#444446" d="M0 0h4c.029 3.646.047 7.292.063 10.938l.025 3.154.01 2.998.016 2.777C4 22 4 22 3 23a73.593 73.593 0 0 1-4.638.12l-3.038.004-3.361-.01h-3.518c-3.858 0-7.716-.009-11.574-.016l-8-.005c-6.314-.003-12.629-.011-18.944-.021-7.187-.011-14.374-.017-21.561-.022-14.789-.01-29.577-.028-44.366-.05v23h-4V19H0Z" style="fill:#1a1a1a" transform="translate(194.379 121.54) scale(.5393)"/><path fill="#919191" d="M0 0h4v29h-72v17h-4V25H0Z" style="fill:#1a1a1a" transform="translate(1090.706 176.55) scale(.5393)"/><path fill="#919191" d="M0 0h4v29h-72v17h-4V25H0Z" style="fill:#1a1a1a" transform="translate(171.728 176.55) scale(.5393)"/><path fill="#434345" d="M0 0h4c.029 3.646.047 7.292.063 10.938l.025 3.154.01 2.998.016 2.777C4 22 4 22 3 23c-2.209.094-4.42.117-6.631.114H-5.73c-2.3 0-4.6-.009-6.899-.016l-4.771-.005c-4.194-.003-8.388-.013-12.582-.024-4.276-.01-8.552-.015-12.829-.02-8.396-.01-16.793-.029-25.189-.049v23h-4V19H0Z" style="fill:#1a1a1a" transform="translate(1087.47 176.55) scale(.5393)"/><path fill="#434345" d="M0 0h4c.029 3.646.047 7.292.063 10.938l.025 3.154.01 2.998.016 2.777C4 22 4 22 3 23c-2.209.094-4.42.117-6.631.114H-5.73c-2.3 0-4.6-.009-6.899-.016l-4.771-.005c-4.194-.003-8.388-.013-12.582-.024-4.276-.01-8.552-.015-12.829-.02-8.396-.01-16.793-.029-25.189-.049v23h-4V19H0Z" style="fill:#1a1a1a" transform="translate(168.492 176.55) scale(.5393)"/><path fill="#929292" d="M0 0h4v25h50V0h4v29H0Z" style="fill:#1a1a1a" transform="translate(776.83 231.559) scale(.5393)"/><path fill="#929292" d="M0 0h4v25h50V0h4v29H0Z" style="fill:#1a1a1a" transform="translate(712.113 231.559) scale(.5393)"/><path fill="#929292" d="M0 0h4v25h50V0h4v29H0Z" style="fill:#1a1a1a" transform="translate(569.736 231.559) scale(.5393)"/><path fill="#929292" d="M0 0h4v25h50V0h4v29H0Z" style="fill:#1a1a1a" transform="translate(530.906 231.559) scale(.5393)"/><path fill="#929292" d="M0 0h4v25h50V0h4v29H0Z" style="fill:#1a1a1a" transform="translate(427.359 231.559) scale(.5393)"/><path fill="#929292" d="M0 0h4v25h50V0h4v29H0Z" style="fill:#1a1a1a" transform="translate(388.529 231.559) scale(.5393)"/><path fill="#929292" d="M0 0h4v25h50V0h4v29H0Z" style="fill:#1a1a1a" transform="translate(323.812 231.559) scale(.5393)"/><path fill="#929292" d="M0 0h4v25h50V0h4v29H0Z" style="fill:#1a1a1a" transform="translate(103.775 231.559) scale(.5393)"/><path fill="#929292" d="M0 0h4v25h50V0h4v29H0Z" style="fill:#1a1a1a" transform="translate(479.132 204.054) scale(.5393)"/><path fill="#49494A" d="M0 0h4v19h38V0h4c.029 3.646.047 7.292.063 10.938l.025 3.154.01 2.998.016 2.777C46 22 46 22 45 23a59.124 59.124 0 0 1-4.137.13l-2.66.009-2.89-.006-2.948.003c-2.062 0-4.123-.001-6.184-.006-3.167-.005-6.334 0-9.501.007-1.998 0-3.995-.002-5.992-.004l-2.892.006-2.66-.01-2.352-.002C1 23 1 23 0 22a83.431 83.431 0 0 1-.098-4.91l.01-2.998.025-3.155.014-3.166C-.037 5.181-.02 2.591 0 0Z" style="fill:#1a1a1a" transform="translate(780.065 231.559) scale(.5393)"/><path fill="#49494A" d="M0 0h4v19h38V0h4c.029 3.646.047 7.292.063 10.938l.025 3.154.01 2.998.016 2.777C46 22 46 22 45 23a59.124 59.124 0 0 1-4.137.13l-2.66.009-2.89-.006-2.948.003c-2.062 0-4.123-.001-6.184-.006-3.167-.005-6.334 0-9.501.007-1.998 0-3.995-.002-5.992-.004l-2.892.006-2.66-.01-2.352-.002C1 23 1 23 0 22a83.431 83.431 0 0 1-.098-4.91l.01-2.998.025-3.155.014-3.166C-.037 5.181-.02 2.591 0 0Z" style="fill:#1a1a1a" transform="translate(715.349 231.559) scale(.5393)"/><path fill="#49494A" d="M0 0h4v19h38V0h4c.029 3.646.047 7.292.063 10.938l.025 3.154.01 2.998.016 2.777C46 22 46 22 45 23a59.124 59.124 0 0 1-4.137.13l-2.66.009-2.89-.006-2.948.003c-2.062 0-4.123-.001-6.184-.006-3.167-.005-6.334 0-9.501.007-1.998 0-3.995-.002-5.992-.004l-2.892.006-2.66-.01-2.352-.002C1 23 1 23 0 22a83.431 83.431 0 0 1-.098-4.91l.01-2.998.025-3.155.014-3.166C-.037 5.181-.02 2.591 0 0Z" style="fill:#1a1a1a" transform="translate(572.972 231.559) scale(.5393)"/><path fill="#49494A" d="M0 0h4v19h38V0h4c.029 3.646.047 7.292.063 10.938l.025 3.154.01 2.998.016 2.777C46 22 46 22 45 23a59.124 59.124 0 0 1-4.137.13l-2.66.009-2.89-.006-2.948.003c-2.062 0-4.123-.001-6.184-.006-3.167-.005-6.334 0-9.501.007-1.998 0-3.995-.002-5.992-.004l-2.892.006-2.66-.01-2.352-.002C1 23 1 23 0 22a83.431 83.431 0 0 1-.098-4.91l.01-2.998.025-3.155.014-3.166C-.037 5.181-.02 2.591 0 0Z" style="fill:#1a1a1a" transform="translate(534.142 231.559) scale(.5393)"/><path fill="#49494A" d="M0 0h4v19h38V0h4c.029 3.646.047 7.292.063 10.938l.025 3.154.01 2.998.016 2.777C46 22 46 22 45 23a59.124 59.124 0 0 1-4.137.13l-2.66.009-2.89-.006-2.948.003c-2.062 0-4.123-.001-6.184-.006-3.167-.005-6.334 0-9.501.007-1.998 0-3.995-.002-5.992-.004l-2.892.006-2.66-.01-2.352-.002C1 23 1 23 0 22a83.431 83.431 0 0 1-.098-4.91l.01-2.998.025-3.155.014-3.166C-.037 5.181-.02 2.591 0 0Z" style="fill:#1a1a1a" transform="translate(430.595 231.559) scale(.5393)"/><path fill="#49494A" d="M0 0h4v19h38V0h4c.029 3.646.047 7.292.063 10.938l.025 3.154.01 2.998.016 2.777C46 22 46 22 45 23a59.124 59.124 0 0 1-4.137.13l-2.66.009-2.89-.006-2.948.003c-2.062 0-4.123-.001-6.184-.006-3.167-.005-6.334 0-9.501.007-1.998 0-3.995-.002-5.992-.004l-2.892.006-2.66-.01-2.352-.002C1 23 1 23 0 22a83.431 83.431 0 0 1-.098-4.91l.01-2.998.025-3.155.014-3.166C-.037 5.181-.02 2.591 0 0Z" style="fill:#1a1a1a" transform="translate(391.765 231.559) scale(.5393)"/><path fill="#49494A" d="M0 0h4v19h38V0h4c.029 3.646.047 7.292.063 10.938l.025 3.154.01 2.998.016 2.777C46 22 46 22 45 23a59.124 59.124 0 0 1-4.137.13l-2.66.009-2.89-.006-2.948.003c-2.062 0-4.123-.001-6.184-.006-3.167-.005-6.334 0-9.501.007-1.998 0-3.995-.002-5.992-.004l-2.892.006-2.66-.01-2.352-.002C1 23 1 23 0 22a83.431 83.431 0 0 1-.098-4.91l.01-2.998.025-3.155.014-3.166C-.037 5.181-.02 2.591 0 0Z" style="fill:#1a1a1a" transform="translate(327.048 231.559) scale(.5393)"/><path fill="#49494a" d="M83 284h4v19h38v-19h4c.029 3.646.047 7.292.063 10.938l.025 3.154.01 2.998.016 2.777C129 306 129 306 128 307a59.094 59.094 0 0 1-4.137.13l-2.66.01-2.89-.007-2.949.003c-2.06.001-4.122 0-6.183-.005-3.167-.005-6.334 0-9.501.006-1.998 0-3.995-.002-5.993-.004l-2.89.006-2.66-.01-2.353-.002C84 307 84 307 83 306a83.437 83.437 0 0 1-.098-4.91l.01-2.998.026-3.155.013-3.166c.012-2.59.028-5.18.049-7.771z" style="fill:#1a1a1a" transform="translate(62.249 78.396) scale(.5393)"/><path fill="#49494A" d="M0 0h4v19h38V0h4c.029 3.646.047 7.292.063 10.938l.025 3.154.01 2.998.016 2.777C46 22 46 22 45 23a59.124 59.124 0 0 1-4.137.13l-2.66.009-2.89-.006-2.948.003c-2.062 0-4.123-.001-6.184-.006-3.167-.005-6.334 0-9.501.007-1.998 0-3.995-.002-5.992-.004l-2.892.006-2.66-.01-2.352-.002C1 23 1 23 0 22a83.431 83.431 0 0 1-.098-4.91l.01-2.998.025-3.155.014-3.166C-.037 5.181-.02 2.591 0 0Z" style="fill:#1a1a1a" transform="translate(482.368 204.054) scale(.5393)"/><path fill="#919191" d="M0 0h4v29h-24v17h-4V25H0Z" style="fill:#1a1a1a" transform="translate(909.499 204.054) scale(.5393)"/><path fill="#919191" d="M0 0h4v29h-24v17h-4V25H0Z" style="fill:#1a1a1a" transform="translate(702.405 204.054) scale(.5393)"/><path fill="#919191" d="M0 0h4v29h-24v17h-4V25H0Z" style="fill:#1a1a1a" transform="translate(314.105 204.054) scale(.5393)"/><path fill="#919191" d="M0 0h4v29h-24v17h-4V25H0Z" style="fill:#1a1a1a" transform="translate(521.198 176.55) scale(.5393)"/><path fill="#919191" d="M0 0h4v29h-24v17h-4V25H0Z" style="fill:#1a1a1a" transform="translate(909.499 149.045) scale(.5393)"/><path fill="#919191" d="M0 0h4v29h-24v17h-4V25H0Z" style="fill:#1a1a1a" transform="translate(417.651 149.045) scale(.5393)"/><path fill="#474748" d="M0 0h4c.029 3.646.047 7.292.063 10.938l.025 3.154.01 2.998.016 2.777C4 22 4 22 3 23a90.91 90.91 0 0 1-5.129.098l-2.822-.008-3.612-.027L-20 23v23h-4V19H0Z" style="fill:#1a1a1a" transform="translate(906.263 204.054) scale(.5393)"/><path fill="#474748" d="M0 0h4c.029 3.646.047 7.292.063 10.938l.025 3.154.01 2.998.016 2.777C4 22 4 22 3 23a90.91 90.91 0 0 1-5.129.098l-2.822-.008-3.612-.027L-20 23v23h-4V19H0Z" style="fill:#1a1a1a" transform="translate(699.17 204.054) scale(.5393)"/><path fill="#474748" d="M0 0h4c.029 3.646.047 7.292.063 10.938l.025 3.154.01 2.998.016 2.777C4 22 4 22 3 23a90.91 90.91 0 0 1-5.129.098l-2.822-.008-3.612-.027L-20 23v23h-4V19H0Z" style="fill:#1a1a1a" transform="translate(310.869 204.054) scale(.5393)"/><path fill="#464647" d="M0 0h4c.029 3.646.047 7.292.063 10.938l.025 3.154.01 2.998.016 2.777C4 22 4 22 3 23a90.91 90.91 0 0 1-5.129.098l-2.822-.008-3.612-.027L-20 23v23h-4V19H0Z" style="fill:#1a1a1a" transform="translate(517.962 176.55) scale(.5393)"/><path fill="#474748" d="M0 0h4c.029 3.646.047 7.292.063 10.938l.025 3.154.01 2.998.016 2.777C4 22 4 22 3 23a90.91 90.91 0 0 1-5.129.098l-2.822-.008-3.612-.027L-20 23v23h-4V19H0Z" style="fill:#1a1a1a" transform="translate(906.263 149.045) scale(.5393)"/><path fill="#474748" d="M0 0h4c.029 3.646.047 7.292.063 10.938l.025 3.154.01 2.998.016 2.777C4 22 4 22 3 23a90.91 90.91 0 0 1-5.129.098l-2.822-.008-3.612-.027L-20 23v23h-4V19H0Z" style="fill:#1a1a1a" transform="translate(414.416 149.045) scale(.5393)"/><path fill="#4B4B4B" d="M0 0h4v46H0Z" style="fill:#1a1a1a" transform="translate(805.952 204.054) scale(.5393)"/><path fill="#4B4B4B" d="M0 0h4v46H0Z" style="fill:#1a1a1a" transform="translate(802.716 204.054) scale(.5393)"/><path fill="#4B4B4B" d="M0 0h4v46H0Z" style="fill:#1a1a1a" transform="translate(741.235 204.054) scale(.5393)"/><path fill="#4B4B4B" d="M0 0h4v46H0Z" style="fill:#1a1a1a" transform="translate(738 204.054) scale(.5393)"/><path fill="#4B4B4B" d="M0 0h4v46H0Z" style="fill:#1a1a1a" transform="translate(598.858 204.054) scale(.5393)"/><path fill="#4B4B4B" d="M0 0h4v46H0Z" style="fill:#1a1a1a" transform="translate(595.623 204.054) scale(.5393)"/><path fill="#4B4B4B" d="M0 0h4v46H0Z" style="fill:#1a1a1a" transform="translate(560.028 204.054) scale(.5393)"/><path fill="#4B4B4B" d="M0 0h4v46H0Z" style="fill:#1a1a1a" transform="translate(556.792 204.054) scale(.5393)"/><path fill="#4B4B4B" d="M0 0h4v46H0Z" style="fill:#1a1a1a" transform="translate(456.481 204.054) scale(.5393)"/><path fill="#4B4B4B" d="M0 0h4v46H0Z" style="fill:#1a1a1a" transform="translate(453.246 204.054) scale(.5393)"/><path fill="#4B4B4B" d="M0 0h4v46H0Z" style="fill:#1a1a1a" transform="translate(417.651 204.054) scale(.5393)"/><path fill="#4B4B4B" d="M0 0h4v46H0Z" style="fill:#1a1a1a" transform="translate(414.416 204.054) scale(.5393)"/><path fill="#4B4B4B" d="M0 0h4v46H0Z" style="fill:#1a1a1a" transform="translate(352.935 204.054) scale(.5393)"/><path fill="#4B4B4B" d="M0 0h4v46H0Z" style="fill:#1a1a1a" transform="translate(349.699 204.054) scale(.5393)"/><path fill="none" d="M0 0h4v46H0Z" style="fill:#1a1a1a;fill-opacity:0" transform="translate(132.898 204.054) scale(.5393)"/><path fill="#4B4B4B" d="M0 0h4v46H0Z" style="fill:#1a1a1a" transform="translate(129.662 204.054) scale(.5393)"/><path fill="#4B4B4B" d="M0 0h4v46H0Z" style="fill:#1a1a1a" transform="translate(948.329 176.55) scale(.5393)"/><path fill="#4B4B4B" d="M0 0h4v46H0Z" style="fill:#1a1a1a" transform="translate(945.093 176.55) scale(.5393)"/><path fill="#4B4B4B" d="M0 0h4v46H0Z" style="fill:#1a1a1a" transform="translate(805.952 176.55) scale(.5393)"/><path fill="#4B4B4B" d="M0 0h4v46H0Z" style="fill:#1a1a1a" transform="translate(802.716 176.55) scale(.5393)"/><path fill="#4B4B4B" d="M0 0h4v46H0Z" style="fill:#1a1a1a" transform="translate(702.405 176.55) scale(.5393)"/><path fill="#4B4B4B" d="M0 0h4v46H0Z" style="fill:#1a1a1a" transform="translate(699.17 176.55) scale(.5393)"/><path fill="#4B4B4B" d="M0 0h4v46H0Z" style="fill:#1a1a1a" transform="translate(637.688 176.55) scale(.5393)"/><path fill="#4B4B4B" d="M0 0h4v46H0Z" style="fill:#1a1a1a" transform="translate(634.453 176.55) scale(.5393)"/><path fill="#4B4B4B" d="M0 0h4v46H0Z" style="fill:#1a1a1a" transform="translate(598.858 176.55) scale(.5393)"/><path fill="#4B4B4B" d="M0 0h4v46H0Z" style="fill:#1a1a1a" transform="translate(595.623 176.55) scale(.5393)"/><path fill="#4B4B4B" d="M0 0h4v46H0Z" style="fill:#1a1a1a" transform="translate(560.028 176.55) scale(.5393)"/><path fill="#4B4B4B" d="M0 0h4v46H0Z" style="fill:#1a1a1a" transform="translate(556.792 176.55) scale(.5393)"/><path fill="#4B4B4B" d="M0 0h4v46H0Z" style="fill:#1a1a1a" transform="translate(456.481 176.55) scale(.5393)"/><path fill="#4B4B4B" d="M0 0h4v46H0Z" style="fill:#1a1a1a" transform="translate(453.246 176.55) scale(.5393)"/><path fill="#4B4B4B" d="M0 0h4v46H0Z" style="fill:#1a1a1a" transform="translate(314.105 176.55) scale(.5393)"/><path fill="#4B4B4B" d="M0 0h4v46H0Z" style="fill:#1a1a1a" transform="translate(310.869 176.55) scale(.5393)"/><path fill="#4B4B4B" d="M0 0h4v46H0Z" style="fill:#1a1a1a" transform="translate(236.444 176.55) scale(.5393)"/><path fill="#4B4B4B" d="M0 0h4v46H0Z" style="fill:#1a1a1a" transform="translate(233.209 176.55) scale(.5393)"/><path fill="#4B4B4B" d="M0 0h4v46H0Z" style="fill:#1a1a1a" transform="translate(948.329 149.045) scale(.5393)"/><path fill="#4B4B4B" d="M0 0h4v46H0Z" style="fill:#1a1a1a" transform="translate(945.093 149.045) scale(.5393)"/><path fill="#4B4B4B" d="M0 0h4v46H0Z" style="fill:#1a1a1a" transform="translate(805.952 149.045) scale(.5393)"/><path fill="#4B4B4B" d="M0 0h4v46H0Z" style="fill:#1a1a1a" transform="translate(802.716 149.045) scale(.5393)"/><path fill="#4B4B4B" d="M0 0h4v46H0Z" style="fill:#1a1a1a" transform="translate(702.405 149.045) scale(.5393)"/><path fill="#4B4B4B" d="M0 0h4v46H0Z" style="fill:#1a1a1a" transform="translate(699.17 149.045) scale(.5393)"/><path fill="#4B4B4B" d="M0 0h4v46H0Z" style="fill:#1a1a1a" transform="translate(637.688 149.045) scale(.5393)"/><path fill="#4B4B4B" d="M0 0h4v46H0Z" style="fill:#1a1a1a" transform="translate(634.453 149.045) scale(.5393)"/><path fill="#4B4B4B" d="M0 0h4v46H0Z" style="fill:#1a1a1a" transform="translate(598.858 149.045) scale(.5393)"/><path fill="#4B4B4B" d="M0 0h4v46H0Z" style="fill:#1a1a1a" transform="translate(595.623 149.045) scale(.5393)"/><path fill="#4B4B4B" d="M0 0h4v46H0Z" style="fill:#1a1a1a" transform="translate(560.028 149.045) scale(.5393)"/><path fill="#4B4B4B" d="M0 0h4v46H0Z" style="fill:#1a1a1a" transform="translate(556.792 149.045) scale(.5393)"/><path fill="#4B4B4B" d="M0 0h4v46H0Z" style="fill:#1a1a1a" transform="translate(314.105 149.045) scale(.5393)"/><path fill="#4B4B4B" d="M0 0h4v46H0Z" style="fill:#1a1a1a" transform="translate(310.869 149.045) scale(.5393)"/><path fill="#4B4B4B" d="M0 0h4v46H0Z" style="fill:#1a1a1a" transform="translate(236.444 149.045) scale(.5393)"/><path fill="#4B4B4B" d="M0 0h4v46H0Z" style="fill:#1a1a1a" transform="translate(233.209 149.045) scale(.5393)"/><path fill="#4B4B4B" d="M0 0h4v46H0Z" style="fill:#1a1a1a" transform="translate(948.329 121.54) scale(.5393)"/><path fill="#4B4B4B" d="M0 0h4v46H0Z" style="fill:#1a1a1a" transform="translate(598.858 121.54) scale(.5393)"/><path fill="#4B4B4B" d="M0 0h4v46H0Z" style="fill:#1a1a1a" transform="translate(560.028 121.54) scale(.5393)"/><path fill="#4B4B4B" d="M0 0h4v46H0Z" style="fill:#1a1a1a" transform="translate(945.093 121.54) scale(.5393)"/><path fill="#4B4B4B" d="M0 0h4v46H0Z" style="fill:#1a1a1a" transform="translate(595.623 121.54) scale(.5393)"/><path fill="#4B4B4B" d="M0 0h4v46H0Z" style="fill:#1a1a1a" transform="translate(556.792 121.54) scale(.5393)"/><text xml:space="preserve" style="font-weight:700;font-size:53.3333px;line-height:1.2em;font-family:&quot;Ubuntu Mono&quot;;-inkscape-font-specification:&quot;Ubuntu Mono Bold&quot;;text-align:start;writing-mode:lr-tb;direction:ltr;white-space:pre;shape-inside:url(#a);fill:#ececec;fill-opacity:1;stroke-width:4;font-style:normal;font-stretch:normal;font-variant:normal" transform="translate(180.319 -117.29)"><tspan x="-80.617" y="459.366"><tspan style="fill:#1a1a1a">A simple but powerful library for </tspan></tspan><tspan x="-80.617" y="523.366"><tspan style="fill:#1a1a1a">processing web forms</tspan></tspan></text><text xml:space="preserve" style="font-style:normal;font-variant:normal;font-weight:700;font-stretch:normal;font-size:32px;line-height:1.2em;font-family:&quot;Ubuntu Mono&quot;;-inkscape-font-specification:&quot;Ubuntu Mono Bold&quot;;text-align:start;writing-mode:lr-tb;direction:ltr;white-space:pre;shape-inside:url(#b);fill:#4d4d4d;fill-opacity:1;stroke-width:4" transform="translate(787.72 82.71)"><tspan x="-80.617" y="439.496">formidable.scaletti.dev</tspan></text></svg>